{"glyphs":{"0":{"ha":559,"x_min":72,"x_max":487,"o":"m 281 -12 q 72 241 72 -12 l 72 718 q 281 971 72 970 q 487 718 487 971 l 487 241 q 281 -12 487 -12 m 174 256 q 198 117 174 156 q 281 77 222 77 q 363 118 340 77 q 387 256 387 159 l 387 701 q 363 840 387 799 q 281 880 340 880 q 197 839 220 880 q 174 701 174 798 l 174 256 z "},"1":{"ha":380,"x_min":54,"x_max":289,"o":"m 195 0 l 195 841 l 54 730 l 54 848 l 195 959 l 289 959 l 289 0 l 195 0 z "},"2":{"ha":544,"x_min":65,"x_max":479,"o":"m 65 0 l 65 80 l 331 552 q 366 631 354 593 q 378 715 378 669 l 378 754 q 269 880 378 880 q 193 847 221 880 q 165 755 165 814 l 165 700 l 65 700 l 65 765 q 121 916 65 861 q 273 971 178 971 q 424 916 369 971 q 479 766 479 860 l 479 715 q 465 609 479 656 q 415 505 450 562 l 182 91 l 475 91 l 475 0 l 65 0 z "},"3":{"ha":562,"x_min":65,"x_max":490,"o":"m 275 -12 q 119 41 174 -12 q 65 189 65 94 l 65 250 l 165 250 l 165 197 q 194 109 165 141 q 277 77 222 77 q 360 110 331 77 q 389 206 389 142 l 389 312 q 362 417 389 381 q 271 453 335 453 l 231 453 l 231 543 l 271 543 q 359 577 332 543 q 385 678 385 612 l 385 753 q 275 880 385 880 q 196 848 224 880 q 168 761 168 817 l 168 705 l 68 705 l 68 762 q 122 917 68 863 q 278 971 176 971 q 431 918 378 971 q 484 764 484 864 l 484 682 q 463 570 484 613 q 385 503 441 528 q 467 432 445 477 q 490 311 490 387 l 490 210 q 434 45 490 102 q 275 -12 378 -12 z "},"4":{"ha":576,"x_min":50,"x_max":528,"o":"m 342 0 l 342 193 l 50 193 l 50 283 l 251 959 l 353 959 l 149 283 l 342 283 l 342 534 l 444 534 l 444 283 l 528 283 l 528 193 l 444 193 l 444 0 l 342 0 z "},"5":{"ha":552,"x_min":72,"x_max":480,"o":"m 275 -12 q 123 43 175 -12 q 72 203 72 99 l 72 228 l 168 228 l 168 205 q 274 77 168 80 q 354 111 328 77 q 380 216 380 144 l 380 388 q 355 492 380 460 q 275 525 331 525 q 170 457 206 525 l 83 457 l 83 959 l 472 959 l 472 864 l 178 864 l 178 570 q 227 603 197 590 q 294 616 256 616 q 480 389 480 616 l 480 220 q 275 -12 480 -12 z "},"6":{"ha":548,"x_min":65,"x_max":483,"o":"m 275 -12 q 121 47 176 -12 q 65 210 65 107 l 65 349 q 69 418 65 388 q 83 479 73 449 q 110 548 92 509 l 282 959 l 384 959 l 216 553 q 292 572 240 572 q 432 517 381 572 q 483 363 483 461 l 483 208 q 426 47 483 106 q 275 -12 369 -12 m 167 208 q 194 111 167 145 q 275 77 221 77 q 353 109 324 77 q 382 206 382 141 l 382 355 q 355 450 382 416 q 275 483 327 483 q 195 451 224 483 q 167 361 167 419 l 167 208 z "},"7":{"ha":500,"x_min":43,"x_max":458,"o":"m 99 0 l 358 868 l 43 868 l 43 959 l 458 959 l 458 868 l 199 0 l 99 0 z "},"8":{"ha":559,"x_min":72,"x_max":488,"o":"m 279 -12 q 127 47 182 -12 q 72 213 72 107 l 72 317 q 168 503 72 450 q 102 572 126 526 q 77 674 77 617 l 77 762 q 133 915 77 859 q 279 971 189 971 q 427 915 373 971 q 481 762 481 859 l 481 674 q 458 570 481 614 q 392 503 434 526 q 487 317 488 452 l 487 213 q 433 47 487 107 q 279 -12 380 -12 m 279 73 q 395 216 395 75 l 395 320 q 279 460 395 460 q 192 422 218 460 q 165 320 165 384 l 165 216 q 193 111 165 149 q 279 73 220 73 m 279 544 q 362 580 335 544 q 389 674 389 616 l 389 762 q 359 852 389 821 q 279 884 330 884 q 199 850 228 884 q 171 762 171 817 l 171 674 q 198 579 171 614 q 279 544 225 544 z "},"9":{"ha":548,"x_min":65,"x_max":483,"o":"m 165 0 l 335 406 q 303 392 326 397 q 256 387 281 387 q 116 443 167 387 q 65 594 65 499 l 65 751 q 123 913 65 856 q 275 971 180 971 q 428 912 373 971 q 483 749 483 853 l 483 610 q 473 509 483 551 q 439 410 463 468 l 267 0 l 165 0 m 167 602 q 195 508 167 541 q 275 475 222 475 q 353 505 324 475 q 382 597 382 536 l 382 751 q 355 848 382 815 q 275 880 327 880 q 194 846 221 880 q 167 753 167 812 l 167 602 z "},"\u0000":{"ha":0,"x_min":0,"x_max":0,"o":""},"\r":{"ha":243,"x_min":0,"x_max":0,"o":""}," ":{"ha":243,"x_min":0,"x_max":0,"o":""},"!":{"ha":282,"x_min":81,"x_max":201,"o":"m 102 273 l 81 959 l 201 959 l 180 273 l 102 273 m 88 0 l 88 134 l 195 134 l 195 0 l 88 0 z "},"\"":{"ha":388,"x_min":57,"x_max":332,"o":"m 57 636 l 57 959 l 152 959 l 152 636 l 57 636 m 237 636 l 237 959 l 332 959 l 332 636 l 237 636 z "},"#":{"ha":642,"x_min":27,"x_max":614,"o":"m 91 0 l 125 309 l 27 309 l 27 393 l 133 393 l 156 591 l 57 591 l 57 675 l 165 675 l 195 959 l 288 959 l 255 675 l 419 675 l 450 959 l 541 959 l 510 675 l 614 675 l 614 591 l 502 591 l 479 393 l 586 393 l 586 309 l 469 309 l 435 0 l 345 0 l 380 309 l 216 309 l 180 0 l 91 0 m 225 393 l 388 393 l 410 591 l 247 591 l 225 393 z "},"$":{"ha":515,"x_min":31,"x_max":486,"o":"m 221 -100 l 221 34 q 31 278 35 54 l 119 278 q 158 152 122 191 q 260 113 194 113 q 361 151 328 113 q 395 269 395 189 q 365 373 395 336 q 259 439 335 410 q 128 506 176 472 q 60 584 80 540 q 39 686 39 628 q 87 840 39 779 q 221 914 134 901 l 221 1046 l 294 1046 l 294 914 q 480 684 469 898 l 395 684 q 260 834 387 834 q 163 796 195 834 q 132 690 132 758 q 161 596 132 631 q 260 532 190 562 q 428 428 370 486 q 486 270 486 370 q 436 105 486 165 q 294 35 387 45 l 294 -100 l 221 -100 z "},"%":{"ha":959,"x_min":46,"x_max":916,"o":"m 191 366 q 46 543 46 366 l 46 795 q 191 968 46 968 q 338 795 338 968 l 338 543 q 191 366 338 366 m 769 -11 q 659 33 694 -11 q 624 165 624 76 l 624 416 q 769 590 624 590 q 916 416 916 590 l 916 165 q 769 -11 916 -11 m 266 0 l 610 959 l 697 959 l 353 0 l 266 0 m 719 165 q 731 95 719 115 q 769 75 743 75 q 808 95 796 75 q 819 165 819 115 l 819 416 q 808 484 819 464 q 769 505 798 505 q 730 484 742 505 q 719 416 719 463 l 719 165 m 141 543 q 153 474 141 495 q 191 453 164 453 q 230 473 218 453 q 241 543 241 494 l 241 795 q 231 861 241 840 q 191 882 221 882 q 152 860 163 882 q 141 795 141 838 l 141 543 z "},"&":{"ha":720,"x_min":69,"x_max":651,"o":"m 274 -14 q 124 46 179 -14 q 69 205 69 106 q 109 349 69 277 q 239 521 148 420 q 173 634 197 589 q 140 714 149 680 q 130 780 130 749 q 182 918 130 864 q 317 972 235 972 q 454 920 401 972 q 506 780 506 868 q 473 656 506 716 q 359 510 441 595 l 490 288 l 566 412 l 640 363 l 541 201 l 581 134 q 607 102 595 111 q 636 94 618 94 l 651 94 l 651 -1 l 605 -1 q 543 17 571 -1 q 483 107 515 35 q 390 16 441 45 q 274 -14 339 -14 m 171 210 q 201 115 171 149 q 282 81 232 81 q 358 106 323 81 q 431 193 393 130 l 290 435 q 198 313 225 365 q 171 210 171 262 m 308 597 q 385 702 365 662 q 406 784 406 742 q 382 859 406 833 q 320 886 359 886 q 255 857 278 886 q 232 784 232 829 q 248 715 232 754 q 308 597 263 675 z "},"'":{"ha":208,"x_min":57,"x_max":152,"o":"m 57 636 l 57 959 l 152 959 l 152 636 l 57 636 z "},"(":{"ha":359,"x_min":69,"x_max":290,"o":"m 209 -117 q 104 162 140 16 q 69 456 69 308 q 209 1028 69 757 l 290 1028 q 197 745 229 892 q 165 456 165 598 q 197 165 165 312 q 290 -117 229 19 l 209 -117 z "},")":{"ha":359,"x_min":69,"x_max":290,"o":"m 69 -117 q 162 166 130 20 q 194 456 194 312 q 162 743 194 597 q 69 1028 130 888 l 152 1028 q 255 749 220 897 q 290 456 290 602 q 255 162 290 308 q 152 -117 220 16 l 69 -117 z "},"*":{"ha":483,"x_min":69,"x_max":414,"o":"m 208 568 l 208 711 l 102 650 l 69 704 l 178 766 l 69 829 l 102 884 l 208 823 l 208 959 l 277 959 l 277 822 l 382 883 l 412 829 l 304 766 l 414 704 l 382 650 l 277 711 l 277 568 l 208 568 z "},"+":{"ha":583,"x_min":56,"x_max":529,"o":"m 247 148 l 247 338 l 56 338 l 56 429 l 247 429 l 247 620 l 338 620 l 338 429 l 529 429 l 529 338 l 338 338 l 338 148 l 247 148 z "},",":{"ha":208,"x_min":57,"x_max":152,"o":"m 57 -195 l 57 129 l 152 129 l 152 -114 l 57 -195 z "},"-":{"ha":521,"x_min":69,"x_max":452,"o":"m 69 438 l 69 528 l 452 528 l 452 438 l 69 438 z "},".":{"ha":221,"x_min":57,"x_max":165,"o":"m 57 0 l 57 123 l 165 123 l 165 0 l 57 0 z "},"/":{"ha":411,"x_min":69,"x_max":342,"o":"m 69 -14 l 251 959 l 342 959 l 160 -14 l 69 -14 z "},":":{"ha":221,"x_min":57,"x_max":165,"o":"m 57 0 l 57 123 l 165 123 l 165 0 l 57 0 m 57 469 l 57 593 l 165 593 l 165 469 l 57 469 z "},";":{"ha":221,"x_min":57,"x_max":165,"o":"m 68 -195 l 68 129 l 163 129 l 163 -114 l 68 -195 m 57 469 l 57 593 l 165 593 l 165 469 l 57 469 z "},"<":{"ha":583,"x_min":56,"x_max":529,"o":"m 529 146 l 56 339 l 56 427 l 529 621 l 529 528 l 171 384 l 529 239 l 529 146 z "},"=":{"ha":583,"x_min":56,"x_max":529,"o":"m 56 208 l 56 298 l 529 298 l 529 208 l 56 208 m 56 467 l 56 557 l 529 557 l 529 467 l 56 467 z "},">":{"ha":583,"x_min":56,"x_max":529,"o":"m 56 146 l 56 239 l 414 384 l 56 528 l 56 621 l 529 427 l 529 339 l 56 146 z "},"?":{"ha":503,"x_min":42,"x_max":453,"o":"m 197 247 l 197 342 q 201 396 197 373 q 215 444 205 419 q 245 503 225 468 l 304 600 q 341 675 331 644 q 351 749 351 707 q 248 882 351 882 q 165 841 189 882 q 142 711 142 800 l 42 711 q 247 972 42 972 q 400 913 347 972 q 453 749 453 853 q 446 686 453 715 q 425 625 439 656 q 385 548 411 593 l 334 463 q 304 398 311 423 q 298 335 298 373 l 298 247 l 197 247 m 193 0 l 193 134 l 301 134 l 301 0 l 193 0 z "},"@":{"ha":1019,"x_min":69,"x_max":949,"o":"m 509 -178 q 275 -120 374 -178 q 123 42 176 -62 q 69 289 69 146 l 69 503 q 123 742 69 639 q 277 903 178 845 q 509 962 376 962 q 738 905 639 962 q 893 747 837 848 q 949 515 949 646 l 949 300 q 903 133 949 189 q 772 77 856 77 q 682 102 720 77 q 624 168 643 126 q 480 77 589 77 q 361 132 399 77 q 324 285 324 186 l 324 488 q 359 639 324 586 q 477 692 395 692 q 597 628 557 692 l 597 681 l 692 681 l 692 258 q 715 186 692 212 q 773 161 739 161 q 840 195 821 161 q 860 290 860 228 l 860 514 q 767 779 860 681 q 509 876 674 876 q 252 778 343 876 q 161 503 161 680 l 161 290 q 253 8 161 110 q 509 -94 345 -94 q 641 -77 585 -94 q 751 -22 697 -60 l 796 -92 q 661 -158 730 -138 q 509 -178 591 -178 m 419 286 q 440 196 419 228 q 507 164 461 164 q 577 196 557 164 q 597 288 597 228 l 597 486 q 576 575 597 545 q 507 605 556 605 q 438 574 457 605 q 419 487 419 543 l 419 286 z "},"A":{"ha":640,"x_min":12,"x_max":628,"o":"m 12 0 l 274 959 l 366 959 l 628 0 l 521 0 l 460 244 l 179 244 l 118 0 l 12 0 m 201 332 l 438 332 l 320 806 l 201 332 z "},"B":{"ha":652,"x_min":83,"x_max":581,"o":"m 83 0 l 83 959 l 328 959 q 513 897 456 959 q 571 708 571 836 q 445 498 571 545 q 581 264 581 460 q 519 66 581 133 q 330 0 458 0 l 83 0 m 184 91 l 321 91 q 441 134 403 91 q 479 271 479 178 q 321 452 479 452 l 184 452 l 184 91 m 184 541 l 320 541 q 469 703 469 541 q 434 830 469 792 q 321 868 399 868 l 184 868 l 184 541 z "},"C":{"ha":663,"x_min":72,"x_max":591,"o":"m 335 -11 q 144 62 217 -11 q 72 279 72 136 l 72 680 q 143 898 72 825 q 334 971 214 971 q 520 901 449 971 q 591 692 591 831 l 591 680 l 490 680 l 490 689 q 448 833 490 788 q 335 879 407 879 q 215 829 256 879 q 174 670 174 779 l 174 278 q 335 80 174 83 q 448 125 406 80 q 490 267 490 171 l 490 279 l 589 279 l 589 266 q 518 58 589 127 q 335 -11 448 -11 z "},"D":{"ha":662,"x_min":83,"x_max":590,"o":"m 83 0 l 83 959 l 332 959 q 519 886 449 959 q 590 669 590 812 l 590 290 q 519 73 590 146 q 332 0 449 0 l 83 0 m 184 91 l 332 91 q 448 140 407 91 q 488 289 488 189 l 488 658 q 448 816 488 764 q 332 868 408 868 l 184 868 l 184 91 z "},"E":{"ha":559,"x_min":83,"x_max":510,"o":"m 83 0 l 83 959 l 510 959 l 510 868 l 183 868 l 183 533 l 464 533 l 464 442 l 183 442 l 183 91 l 510 91 l 510 0 l 83 0 z "},"F":{"ha":551,"x_min":83,"x_max":510,"o":"m 83 0 l 83 959 l 510 959 l 510 868 l 184 868 l 184 529 l 465 529 l 465 438 l 184 438 l 184 0 l 83 0 z "},"G":{"ha":663,"x_min":72,"x_max":591,"o":"m 334 -11 q 144 62 217 -11 q 72 279 72 134 l 72 680 q 143 898 72 825 q 334 971 214 971 q 521 903 450 971 q 591 705 591 834 l 591 689 l 490 689 l 490 705 q 448 833 490 788 q 334 879 406 879 q 174 670 174 879 l 174 278 q 334 80 174 81 q 448 127 407 80 q 490 274 490 175 l 490 407 l 332 407 l 332 491 l 591 491 l 591 278 q 520 61 591 133 q 334 -11 449 -11 z "},"H":{"ha":663,"x_min":83,"x_max":581,"o":"m 83 0 l 83 959 l 184 959 l 184 533 l 479 533 l 479 959 l 581 959 l 581 0 l 479 0 l 479 444 l 184 444 l 184 0 l 83 0 z "},"I":{"ha":282,"x_min":92,"x_max":191,"o":"m 92 0 l 92 959 l 191 959 l 191 0 l 92 0 z "},"J":{"ha":365,"x_min":34,"x_max":274,"o":"m 34 0 l 34 91 l 73 91 q 172 201 172 91 l 172 959 l 274 959 l 274 190 q 224 47 274 95 q 81 0 174 0 l 34 0 z "},"K":{"ha":640,"x_min":83,"x_max":632,"o":"m 83 0 l 83 959 l 184 959 l 184 425 l 491 959 l 598 959 l 368 568 l 632 0 l 521 0 l 307 465 l 184 256 l 184 0 l 83 0 z "},"L":{"ha":543,"x_min":83,"x_max":510,"o":"m 83 0 l 83 959 l 184 959 l 184 91 l 510 91 l 510 0 l 83 0 z "},"M":{"ha":830,"x_min":83,"x_max":747,"o":"m 83 0 l 83 959 l 184 959 l 416 366 l 646 959 l 747 959 l 747 0 l 646 0 l 646 736 l 449 222 l 382 222 l 184 732 l 184 0 l 83 0 z "},"N":{"ha":697,"x_min":83,"x_max":614,"o":"m 83 0 l 83 959 l 184 959 l 513 221 l 513 959 l 614 959 l 614 0 l 513 0 l 184 736 l 184 0 l 83 0 z "},"O":{"ha":663,"x_min":72,"x_max":591,"o":"m 332 -11 q 144 62 216 -11 q 72 279 72 134 l 72 680 q 143 900 72 829 q 332 971 214 971 q 522 898 452 971 q 591 680 591 825 l 591 279 q 520 62 591 136 q 332 -11 449 -11 m 174 278 q 334 80 174 81 q 449 129 408 80 q 490 278 490 178 l 490 670 q 449 828 490 777 q 334 879 408 879 q 174 670 174 879 l 174 278 z "},"P":{"ha":610,"x_min":83,"x_max":578,"o":"m 83 0 l 83 959 l 332 959 q 519 888 461 959 q 578 680 578 818 q 332 406 578 406 l 184 406 l 184 0 l 83 0 m 184 496 l 327 496 q 441 539 404 496 q 477 680 477 582 q 441 823 477 779 q 327 868 406 868 l 184 868 l 184 496 z "},"Q":{"ha":663,"x_min":72,"x_max":591,"o":"m 464 -198 l 385 -7 q 332 -11 361 -11 q 144 62 216 -11 q 72 279 72 134 l 72 680 q 143 900 72 829 q 332 971 214 971 q 522 898 452 971 q 591 680 591 825 l 591 279 q 559 117 591 182 q 469 22 528 53 l 547 -165 l 464 -198 m 174 278 q 334 80 174 81 q 449 129 408 80 q 490 278 490 178 l 490 670 q 449 828 490 777 q 334 879 408 879 q 174 670 174 879 l 174 278 z "},"R":{"ha":647,"x_min":83,"x_max":605,"o":"m 83 0 l 83 959 l 336 959 q 519 892 461 959 q 578 688 578 825 q 437 435 578 483 l 605 0 l 498 0 l 339 419 l 184 419 l 184 0 l 83 0 m 184 509 l 335 509 q 442 553 408 509 q 476 688 476 598 q 444 824 476 780 q 335 868 411 868 l 184 868 l 184 509 z "},"S":{"ha":591,"x_min":37,"x_max":541,"o":"m 288 -9 q 102 60 165 -9 q 37 263 39 130 l 37 279 l 134 279 l 134 263 q 178 124 138 168 q 292 80 217 80 q 404 122 366 80 q 441 252 441 164 q 407 368 441 328 q 290 442 373 408 l 235 464 q 93 561 140 503 q 46 716 46 618 q 111 901 46 830 q 293 972 175 972 q 467 907 404 972 q 536 713 530 842 l 536 680 l 441 680 l 441 713 q 292 882 430 882 q 183 840 218 882 q 148 722 148 798 q 180 616 148 655 q 292 545 213 576 l 349 524 q 492 425 444 486 q 541 254 541 365 q 476 58 541 126 q 288 -9 411 -9 z "},"T":{"ha":511,"x_min":8,"x_max":503,"o":"m 206 0 l 206 868 l 8 868 l 8 959 l 503 959 l 503 868 l 305 868 l 305 0 l 206 0 z "},"U":{"ha":666,"x_min":83,"x_max":583,"o":"m 334 -11 q 206 21 263 -11 q 116 111 149 53 q 83 244 83 168 l 83 959 l 184 959 l 184 250 q 224 124 184 168 q 334 80 264 80 q 442 125 403 80 q 481 250 481 171 l 481 959 l 583 959 l 583 244 q 514 58 583 127 q 334 -11 445 -11 z "},"V":{"ha":587,"x_min":12,"x_max":575,"o":"m 245 0 l 12 959 l 121 959 l 294 159 l 467 959 l 575 959 l 343 0 l 245 0 z "},"W":{"ha":909,"x_min":12,"x_max":898,"o":"m 201 0 l 12 959 l 118 959 l 256 153 l 392 959 l 525 959 l 661 153 l 798 959 l 898 959 l 711 0 l 602 0 l 456 808 l 309 0 l 201 0 z "},"X":{"ha":576,"x_min":12,"x_max":566,"o":"m 12 0 l 231 498 l 31 959 l 144 959 l 290 598 l 433 959 l 547 959 l 346 499 l 566 0 l 450 0 l 289 397 l 126 0 l 12 0 z "},"Y":{"ha":544,"x_min":12,"x_max":532,"o":"m 222 0 l 222 399 l 12 959 l 123 959 l 273 519 l 420 959 l 532 959 l 323 399 l 323 0 l 222 0 z "},"Z":{"ha":534,"x_min":42,"x_max":498,"o":"m 42 0 l 42 91 l 388 868 l 57 868 l 57 959 l 487 959 l 487 868 l 140 91 l 498 91 l 498 0 l 42 0 z "},"[":{"ha":351,"x_min":83,"x_max":282,"o":"m 83 -117 l 83 1028 l 282 1028 l 282 937 l 179 937 l 179 -26 l 282 -26 l 282 -117 l 83 -117 z "},"\\":{"ha":411,"x_min":69,"x_max":342,"o":"m 251 -14 l 69 959 l 160 959 l 342 -14 l 251 -14 z "},"]":{"ha":350,"x_min":69,"x_max":267,"o":"m 69 -117 l 69 -26 l 171 -26 l 171 937 l 69 937 l 69 1028 l 267 1028 l 267 -117 l 69 -117 z "},"^":{"ha":583,"x_min":50,"x_max":533,"o":"m 50 389 l 245 959 l 336 959 l 533 389 l 442 389 l 292 833 l 140 389 l 50 389 z "},"_":{"ha":576,"x_min":0,"x_max":578,"o":"m 0 -144 l 0 -75 l 578 -75 l 578 -144 l 0 -144 z "},"`":{"ha":696,"x_min":222,"x_max":452,"o":"m 373 800 l 222 979 l 326 979 l 452 800 l 373 800 z "},"a":{"ha":556,"x_min":56,"x_max":475,"o":"m 239 -11 q 103 45 151 -11 q 56 203 56 100 q 111 355 56 301 q 270 410 167 410 l 381 410 l 381 525 q 270 646 381 646 q 190 617 217 646 q 163 540 163 589 l 163 529 l 73 529 l 73 541 q 126 679 73 628 q 270 730 179 730 q 422 675 370 730 q 475 521 475 621 l 475 0 l 385 0 l 385 66 q 239 -11 336 -11 m 151 205 q 262 71 151 72 q 349 105 316 71 q 381 206 381 140 l 381 339 l 279 339 q 151 205 151 339 z "},"b":{"ha":571,"x_min":81,"x_max":503,"o":"m 313 -11 q 176 65 224 -11 l 176 0 l 81 0 l 81 959 l 176 959 l 176 648 q 312 730 222 727 q 451 669 399 730 q 503 484 503 608 l 503 233 q 450 48 503 107 q 313 -11 397 -11 m 176 243 q 296 73 176 73 q 379 112 350 73 q 408 244 408 151 l 408 473 q 296 644 408 644 q 176 472 176 644 l 176 243 z "},"c":{"ha":567,"x_min":69,"x_max":499,"o":"m 288 -11 q 127 48 184 -11 q 69 233 69 107 l 69 484 q 126 670 69 610 q 286 730 183 730 q 444 673 388 730 q 499 500 499 617 l 499 480 l 404 480 l 404 500 q 288 644 404 644 q 195 606 227 644 q 164 473 164 567 l 164 244 q 196 112 164 151 q 286 73 228 73 q 404 218 404 73 l 404 237 l 499 237 l 499 220 q 443 46 499 103 q 288 -11 387 -11 z "},"d":{"ha":571,"x_min":69,"x_max":490,"o":"m 258 -11 q 122 50 175 -11 q 69 233 69 110 l 69 484 q 121 669 69 608 q 258 730 174 730 q 396 648 350 730 l 396 959 l 490 959 l 490 0 l 396 0 l 396 65 q 258 -11 349 -11 m 164 244 q 193 113 164 153 q 277 73 222 73 q 396 243 396 73 l 396 472 q 277 644 396 644 q 164 473 164 644 l 164 244 z "},"e":{"ha":566,"x_min":69,"x_max":498,"o":"m 286 -11 q 69 244 69 -11 l 69 476 q 125 664 69 598 q 282 730 180 730 q 440 665 382 730 q 498 476 498 601 l 498 331 l 164 331 l 164 245 q 197 110 164 149 q 289 71 231 71 q 403 214 403 71 l 403 220 l 496 220 l 496 216 q 441 47 496 104 q 286 -11 387 -11 m 164 403 l 404 403 l 404 476 q 374 606 404 568 q 283 644 343 644 q 195 605 225 644 q 164 473 164 566 l 164 403 z "},"f":{"ha":399,"x_min":54,"x_max":358,"o":"m 140 0 l 140 644 l 54 644 l 54 718 l 140 718 l 140 770 q 186 910 140 861 q 323 959 232 959 l 358 959 l 358 883 l 331 883 q 257 859 279 883 q 235 784 235 834 l 235 718 l 358 718 l 358 644 l 235 644 l 235 0 l 140 0 z "},"g":{"ha":571,"x_min":69,"x_max":490,"o":"m 279 -225 q 132 -176 183 -225 q 77 -43 80 -126 l 168 -43 q 199 -116 171 -90 q 279 -142 228 -142 q 368 -104 339 -142 q 396 14 396 -66 l 396 119 q 258 45 350 45 q 122 105 175 45 q 69 288 69 165 l 69 486 q 121 668 69 606 q 258 730 174 730 q 396 648 350 730 l 396 718 l 490 718 l 490 22 q 439 -159 490 -92 q 279 -225 388 -225 m 164 298 q 193 168 164 208 q 277 129 222 129 q 396 298 396 129 l 396 473 q 277 644 396 644 q 194 606 224 644 q 164 475 164 567 l 164 298 z "},"h":{"ha":576,"x_min":81,"x_max":496,"o":"m 81 0 l 81 959 l 176 959 l 176 655 q 235 709 198 689 q 315 730 271 730 q 448 675 399 730 q 496 519 496 620 l 496 0 l 401 0 l 401 515 q 371 611 401 578 q 289 644 340 644 q 207 611 237 644 q 176 515 176 578 l 176 0 l 81 0 z "},"i":{"ha":275,"x_min":91,"x_max":186,"o":"m 91 0 l 91 718 l 184 718 l 184 0 l 91 0 m 91 831 l 91 958 l 186 958 l 186 831 l 91 831 z "},"j":{"ha":270,"x_min":-35,"x_max":180,"o":"m -35 -212 l -35 -126 l -14 -126 q 84 -16 84 -126 l 84 718 l 180 718 l 180 -20 q 130 -163 180 -115 q -11 -212 80 -212 l -35 -212 m 84 831 l 84 958 l 180 958 l 180 831 l 84 831 z "},"k":{"ha":567,"x_min":81,"x_max":547,"o":"m 81 0 l 81 959 l 176 959 l 176 345 l 416 718 l 521 718 l 332 442 l 547 0 l 439 0 l 274 355 l 176 213 l 176 0 l 81 0 z "},"l":{"ha":324,"x_min":81,"x_max":297,"o":"m 274 0 q 130 50 179 0 q 81 190 81 99 l 81 959 l 178 959 l 178 194 q 277 84 178 84 l 297 84 l 297 0 l 274 0 z "},"m":{"ha":897,"x_min":81,"x_max":815,"o":"m 81 0 l 81 718 l 175 718 l 175 652 q 231 708 194 686 q 315 730 269 730 q 408 706 366 730 q 471 639 449 682 q 537 705 496 681 q 629 730 578 730 q 768 675 722 730 q 815 519 815 620 l 815 0 l 719 0 l 719 515 q 690 611 719 578 q 610 644 661 644 q 528 610 560 644 q 496 517 496 576 l 496 0 l 401 0 l 401 515 q 371 610 401 576 q 289 644 340 644 q 208 610 239 644 q 178 515 178 576 l 178 0 l 81 0 z "},"n":{"ha":576,"x_min":81,"x_max":496,"o":"m 81 0 l 81 718 l 174 718 l 174 652 q 232 709 194 688 q 315 730 270 730 q 448 675 399 730 q 496 519 496 620 l 496 0 l 401 0 l 401 515 q 371 611 401 578 q 289 644 340 644 q 208 610 239 644 q 176 515 176 576 l 176 0 l 81 0 z "},"o":{"ha":567,"x_min":69,"x_max":499,"o":"m 286 -11 q 126 48 183 -11 q 69 233 69 107 l 69 484 q 126 670 69 610 q 286 730 183 730 q 442 671 385 730 q 499 484 499 612 l 499 233 q 442 49 499 109 q 286 -11 385 -11 m 164 244 q 195 112 164 151 q 285 73 227 73 q 374 113 343 73 q 404 244 404 152 l 404 473 q 374 605 404 566 q 285 644 345 644 q 195 606 227 644 q 164 473 164 567 l 164 244 z "},"p":{"ha":571,"x_min":81,"x_max":503,"o":"m 81 -212 l 81 718 l 176 718 l 176 648 q 312 730 222 727 q 451 669 399 730 q 503 484 503 608 l 503 233 q 450 48 503 107 q 313 -11 397 -11 q 176 64 222 -11 l 176 -212 l 81 -212 m 176 243 q 296 73 176 73 q 379 112 350 73 q 408 244 408 151 l 408 473 q 296 644 408 644 q 176 472 176 644 l 176 243 z "},"q":{"ha":571,"x_min":69,"x_max":490,"o":"m 396 -212 l 396 64 q 258 -11 350 -11 q 122 50 175 -11 q 69 233 69 110 l 69 484 q 121 669 69 608 q 259 730 172 730 q 396 648 350 730 l 396 718 l 490 718 l 490 -212 l 396 -212 m 164 244 q 193 113 164 153 q 277 73 222 73 q 396 243 396 73 l 396 472 q 277 644 396 644 q 164 473 164 644 l 164 244 z "},"r":{"ha":401,"x_min":81,"x_max":374,"o":"m 81 0 l 81 718 l 174 718 l 174 647 q 236 710 197 690 q 324 730 275 730 q 374 724 357 730 l 374 632 q 305 644 336 644 q 212 608 247 644 q 176 510 176 571 l 176 0 l 81 0 z "},"s":{"ha":530,"x_min":56,"x_max":481,"o":"m 266 -11 q 111 45 167 -11 q 56 193 56 100 l 56 201 l 142 201 l 142 193 q 176 103 142 134 q 269 72 210 72 q 356 100 324 72 q 388 187 388 129 q 366 260 388 235 q 290 308 343 286 l 199 346 q 62 533 62 403 q 117 675 62 621 q 270 730 172 730 q 420 675 366 730 q 473 529 473 621 l 473 511 l 387 511 l 387 519 q 357 613 387 579 q 269 647 327 647 q 188 619 218 647 q 157 540 157 591 q 176 475 157 502 q 244 426 195 449 l 335 389 q 445 317 408 359 q 481 194 481 274 q 422 42 481 95 q 266 -11 363 -11 z "},"t":{"ha":410,"x_min":38,"x_max":361,"o":"m 327 0 q 129 189 130 0 l 129 644 l 38 644 l 38 718 l 129 718 l 129 868 l 224 911 l 224 718 l 361 718 l 361 644 l 224 644 l 224 193 q 331 83 224 83 l 350 83 l 350 0 l 327 0 z "},"u":{"ha":576,"x_min":81,"x_max":496,"o":"m 289 -11 q 81 221 81 -11 l 81 718 l 176 718 l 176 285 q 200 122 176 171 q 290 73 224 73 q 359 92 335 73 q 392 157 382 111 q 401 285 401 203 l 401 718 l 496 718 l 496 221 q 289 -11 496 -11 z "},"v":{"ha":514,"x_min":20,"x_max":495,"o":"m 210 0 l 20 718 l 123 718 l 258 151 l 392 718 l 495 718 l 304 0 l 210 0 z "},"w":{"ha":800,"x_min":20,"x_max":780,"o":"m 183 0 l 20 718 l 123 718 l 232 153 l 358 718 l 439 718 l 568 153 l 677 718 l 780 718 l 616 0 l 525 0 l 399 543 l 275 0 l 183 0 z "},"x":{"ha":484,"x_min":20,"x_max":464,"o":"m 20 0 l 191 373 l 34 718 l 134 718 l 244 480 l 349 718 l 450 718 l 290 380 l 464 0 l 362 0 l 240 267 l 121 0 l 20 0 z "},"y":{"ha":514,"x_min":20,"x_max":495,"o":"m 62 -214 l 62 -129 l 85 -129 q 169 -109 140 -129 q 210 -39 198 -90 l 216 -16 l 20 718 l 123 718 l 259 170 l 392 718 l 495 718 l 285 -68 q 214 -181 264 -148 q 76 -214 163 -214 l 62 -214 z "},"z":{"ha":522,"x_min":69,"x_max":453,"o":"m 69 0 l 69 85 l 351 632 l 69 632 l 69 718 l 453 718 l 453 632 l 171 85 l 453 85 l 453 0 l 69 0 z "},"{":{"ha":426,"x_min":69,"x_max":357,"o":"m 302 -117 q 161 41 161 -117 l 161 309 q 141 389 161 365 q 69 415 121 414 l 69 503 q 141 530 121 506 q 161 612 161 553 l 161 871 q 302 1028 161 1028 l 357 1028 l 357 937 l 323 937 q 262 869 262 937 l 262 633 q 245 515 262 551 q 182 460 228 479 q 245 403 229 439 q 262 285 262 366 l 262 42 q 323 -26 262 -26 l 357 -26 l 357 -117 l 302 -117 z "},"|":{"ha":369,"x_min":138,"x_max":231,"o":"m 138 -115 l 138 1028 l 231 1028 l 231 -115 l 138 -115 z "},"}":{"ha":426,"x_min":69,"x_max":357,"o":"m 69 -117 l 69 -26 l 103 -26 q 164 42 164 -26 l 164 285 q 180 402 164 365 q 244 460 195 439 q 180 515 197 479 q 164 633 164 551 l 164 869 q 103 937 164 937 l 69 937 l 69 1028 l 123 1028 q 266 871 266 1028 l 266 612 q 286 530 266 553 q 357 503 305 506 l 357 415 q 286 389 305 414 q 266 309 266 363 l 266 41 q 123 -117 266 -117 l 69 -117 z "},"~":{"ha":583,"x_min":42,"x_max":541,"o":"m 117 296 l 42 342 q 198 467 103 467 q 252 457 228 467 q 307 425 275 448 q 347 402 332 410 q 380 395 362 395 q 425 410 407 395 q 467 471 442 425 l 541 425 q 473 329 511 358 q 385 300 435 300 q 332 311 355 300 q 277 340 308 323 q 205 370 228 372 q 159 355 179 370 q 117 296 140 339 z "}," ":{"ha":243,"x_min":0,"x_max":0,"o":""},"¡":{"ha":282,"x_min":84,"x_max":213,"o":"m 84 -212 l 109 452 l 187 452 l 213 -212 l 84 -212 m 94 583 l 94 718 l 201 718 l 201 583 l 94 583 z "},"¢":{"ha":567,"x_min":69,"x_max":499,"o":"m 252 -138 l 252 -9 q 117 59 165 0 q 69 233 69 118 l 69 484 q 117 659 69 600 q 252 728 165 719 l 252 850 l 327 850 l 327 727 q 454 661 410 718 q 499 500 499 605 l 499 480 l 404 480 l 404 500 q 288 644 404 644 q 195 606 227 644 q 164 473 164 567 l 164 244 q 196 112 164 151 q 286 73 228 73 q 404 218 404 73 l 404 237 l 499 237 l 499 220 q 454 59 499 115 q 327 -8 408 3 l 327 -138 l 252 -138 z "},"£":{"ha":532,"x_min":37,"x_max":496,"o":"m 60 0 l 60 95 q 107 142 94 110 q 121 228 121 174 l 121 420 l 37 420 l 37 511 l 121 511 l 121 754 q 167 915 121 857 q 304 972 213 972 q 439 917 393 972 q 484 757 484 861 l 388 757 q 368 852 388 822 q 307 882 349 882 q 224 776 224 882 l 224 511 l 387 511 l 387 420 l 224 420 l 224 227 q 211 147 224 179 q 171 92 198 115 l 496 92 l 496 0 l 60 0 z "},"¤":{"ha":811,"x_min":80,"x_max":730,"o":"m 151 130 l 80 202 l 176 296 q 129 454 129 363 q 178 612 129 547 l 83 707 l 153 776 l 245 682 q 406 731 317 731 q 564 682 494 731 l 658 776 l 728 707 l 633 613 q 682 454 682 543 q 635 296 682 363 l 730 201 l 659 130 l 566 225 q 406 176 492 176 q 245 225 317 176 l 151 130 m 406 273 q 496 296 456 273 q 559 361 536 320 q 583 454 583 403 q 532 583 583 532 q 406 635 481 635 q 278 583 328 635 q 228 454 228 532 q 278 324 228 376 q 406 273 328 273 z "},"¥":{"ha":540,"x_min":11,"x_max":529,"o":"m 220 0 l 220 205 l 52 205 l 52 286 l 220 286 l 220 380 l 52 380 l 52 463 l 198 463 l 11 959 l 126 959 l 273 521 l 416 959 l 529 959 l 342 463 l 488 463 l 488 380 l 321 380 l 321 286 l 488 286 l 488 205 l 321 205 l 321 0 l 220 0 z "},"¦":{"ha":369,"x_min":138,"x_max":231,"o":"m 138 -115 l 138 377 l 231 377 l 231 -115 l 138 -115 m 138 538 l 138 1028 l 231 1028 l 231 538 l 138 538 z "},"§":{"ha":594,"x_min":83,"x_max":511,"o":"m 294 -233 q 146 -177 190 -233 q 102 -8 102 -121 l 197 -8 q 219 -113 197 -81 q 296 -144 241 -144 q 393 -27 393 -144 q 381 50 393 22 q 337 97 369 79 q 245 132 305 115 q 119 218 156 156 q 83 382 83 279 q 206 601 83 559 q 130 671 152 624 q 107 788 107 718 q 155 939 107 884 q 300 993 203 993 q 446 935 403 993 q 488 769 488 876 l 393 769 q 374 869 393 836 q 301 903 355 903 q 229 873 250 903 q 209 788 209 844 q 240 689 209 720 q 351 635 271 658 q 476 552 441 613 q 511 382 511 491 q 392 167 511 208 q 473 96 450 145 q 495 -24 495 46 q 445 -178 495 -123 q 294 -233 395 -233 m 298 221 q 385 262 358 221 q 411 382 411 304 q 385 505 411 464 q 298 545 359 545 q 209 503 235 545 q 183 382 183 461 q 210 262 183 302 q 298 221 236 221 z "},"¨":{"ha":696,"x_min":190,"x_max":506,"o":"m 190 804 l 190 924 l 294 924 l 294 804 l 190 804 m 401 804 l 401 924 l 506 924 l 506 804 l 401 804 z "},"©":{"ha":1035,"x_min":72,"x_max":964,"o":"m 518 -14 q 279 47 378 -14 q 125 216 179 107 q 72 472 72 326 q 126 729 72 620 q 280 899 180 838 q 518 959 380 959 q 760 899 661 959 q 912 728 860 838 q 964 472 964 618 q 909 213 964 321 q 755 45 854 104 q 518 -14 655 -14 m 518 54 q 792 164 696 54 q 888 472 888 274 q 793 780 888 670 q 518 890 697 890 q 244 780 339 890 q 149 472 149 670 q 245 165 149 275 q 518 54 342 54 m 521 201 q 358 385 358 203 l 358 566 q 521 747 358 747 q 639 705 597 747 q 681 576 681 662 l 681 562 l 606 562 l 606 575 q 522 682 606 682 q 454 654 477 682 q 431 557 431 625 l 431 393 q 455 296 431 326 q 522 267 479 267 q 606 373 606 267 l 606 389 l 681 389 l 681 373 q 639 244 681 288 q 521 201 597 201 z "},"ª":{"ha":408,"x_min":50,"x_max":343,"o":"m 170 590 q 81 625 111 590 q 50 726 50 661 q 88 818 50 784 q 194 852 126 852 l 252 852 l 252 905 q 198 962 252 962 q 160 948 174 962 q 146 911 146 935 l 146 905 l 62 905 l 62 909 q 99 1005 62 971 q 199 1039 136 1039 q 306 1002 269 1039 q 343 898 343 966 l 343 597 l 256 597 l 256 636 q 218 602 237 613 q 170 590 198 590 m 140 728 q 193 670 140 670 q 236 686 220 670 q 252 735 252 703 l 252 788 l 208 788 q 140 728 140 788 z "},"«":{"ha":586,"x_min":27,"x_max":505,"o":"m 277 113 l 27 366 l 277 621 l 277 515 l 132 366 l 277 218 l 277 113 m 505 113 l 256 366 l 505 621 l 505 515 l 361 366 l 505 218 l 505 113 z "},"¬":{"ha":583,"x_min":58,"x_max":526,"o":"m 431 216 l 431 366 l 58 366 l 58 452 l 526 452 l 526 216 l 431 216 z "},"®":{"ha":655,"x_min":83,"x_max":572,"o":"m 328 426 q 150 498 217 426 q 83 693 83 570 q 150 886 83 814 q 328 958 217 958 q 507 886 442 958 q 572 693 572 814 q 505 498 572 570 q 328 426 438 426 m 132 693 q 183 529 132 587 q 328 471 235 471 q 472 530 420 471 q 524 693 524 590 q 471 855 524 798 q 328 913 419 913 q 183 854 235 913 q 132 693 132 795 m 248 547 l 248 842 l 335 842 q 420 755 420 842 q 381 680 420 703 l 429 547 l 374 547 l 332 669 l 298 669 l 298 547 l 248 547 m 298 713 l 331 713 q 370 757 370 713 q 361 789 370 780 q 331 798 353 798 l 298 798 l 298 713 z "},"¯":{"ha":696,"x_min":187,"x_max":509,"o":"m 187 821 l 187 906 l 509 906 l 509 821 l 187 821 z "},"°":{"ha":488,"x_min":72,"x_max":416,"o":"m 244 629 q 121 679 170 629 q 72 800 72 728 q 121 922 72 872 q 244 972 170 972 q 367 923 317 972 q 416 800 416 873 q 366 677 416 726 q 244 629 316 629 m 146 800 q 174 727 146 755 q 244 699 202 699 q 315 726 286 699 q 343 800 343 754 q 315 874 343 845 q 244 903 288 903 q 174 873 201 903 q 146 800 146 844 z "},"±":{"ha":583,"x_min":56,"x_max":529,"o":"m 247 203 l 247 393 l 56 393 l 56 484 l 247 484 l 247 675 l 338 675 l 338 484 l 529 484 l 529 393 l 338 393 l 338 203 l 247 203 m 56 34 l 56 125 l 529 125 l 529 34 l 56 34 z "},"²":{"ha":347,"x_min":26,"x_max":323,"o":"m 26 578 l 26 644 l 198 928 q 225 1017 227 975 l 225 1040 q 172 1100 225 1100 q 122 1042 123 1100 l 122 993 l 26 993 l 26 1047 q 66 1148 26 1111 q 175 1185 107 1185 q 283 1147 244 1185 q 323 1048 323 1109 l 323 1017 q 279 884 323 952 l 145 662 l 320 662 l 320 578 l 26 578 z "},"³":{"ha":358,"x_min":26,"x_max":330,"o":"m 178 570 q 66 606 106 570 q 26 705 26 642 l 26 757 l 122 757 l 122 709 q 178 654 122 654 q 233 715 233 654 l 233 779 q 174 846 233 846 l 132 846 l 132 930 l 174 930 q 217 946 205 930 q 231 996 229 962 l 231 1040 q 178 1100 231 1100 q 125 1044 125 1100 l 125 997 l 27 997 l 27 1046 q 67 1147 27 1111 q 178 1185 107 1184 q 287 1149 248 1185 q 327 1046 326 1112 l 327 998 q 279 891 327 924 q 330 777 330 859 l 330 718 q 290 609 330 648 q 178 570 251 570 z "},"´":{"ha":696,"x_min":244,"x_max":473,"o":"m 244 800 l 370 979 l 473 979 l 323 800 l 244 800 z "},"µ":{"ha":572,"x_min":81,"x_max":491,"o":"m 81 -214 l 81 718 l 175 718 l 175 199 q 205 104 175 137 q 286 72 236 72 q 366 106 335 72 q 397 199 397 141 l 397 718 l 491 718 l 491 0 l 401 0 l 401 65 q 346 8 381 27 q 270 -11 311 -11 q 176 24 212 -11 l 176 -214 l 81 -214 z "},"¶":{"ha":722,"x_min":83,"x_max":597,"o":"m 313 -212 l 313 373 q 193 419 245 380 q 112 523 141 458 q 83 667 83 587 q 117 813 83 747 q 213 919 151 879 q 358 959 275 959 l 597 959 l 597 -212 l 506 -212 l 506 868 l 406 868 l 406 -212 l 313 -212 z "},"·":{"ha":221,"x_min":57,"x_max":165,"o":"m 57 313 l 57 437 l 165 437 l 165 313 l 57 313 z "},"¸":{"ha":530,"x_min":203,"x_max":391,"o":"m 203 -212 l 300 16 l 391 16 l 309 -212 l 203 -212 z "},"¹":{"ha":243,"x_min":18,"x_max":201,"o":"m 109 578 l 109 1061 l 18 994 l 18 1104 l 119 1177 l 201 1177 l 201 578 l 109 578 z "},"º":{"ha":410,"x_min":57,"x_max":353,"o":"m 206 590 q 57 757 57 590 l 57 873 q 95 1000 57 962 q 206 1039 133 1039 q 315 1000 277 1039 q 353 873 353 962 l 353 757 q 315 629 353 669 q 206 590 277 590 m 148 755 q 206 673 148 673 q 263 755 263 673 l 263 875 q 206 959 263 958 q 148 875 148 959 l 148 755 z "},"»":{"ha":586,"x_min":81,"x_max":559,"o":"m 81 113 l 81 218 l 227 366 l 81 515 l 81 621 l 331 366 l 81 113 m 311 113 l 311 218 l 456 366 l 311 515 l 311 621 l 559 366 l 311 113 z "},"¼":{"ha":882,"x_min":27,"x_max":856,"o":"m 118 361 l 118 844 l 27 777 l 27 887 l 129 960 l 210 960 l 210 361 l 118 361 m 203 0 l 570 959 l 652 959 l 288 0 l 203 0 m 704 -15 l 704 99 l 518 99 l 518 171 l 650 585 l 750 585 l 620 183 l 704 183 l 704 332 l 802 332 l 802 183 l 856 183 l 856 99 l 802 99 l 802 -15 l 704 -15 z "},"½":{"ha":894,"x_min":27,"x_max":854,"o":"m 118 361 l 118 844 l 27 777 l 27 887 l 129 960 l 210 960 l 210 361 l 118 361 m 190 0 l 556 959 l 639 959 l 274 0 l 190 0 m 557 0 l 557 66 l 730 350 q 757 439 758 397 l 757 463 q 704 522 757 522 q 654 464 655 522 l 654 415 l 557 415 l 557 469 q 598 570 557 533 q 707 608 639 608 q 815 570 776 608 q 854 471 854 532 l 854 439 q 811 307 854 374 l 677 84 l 852 84 l 852 0 l 557 0 z "},"¾":{"ha":918,"x_min":30,"x_max":897,"o":"m 182 357 q 70 393 110 357 q 30 492 30 429 l 30 544 l 126 544 l 126 496 q 182 441 126 441 q 237 502 237 441 l 237 566 q 178 633 237 633 l 136 633 l 136 718 l 178 718 q 221 733 209 718 q 235 783 233 749 l 235 827 q 182 887 235 887 q 129 831 129 887 l 129 784 l 31 784 l 31 833 q 71 935 31 898 q 182 972 111 971 q 291 936 252 972 q 331 833 330 899 l 331 785 q 283 678 331 711 q 334 564 334 646 l 334 505 q 294 396 334 435 q 182 357 255 357 m 247 0 l 613 959 l 696 959 l 331 0 l 247 0 m 745 -15 l 745 99 l 559 99 l 559 171 l 690 585 l 791 585 l 661 183 l 745 183 l 745 332 l 842 332 l 842 183 l 897 183 l 897 99 l 842 99 l 842 -15 l 745 -15 z "},"¿":{"ha":503,"x_min":52,"x_max":463,"o":"m 256 -228 q 104 -168 157 -228 q 52 -1 52 -109 q 57 62 52 34 q 78 123 62 91 q 121 203 94 156 l 168 282 q 199 347 191 323 q 206 412 206 372 l 206 461 l 307 461 l 307 407 q 303 351 307 374 q 289 303 300 328 q 255 241 278 278 l 199 151 q 163 75 172 107 q 153 -1 153 42 q 255 -137 153 -137 q 337 -98 313 -137 q 361 34 361 -60 l 463 34 q 256 -228 461 -228 m 201 583 l 201 718 l 309 718 l 309 583 l 201 583 z "},"À":{"ha":640,"x_min":12,"x_max":628,"o":"m 12 0 l 274 959 l 366 959 l 628 0 l 521 0 l 460 244 l 179 244 l 118 0 l 12 0 m 201 332 l 438 332 l 320 806 l 201 332 m 319 1040 l 167 1219 l 270 1219 l 396 1040 l 319 1040 z "},"Á":{"ha":640,"x_min":12,"x_max":628,"o":"m 12 0 l 274 959 l 366 959 l 628 0 l 521 0 l 460 244 l 179 244 l 118 0 l 12 0 m 201 332 l 438 332 l 320 806 l 201 332 m 232 1040 l 359 1219 l 461 1219 l 311 1040 l 232 1040 z "},"Â":{"ha":640,"x_min":12,"x_max":628,"o":"m 12 0 l 274 959 l 366 959 l 628 0 l 521 0 l 460 244 l 179 244 l 118 0 l 12 0 m 201 332 l 438 332 l 320 806 l 201 332 m 141 1029 l 275 1227 l 365 1227 l 503 1029 l 411 1029 l 323 1154 l 233 1029 l 141 1029 z "},"Ã":{"ha":640,"x_min":12,"x_max":628,"o":"m 12 0 l 274 959 l 366 959 l 628 0 l 521 0 l 460 244 l 179 244 l 118 0 l 12 0 m 201 332 l 438 332 l 320 806 l 201 332 m 171 1031 l 171 1130 q 214 1167 195 1157 q 258 1177 232 1177 q 294 1171 278 1177 q 327 1153 309 1165 q 361 1134 346 1141 q 393 1127 376 1127 q 429 1138 414 1127 q 471 1179 445 1149 l 471 1082 q 431 1046 449 1057 q 385 1035 412 1035 q 348 1042 363 1035 q 309 1061 332 1048 q 279 1078 290 1072 q 254 1084 267 1084 q 214 1072 231 1084 q 171 1031 197 1061 z "},"Ä":{"ha":640,"x_min":12,"x_max":628,"o":"m 12 0 l 274 959 l 366 959 l 628 0 l 521 0 l 460 244 l 179 244 l 118 0 l 12 0 m 201 332 l 438 332 l 320 806 l 201 332 m 163 1044 l 163 1164 l 267 1164 l 267 1044 l 163 1044 m 374 1044 l 374 1164 l 479 1164 l 479 1044 l 374 1044 z "},"Å":{"ha":640,"x_min":12,"x_max":628,"o":"m 12 0 l 274 959 l 366 959 l 628 0 l 521 0 l 460 244 l 179 244 l 118 0 l 12 0 m 201 332 l 438 332 l 320 806 l 201 332 m 320 949 q 233 985 269 949 q 198 1073 198 1021 q 232 1161 198 1124 q 320 1198 266 1198 q 410 1161 376 1198 q 445 1073 445 1124 q 410 985 445 1020 q 320 949 376 949 m 254 1073 q 273 1023 254 1043 q 320 1004 292 1004 q 369 1023 350 1004 q 388 1073 388 1042 q 370 1124 388 1104 q 320 1145 351 1145 q 272 1124 290 1145 q 254 1073 254 1104 z "},"Æ":{"ha":955,"x_min":12,"x_max":906,"o":"m 12 0 l 430 959 l 906 959 l 906 868 l 591 868 l 591 533 l 860 533 l 860 442 l 591 442 l 591 91 l 906 91 l 906 0 l 491 0 l 491 239 l 221 239 l 118 0 l 12 0 m 258 328 l 491 328 l 491 871 l 258 328 z "},"Ç":{"ha":663,"x_min":72,"x_max":591,"o":"m 335 -11 q 144 62 217 -11 q 72 279 72 136 l 72 680 q 143 898 72 825 q 334 971 214 971 q 520 901 449 971 q 591 692 591 831 l 591 680 l 490 680 l 490 689 q 448 833 490 788 q 335 879 407 879 q 215 829 256 879 q 174 670 174 779 l 174 278 q 335 80 174 83 q 448 125 406 80 q 490 267 490 171 l 490 279 l 589 279 l 589 266 q 518 58 589 127 q 335 -11 448 -11 m 221 -212 l 317 16 l 408 16 l 327 -212 l 221 -212 z "},"È":{"ha":559,"x_min":83,"x_max":510,"o":"m 83 0 l 83 959 l 510 959 l 510 868 l 183 868 l 183 533 l 464 533 l 464 442 l 183 442 l 183 91 l 510 91 l 510 0 l 83 0 m 293 1040 l 141 1219 l 244 1219 l 370 1040 l 293 1040 z "},"É":{"ha":559,"x_min":83,"x_max":510,"o":"m 83 0 l 83 959 l 510 959 l 510 868 l 183 868 l 183 533 l 464 533 l 464 442 l 183 442 l 183 91 l 510 91 l 510 0 l 83 0 m 206 1040 l 334 1219 l 435 1219 l 285 1040 l 206 1040 z "},"Ê":{"ha":559,"x_min":83,"x_max":510,"o":"m 83 0 l 83 959 l 510 959 l 510 868 l 183 868 l 183 533 l 464 533 l 464 442 l 183 442 l 183 91 l 510 91 l 510 0 l 83 0 m 115 1029 l 250 1227 l 339 1227 l 477 1029 l 385 1029 l 297 1154 l 208 1029 l 115 1029 z "},"Ë":{"ha":559,"x_min":83,"x_max":510,"o":"m 83 0 l 83 959 l 510 959 l 510 868 l 183 868 l 183 533 l 464 533 l 464 442 l 183 442 l 183 91 l 510 91 l 510 0 l 83 0 m 137 1044 l 137 1164 l 241 1164 l 241 1044 l 137 1044 m 349 1044 l 349 1164 l 453 1164 l 453 1044 l 349 1044 z "},"Ì":{"ha":282,"x_min":-14,"x_max":216,"o":"m 92 0 l 92 959 l 191 959 l 191 0 l 92 0 m 138 1040 l -14 1219 l 90 1219 l 216 1040 l 138 1040 z "},"Í":{"ha":282,"x_min":52,"x_max":281,"o":"m 92 0 l 92 959 l 191 959 l 191 0 l 92 0 m 52 1040 l 179 1219 l 281 1219 l 130 1040 l 52 1040 z "},"Î":{"ha":282,"x_min":-39,"x_max":323,"o":"m 92 0 l 92 959 l 191 959 l 191 0 l 92 0 m -39 1029 l 95 1227 l 184 1227 l 323 1029 l 231 1029 l 142 1154 l 53 1029 l -39 1029 z "},"Ï":{"ha":282,"x_min":-18,"x_max":298,"o":"m 92 0 l 92 959 l 191 959 l 191 0 l 92 0 m -18 1044 l -18 1164 l 87 1164 l 87 1044 l -18 1044 m 194 1044 l 194 1164 l 298 1164 l 298 1044 l 194 1044 z "},"Ð":{"ha":701,"x_min":42,"x_max":629,"o":"m 122 0 l 122 442 l 42 442 l 42 532 l 122 532 l 122 959 l 370 959 q 558 886 487 959 q 629 669 629 812 l 629 290 q 558 73 629 146 q 370 0 487 0 l 122 0 m 224 91 l 370 91 q 486 139 444 91 q 528 289 528 187 l 528 658 q 370 868 528 868 l 224 868 l 224 532 l 372 532 l 372 442 l 224 442 l 224 91 z "},"Ñ":{"ha":697,"x_min":83,"x_max":614,"o":"m 83 0 l 83 959 l 184 959 l 513 221 l 513 959 l 614 959 l 614 0 l 513 0 l 184 736 l 184 0 l 83 0 m 199 1031 l 199 1130 q 242 1167 224 1157 q 286 1177 260 1177 q 322 1171 307 1177 q 355 1153 338 1165 q 389 1134 374 1141 q 422 1127 404 1127 q 458 1138 442 1127 q 499 1179 473 1149 l 499 1082 q 459 1046 477 1057 q 414 1035 441 1035 q 376 1042 392 1035 q 338 1061 361 1048 q 307 1078 319 1072 q 282 1084 296 1084 q 242 1072 259 1084 q 199 1031 225 1061 z "},"Ò":{"ha":663,"x_min":72,"x_max":591,"o":"m 332 -11 q 144 62 216 -11 q 72 279 72 134 l 72 680 q 143 900 72 829 q 332 971 214 971 q 522 898 452 971 q 591 680 591 825 l 591 279 q 520 62 591 136 q 332 -11 449 -11 m 174 278 q 334 80 174 81 q 449 129 408 80 q 490 278 490 178 l 490 670 q 449 828 490 777 q 334 879 408 879 q 174 670 174 879 l 174 278 m 330 1040 l 178 1219 l 281 1219 l 407 1040 l 330 1040 z "},"Ó":{"ha":663,"x_min":72,"x_max":591,"o":"m 332 -11 q 144 62 216 -11 q 72 279 72 134 l 72 680 q 143 900 72 829 q 332 971 214 971 q 522 898 452 971 q 591 680 591 825 l 591 279 q 520 62 591 136 q 332 -11 449 -11 m 174 278 q 334 80 174 81 q 449 129 408 80 q 490 278 490 178 l 490 670 q 449 828 490 777 q 334 879 408 879 q 174 670 174 879 l 174 278 m 243 1040 l 370 1219 l 472 1219 l 321 1040 l 243 1040 z "},"Ô":{"ha":663,"x_min":72,"x_max":591,"o":"m 332 -11 q 144 62 216 -11 q 72 279 72 134 l 72 680 q 143 900 72 829 q 332 971 214 971 q 522 898 452 971 q 591 680 591 825 l 591 279 q 520 62 591 136 q 332 -11 449 -11 m 174 278 q 334 80 174 81 q 449 129 408 80 q 490 278 490 178 l 490 670 q 449 828 490 777 q 334 879 408 879 q 174 670 174 879 l 174 278 m 152 1029 l 286 1227 l 376 1227 l 514 1029 l 422 1029 l 334 1154 l 244 1029 l 152 1029 z "},"Õ":{"ha":663,"x_min":72,"x_max":591,"o":"m 332 -11 q 144 62 216 -11 q 72 279 72 134 l 72 680 q 143 900 72 829 q 332 971 214 971 q 522 898 452 971 q 591 680 591 825 l 591 279 q 520 62 591 136 q 332 -11 449 -11 m 174 278 q 334 80 174 81 q 449 129 408 80 q 490 278 490 178 l 490 670 q 449 828 490 777 q 334 879 408 879 q 174 670 174 879 l 174 278 m 182 1031 l 182 1130 q 224 1167 206 1157 q 269 1177 243 1177 q 304 1171 289 1177 q 338 1153 320 1165 q 372 1134 357 1141 q 404 1127 387 1127 q 440 1138 425 1127 q 481 1179 456 1149 l 481 1082 q 441 1046 460 1057 q 396 1035 423 1035 q 359 1042 374 1035 q 320 1061 343 1048 q 290 1078 301 1072 q 264 1084 278 1084 q 224 1072 241 1084 q 182 1031 208 1061 z "},"Ö":{"ha":663,"x_min":72,"x_max":591,"o":"m 332 -11 q 144 62 216 -11 q 72 279 72 134 l 72 680 q 143 900 72 829 q 332 971 214 971 q 522 898 452 971 q 591 680 591 825 l 591 279 q 520 62 591 136 q 332 -11 449 -11 m 174 278 q 334 80 174 81 q 449 129 408 80 q 490 278 490 178 l 490 670 q 449 828 490 777 q 334 879 408 879 q 174 670 174 879 l 174 278 m 174 1044 l 174 1164 l 278 1164 l 278 1044 l 174 1044 m 385 1044 l 385 1164 l 490 1164 l 490 1044 l 385 1044 z "},"×":{"ha":583,"x_min":88,"x_max":496,"o":"m 149 179 l 88 239 l 232 384 l 88 528 l 149 587 l 293 445 l 437 587 l 496 528 l 353 384 l 496 239 l 437 179 l 293 324 l 149 179 z "},"Ø":{"ha":663,"x_min":72,"x_max":594,"o":"m 73 -27 l 123 87 q 85 170 99 122 q 72 279 72 218 l 72 680 q 143 900 72 829 q 332 971 214 971 q 494 924 430 971 l 521 986 l 594 986 l 543 871 q 591 680 591 798 l 591 279 q 520 62 591 136 q 332 -11 449 -11 q 175 34 239 -11 l 148 -27 l 73 -27 m 174 278 q 179 212 174 241 l 450 826 q 334 879 411 879 q 174 670 174 879 l 174 278 m 484 738 l 216 127 q 334 80 255 81 q 449 129 408 80 q 490 278 490 178 l 490 670 q 484 738 490 707 z "},"Ù":{"ha":666,"x_min":83,"x_max":583,"o":"m 334 -11 q 206 21 263 -11 q 116 111 149 53 q 83 244 83 168 l 83 959 l 184 959 l 184 250 q 224 124 184 168 q 334 80 264 80 q 442 125 403 80 q 481 250 481 171 l 481 959 l 583 959 l 583 244 q 514 58 583 127 q 334 -11 445 -11 m 331 1040 l 179 1219 l 282 1219 l 408 1040 l 331 1040 z "},"Ú":{"ha":666,"x_min":83,"x_max":583,"o":"m 334 -11 q 206 21 263 -11 q 116 111 149 53 q 83 244 83 168 l 83 959 l 184 959 l 184 250 q 224 124 184 168 q 334 80 264 80 q 442 125 403 80 q 481 250 481 171 l 481 959 l 583 959 l 583 244 q 514 58 583 127 q 334 -11 445 -11 m 244 1040 l 372 1219 l 473 1219 l 323 1040 l 244 1040 z "},"Û":{"ha":666,"x_min":83,"x_max":583,"o":"m 334 -11 q 206 21 263 -11 q 116 111 149 53 q 83 244 83 168 l 83 959 l 184 959 l 184 250 q 224 124 184 168 q 334 80 264 80 q 442 125 403 80 q 481 250 481 171 l 481 959 l 583 959 l 583 244 q 514 58 583 127 q 334 -11 445 -11 m 153 1029 l 288 1227 l 377 1227 l 515 1029 l 423 1029 l 335 1154 l 245 1029 l 153 1029 z "},"Ü":{"ha":666,"x_min":83,"x_max":583,"o":"m 334 -11 q 206 21 263 -11 q 116 111 149 53 q 83 244 83 168 l 83 959 l 184 959 l 184 250 q 224 124 184 168 q 334 80 264 80 q 442 125 403 80 q 481 250 481 171 l 481 959 l 583 959 l 583 244 q 514 58 583 127 q 334 -11 445 -11 m 175 1044 l 175 1164 l 279 1164 l 279 1044 l 175 1044 m 387 1044 l 387 1164 l 491 1164 l 491 1044 l 387 1044 z "},"Ý":{"ha":544,"x_min":12,"x_max":532,"o":"m 222 0 l 222 399 l 12 959 l 123 959 l 273 519 l 420 959 l 532 959 l 323 399 l 323 0 l 222 0 m 189 1040 l 316 1219 l 418 1219 l 267 1040 l 189 1040 z "},"Þ":{"ha":610,"x_min":83,"x_max":574,"o":"m 83 0 l 83 959 l 183 959 l 183 784 l 327 784 q 515 713 456 784 q 574 505 574 643 q 327 231 574 231 l 183 231 l 183 0 l 83 0 m 183 320 l 321 320 q 435 363 399 320 q 472 505 472 407 q 435 649 472 605 q 321 693 399 693 l 183 693 l 183 320 z "},"ß":{"ha":572,"x_min":81,"x_max":505,"o":"m 292 -5 l 292 80 l 317 80 q 378 94 358 80 q 403 157 397 109 q 408 305 408 205 q 403 436 408 389 q 378 503 397 483 q 316 522 359 522 l 288 522 l 288 606 l 316 606 q 385 642 368 606 q 401 750 401 677 q 374 853 401 822 q 292 884 347 884 q 178 757 178 884 l 178 0 l 81 0 l 81 726 q 131 908 81 845 q 293 971 180 971 q 442 914 387 971 q 498 757 498 857 q 479 640 498 678 q 414 574 461 601 q 475 524 456 553 q 499 444 494 495 q 505 305 505 392 q 492 115 505 183 q 441 21 479 47 q 330 -5 404 -5 l 292 -5 z "},"à":{"ha":556,"x_min":56,"x_max":475,"o":"m 239 -11 q 103 45 151 -11 q 56 203 56 100 q 111 355 56 301 q 270 410 167 410 l 381 410 l 381 525 q 270 646 381 646 q 190 617 217 646 q 163 540 163 589 l 163 529 l 73 529 l 73 541 q 126 679 73 628 q 270 730 179 730 q 422 675 370 730 q 475 521 475 621 l 475 0 l 385 0 l 385 66 q 239 -11 336 -11 m 151 205 q 262 71 151 72 q 349 105 316 71 q 381 206 381 140 l 381 339 l 279 339 q 151 205 151 339 m 277 800 l 125 979 l 228 979 l 354 800 l 277 800 z "},"á":{"ha":556,"x_min":56,"x_max":475,"o":"m 239 -11 q 103 45 151 -11 q 56 203 56 100 q 111 355 56 301 q 270 410 167 410 l 381 410 l 381 525 q 270 646 381 646 q 190 617 217 646 q 163 540 163 589 l 163 529 l 73 529 l 73 541 q 126 679 73 628 q 270 730 179 730 q 422 675 370 730 q 475 521 475 621 l 475 0 l 385 0 l 385 66 q 239 -11 336 -11 m 151 205 q 262 71 151 72 q 349 105 316 71 q 381 206 381 140 l 381 339 l 279 339 q 151 205 151 339 m 190 800 l 317 979 l 419 979 l 269 800 l 190 800 z "},"â":{"ha":556,"x_min":56,"x_max":475,"o":"m 239 -11 q 103 45 151 -11 q 56 203 56 100 q 111 355 56 301 q 270 410 167 410 l 381 410 l 381 525 q 270 646 381 646 q 190 617 217 646 q 163 540 163 589 l 163 529 l 73 529 l 73 541 q 126 679 73 628 q 270 730 179 730 q 422 675 370 730 q 475 521 475 621 l 475 0 l 385 0 l 385 66 q 239 -11 336 -11 m 151 205 q 262 71 151 72 q 349 105 316 71 q 381 206 381 140 l 381 339 l 279 339 q 151 205 151 339 m 99 789 l 233 987 l 323 987 l 461 789 l 369 789 l 281 914 l 191 789 l 99 789 z "},"ã":{"ha":556,"x_min":56,"x_max":475,"o":"m 239 -11 q 103 45 151 -11 q 56 203 56 100 q 111 355 56 301 q 270 410 167 410 l 381 410 l 381 525 q 270 646 381 646 q 190 617 217 646 q 163 540 163 589 l 163 529 l 73 529 l 73 541 q 126 679 73 628 q 270 730 179 730 q 422 675 370 730 q 475 521 475 621 l 475 0 l 385 0 l 385 66 q 239 -11 336 -11 m 151 205 q 262 71 151 72 q 349 105 316 71 q 381 206 381 140 l 381 339 l 279 339 q 151 205 151 339 m 129 791 l 129 890 q 172 927 153 917 q 216 937 190 937 q 252 931 236 937 q 285 913 267 925 q 319 894 304 901 q 351 887 334 887 q 387 898 372 887 q 429 939 403 909 l 429 842 q 389 806 407 817 q 343 795 370 795 q 306 802 321 795 q 267 821 290 808 q 237 838 248 831 q 212 844 225 844 q 172 832 189 844 q 129 791 155 821 z "},"ä":{"ha":556,"x_min":56,"x_max":475,"o":"m 239 -11 q 103 45 151 -11 q 56 203 56 100 q 111 355 56 301 q 270 410 167 410 l 381 410 l 381 525 q 270 646 381 646 q 190 617 217 646 q 163 540 163 589 l 163 529 l 73 529 l 73 541 q 126 679 73 628 q 270 730 179 730 q 422 675 370 730 q 475 521 475 621 l 475 0 l 385 0 l 385 66 q 239 -11 336 -11 m 151 205 q 262 71 151 72 q 349 105 316 71 q 381 206 381 140 l 381 339 l 279 339 q 151 205 151 339 m 121 804 l 121 924 l 225 924 l 225 804 l 121 804 m 332 804 l 332 924 l 437 924 l 437 804 l 332 804 z "},"å":{"ha":556,"x_min":56,"x_max":475,"o":"m 239 -11 q 103 45 151 -11 q 56 203 56 100 q 111 355 56 301 q 270 410 167 410 l 381 410 l 381 525 q 270 646 381 646 q 190 617 217 646 q 163 540 163 589 l 163 529 l 73 529 l 73 541 q 126 679 73 628 q 270 730 179 730 q 422 675 370 730 q 475 521 475 621 l 475 0 l 385 0 l 385 66 q 239 -11 336 -11 m 151 205 q 262 71 151 72 q 349 105 316 71 q 381 206 381 140 l 381 339 l 279 339 q 151 205 151 339 m 278 772 q 191 808 227 772 q 156 895 156 844 q 190 983 156 947 q 278 1020 224 1020 q 368 983 334 1020 q 403 895 403 947 q 368 807 403 842 q 278 772 334 772 m 212 895 q 230 846 212 865 q 278 826 248 826 q 327 845 308 826 q 346 895 346 864 q 328 947 346 926 q 278 967 309 967 q 230 947 248 967 q 212 895 212 926 z "},"æ":{"ha":879,"x_min":56,"x_max":810,"o":"m 252 -11 q 106 45 157 -11 q 56 199 56 100 q 111 350 56 296 q 270 404 167 404 l 381 404 l 381 525 q 270 646 381 646 q 190 617 217 646 q 163 540 163 589 l 163 529 l 73 529 l 73 541 q 126 679 73 628 q 270 730 179 730 q 433 661 382 730 q 594 730 487 727 q 752 665 694 730 q 810 476 810 601 l 810 332 l 475 332 l 475 245 q 508 110 475 149 q 600 71 541 71 q 685 106 655 71 q 715 214 715 141 l 715 220 l 808 220 l 808 216 q 754 47 808 104 q 600 -11 700 -11 q 423 69 480 -11 q 351 9 396 30 q 252 -11 307 -11 m 151 201 q 262 71 151 71 q 349 106 317 71 q 381 208 381 141 l 381 334 l 279 334 q 151 201 151 334 m 475 404 l 715 404 l 715 476 q 685 606 715 568 q 595 644 655 644 q 506 606 537 644 q 475 473 475 567 l 475 404 z "},"ç":{"ha":567,"x_min":69,"x_max":499,"o":"m 288 -11 q 127 48 184 -11 q 69 233 69 107 l 69 484 q 126 670 69 610 q 286 730 183 730 q 444 673 388 730 q 499 500 499 617 l 499 480 l 404 480 l 404 500 q 288 644 404 644 q 195 606 227 644 q 164 473 164 567 l 164 244 q 196 112 164 151 q 286 73 228 73 q 404 218 404 73 l 404 237 l 499 237 l 499 220 q 443 46 499 103 q 288 -11 387 -11 m 180 -212 l 277 16 l 368 16 l 286 -212 l 180 -212 z "},"è":{"ha":566,"x_min":69,"x_max":498,"o":"m 286 -11 q 69 244 69 -11 l 69 476 q 125 664 69 598 q 282 730 180 730 q 440 665 382 730 q 498 476 498 601 l 498 331 l 164 331 l 164 245 q 197 110 164 149 q 289 71 231 71 q 403 214 403 71 l 403 220 l 496 220 l 496 216 q 441 47 496 104 q 286 -11 387 -11 m 164 403 l 404 403 l 404 476 q 374 606 404 568 q 283 644 343 644 q 195 605 225 644 q 164 473 164 566 l 164 403 m 275 800 l 123 979 l 227 979 l 353 800 l 275 800 z "},"é":{"ha":566,"x_min":69,"x_max":498,"o":"m 286 -11 q 69 244 69 -11 l 69 476 q 125 664 69 598 q 282 730 180 730 q 440 665 382 730 q 498 476 498 601 l 498 331 l 164 331 l 164 245 q 197 110 164 149 q 289 71 231 71 q 403 214 403 71 l 403 220 l 496 220 l 496 216 q 441 47 496 104 q 286 -11 387 -11 m 164 403 l 404 403 l 404 476 q 374 606 404 568 q 283 644 343 644 q 195 605 225 644 q 164 473 164 566 l 164 403 m 189 800 l 316 979 l 418 979 l 267 800 l 189 800 z "},"ê":{"ha":566,"x_min":69,"x_max":498,"o":"m 286 -11 q 69 244 69 -11 l 69 476 q 125 664 69 598 q 282 730 180 730 q 440 665 382 730 q 498 476 498 601 l 498 331 l 164 331 l 164 245 q 197 110 164 149 q 289 71 231 71 q 403 214 403 71 l 403 220 l 496 220 l 496 216 q 441 47 496 104 q 286 -11 387 -11 m 164 403 l 404 403 l 404 476 q 374 606 404 568 q 283 644 343 644 q 195 605 225 644 q 164 473 164 566 l 164 403 m 98 789 l 232 987 l 321 987 l 460 789 l 368 789 l 279 914 l 190 789 l 98 789 z "},"ë":{"ha":566,"x_min":69,"x_max":498,"o":"m 286 -11 q 69 244 69 -11 l 69 476 q 125 664 69 598 q 282 730 180 730 q 440 665 382 730 q 498 476 498 601 l 498 331 l 164 331 l 164 245 q 197 110 164 149 q 289 71 231 71 q 403 214 403 71 l 403 220 l 496 220 l 496 216 q 441 47 496 104 q 286 -11 387 -11 m 164 403 l 404 403 l 404 476 q 374 606 404 568 q 283 644 343 644 q 195 605 225 644 q 164 473 164 566 l 164 403 m 119 804 l 119 924 l 224 924 l 224 804 l 119 804 m 331 804 l 331 924 l 435 924 l 435 804 l 331 804 z "},"ì":{"ha":274,"x_min":-18,"x_max":212,"o":"m 91 0 l 91 718 l 184 718 l 184 0 l 91 0 m 134 800 l -18 979 l 85 979 l 212 800 l 134 800 z "},"í":{"ha":274,"x_min":47,"x_max":277,"o":"m 91 0 l 91 718 l 184 718 l 184 0 l 91 0 m 47 800 l 175 979 l 277 979 l 126 800 l 47 800 z "},"î":{"ha":274,"x_min":-43,"x_max":319,"o":"m 91 0 l 91 718 l 184 718 l 184 0 l 91 0 m -43 789 l 91 987 l 180 987 l 319 789 l 227 789 l 138 914 l 49 789 l -43 789 z "},"ï":{"ha":274,"x_min":-22,"x_max":294,"o":"m 91 0 l 91 718 l 184 718 l 184 0 l 91 0 m -22 804 l -22 924 l 83 924 l 83 804 l -22 804 m 190 804 l 190 924 l 294 924 l 294 804 l 190 804 z "},"ð":{"ha":563,"x_min":69,"x_max":495,"o":"m 281 -12 q 69 247 69 -12 l 69 404 q 258 655 69 655 q 338 639 308 655 l 259 772 l 142 735 l 121 806 l 222 837 l 151 963 l 255 963 l 311 867 l 423 903 l 445 831 l 349 802 l 401 709 q 458 600 438 650 q 487 501 479 551 q 495 389 495 452 l 495 250 q 281 -12 495 -12 m 164 231 q 282 73 164 73 q 400 231 400 73 l 400 415 q 282 571 400 571 q 164 416 164 571 l 164 231 z "},"ñ":{"ha":576,"x_min":81,"x_max":496,"o":"m 81 0 l 81 718 l 174 718 l 174 652 q 232 709 194 688 q 315 730 270 730 q 448 675 399 730 q 496 519 496 620 l 496 0 l 401 0 l 401 515 q 371 611 401 578 q 289 644 340 644 q 208 610 239 644 q 176 515 176 576 l 176 0 l 81 0 m 138 791 l 138 890 q 181 927 163 917 q 225 937 199 937 q 261 931 245 937 q 294 913 277 925 q 328 894 313 901 q 361 887 343 887 q 397 898 381 887 q 438 939 412 909 l 438 842 q 398 806 416 817 q 353 795 380 795 q 315 802 331 795 q 277 821 300 808 q 246 838 258 831 q 221 844 235 844 q 181 832 198 844 q 138 791 164 821 z "},"ò":{"ha":567,"x_min":69,"x_max":499,"o":"m 286 -11 q 126 48 183 -11 q 69 233 69 107 l 69 484 q 126 670 69 610 q 286 730 183 730 q 442 671 385 730 q 499 484 499 612 l 499 233 q 442 49 499 109 q 286 -11 385 -11 m 164 244 q 195 112 164 151 q 285 73 227 73 q 374 113 343 73 q 404 244 404 152 l 404 473 q 374 605 404 566 q 285 644 345 644 q 195 606 227 644 q 164 473 164 567 l 164 244 m 282 800 l 130 979 l 233 979 l 359 800 l 282 800 z "},"ó":{"ha":567,"x_min":69,"x_max":499,"o":"m 286 -11 q 126 48 183 -11 q 69 233 69 107 l 69 484 q 126 670 69 610 q 286 730 183 730 q 442 671 385 730 q 499 484 499 612 l 499 233 q 442 49 499 109 q 286 -11 385 -11 m 164 244 q 195 112 164 151 q 285 73 227 73 q 374 113 343 73 q 404 244 404 152 l 404 473 q 374 605 404 566 q 285 644 345 644 q 195 606 227 644 q 164 473 164 567 l 164 244 m 195 800 l 323 979 l 425 979 l 274 800 l 195 800 z "},"ô":{"ha":567,"x_min":69,"x_max":499,"o":"m 286 -11 q 126 48 183 -11 q 69 233 69 107 l 69 484 q 126 670 69 610 q 286 730 183 730 q 442 671 385 730 q 499 484 499 612 l 499 233 q 442 49 499 109 q 286 -11 385 -11 m 164 244 q 195 112 164 151 q 285 73 227 73 q 374 113 343 73 q 404 244 404 152 l 404 473 q 374 605 404 566 q 285 644 345 644 q 195 606 227 644 q 164 473 164 567 l 164 244 m 104 789 l 239 987 l 328 987 l 467 789 l 374 789 l 286 914 l 197 789 l 104 789 z "},"õ":{"ha":567,"x_min":69,"x_max":499,"o":"m 286 -11 q 126 48 183 -11 q 69 233 69 107 l 69 484 q 126 670 69 610 q 286 730 183 730 q 442 671 385 730 q 499 484 499 612 l 499 233 q 442 49 499 109 q 286 -11 385 -11 m 164 244 q 195 112 164 151 q 285 73 227 73 q 374 113 343 73 q 404 244 404 152 l 404 473 q 374 605 404 566 q 285 644 345 644 q 195 606 227 644 q 164 473 164 567 l 164 244 m 134 791 l 134 890 q 177 927 159 917 q 221 937 195 937 q 257 931 241 937 q 290 913 273 925 q 324 894 309 901 q 357 887 339 887 q 393 898 377 887 q 434 939 408 909 l 434 842 q 394 806 412 817 q 349 795 376 795 q 311 802 327 795 q 273 821 296 808 q 242 838 254 831 q 217 844 231 844 q 177 832 194 844 q 134 791 160 821 z "},"ö":{"ha":567,"x_min":69,"x_max":499,"o":"m 286 -11 q 126 48 183 -11 q 69 233 69 107 l 69 484 q 126 670 69 610 q 286 730 183 730 q 442 671 385 730 q 499 484 499 612 l 499 233 q 442 49 499 109 q 286 -11 385 -11 m 164 244 q 195 112 164 151 q 285 73 227 73 q 374 113 343 73 q 404 244 404 152 l 404 473 q 374 605 404 566 q 285 644 345 644 q 195 606 227 644 q 164 473 164 567 l 164 244 m 126 804 l 126 924 l 231 924 l 231 804 l 126 804 m 338 804 l 338 924 l 442 924 l 442 804 l 338 804 z "},"÷":{"ha":583,"x_min":56,"x_max":529,"o":"m 56 338 l 56 429 l 529 429 l 529 338 l 56 338 m 293 133 q 247 153 267 133 q 227 199 227 174 q 246 245 227 225 q 293 266 266 266 q 339 247 320 266 q 358 199 358 228 q 339 153 358 172 q 293 133 320 133 m 293 506 q 246 526 266 506 q 227 572 227 545 q 246 618 227 598 q 293 637 266 637 q 339 618 320 637 q 358 572 358 600 q 339 526 358 545 q 293 506 320 506 z "},"ø":{"ha":567,"x_min":69,"x_max":499,"o":"m 69 -42 l 117 58 q 69 233 69 119 l 69 484 q 126 670 69 610 q 286 730 183 730 q 415 694 365 730 l 444 755 l 499 755 l 453 658 q 499 484 499 595 l 499 233 q 442 49 499 109 q 286 -11 385 -11 q 156 23 206 -11 l 125 -42 l 69 -42 m 164 244 q 170 174 164 203 l 373 606 q 285 644 345 644 q 195 606 227 644 q 164 473 164 567 l 164 244 m 399 541 l 197 110 q 285 73 225 73 q 374 113 343 73 q 404 244 404 152 l 404 473 q 399 541 404 513 z "},"ù":{"ha":576,"x_min":81,"x_max":496,"o":"m 289 -11 q 81 221 81 -11 l 81 718 l 176 718 l 176 285 q 200 122 176 171 q 290 73 224 73 q 359 92 335 73 q 392 157 382 111 q 401 285 401 203 l 401 718 l 496 718 l 496 221 q 289 -11 496 -11 m 286 800 l 134 979 l 237 979 l 363 800 l 286 800 z "},"ú":{"ha":576,"x_min":81,"x_max":496,"o":"m 289 -11 q 81 221 81 -11 l 81 718 l 176 718 l 176 285 q 200 122 176 171 q 290 73 224 73 q 359 92 335 73 q 392 157 382 111 q 401 285 401 203 l 401 718 l 496 718 l 496 221 q 289 -11 496 -11 m 199 800 l 327 979 l 429 979 l 278 800 l 199 800 z "},"û":{"ha":576,"x_min":81,"x_max":496,"o":"m 289 -11 q 81 221 81 -11 l 81 718 l 176 718 l 176 285 q 200 122 176 171 q 290 73 224 73 q 359 92 335 73 q 392 157 382 111 q 401 285 401 203 l 401 718 l 496 718 l 496 221 q 289 -11 496 -11 m 109 789 l 243 987 l 332 987 l 471 789 l 378 789 l 290 914 l 201 789 l 109 789 z "},"ü":{"ha":576,"x_min":81,"x_max":496,"o":"m 289 -11 q 81 221 81 -11 l 81 718 l 176 718 l 176 285 q 200 122 176 171 q 290 73 224 73 q 359 92 335 73 q 392 157 382 111 q 401 285 401 203 l 401 718 l 496 718 l 496 221 q 289 -11 496 -11 m 130 804 l 130 924 l 235 924 l 235 804 l 130 804 m 342 804 l 342 924 l 446 924 l 446 804 l 342 804 z "},"ý":{"ha":514,"x_min":20,"x_max":495,"o":"m 62 -214 l 62 -129 l 85 -129 q 169 -109 140 -129 q 210 -39 198 -90 l 216 -16 l 20 718 l 123 718 l 259 170 l 392 718 l 495 718 l 285 -68 q 214 -181 264 -148 q 76 -214 163 -214 l 62 -214 m 172 800 l 300 979 l 401 979 l 251 800 l 172 800 z "},"þ":{"ha":571,"x_min":81,"x_max":503,"o":"m 81 -212 l 81 959 l 176 959 l 176 648 q 312 730 222 727 q 451 669 399 730 q 503 484 503 608 l 503 233 q 450 48 503 107 q 313 -11 397 -11 q 176 65 224 -11 l 176 -212 l 81 -212 m 176 243 q 296 73 176 73 q 379 112 350 73 q 408 244 408 151 l 408 473 q 296 644 408 644 q 176 472 176 644 l 176 243 z "},"ÿ":{"ha":514,"x_min":20,"x_max":495,"o":"m 62 -214 l 62 -129 l 85 -129 q 169 -109 140 -129 q 210 -39 198 -90 l 216 -16 l 20 718 l 123 718 l 259 170 l 392 718 l 495 718 l 285 -68 q 214 -181 264 -148 q 76 -214 163 -214 l 62 -214 m 103 804 l 103 924 l 208 924 l 208 804 l 103 804 m 315 804 l 315 924 l 419 924 l 419 804 l 315 804 z "},"Ā":{"ha":640,"x_min":12,"x_max":628,"o":"m 12 0 l 274 959 l 366 959 l 628 0 l 521 0 l 460 244 l 179 244 l 118 0 l 12 0 m 201 332 l 438 332 l 320 806 l 201 332 m 159 1074 l 159 1160 l 480 1160 l 480 1074 l 159 1074 z "},"ā":{"ha":556,"x_min":56,"x_max":475,"o":"m 239 -11 q 103 45 151 -11 q 56 203 56 100 q 111 355 56 301 q 270 410 167 410 l 381 410 l 381 525 q 270 646 381 646 q 190 617 217 646 q 163 540 163 589 l 163 529 l 73 529 l 73 541 q 126 679 73 628 q 270 730 179 730 q 422 675 370 730 q 475 521 475 621 l 475 0 l 385 0 l 385 66 q 239 -11 336 -11 m 151 205 q 262 71 151 72 q 349 105 316 71 q 381 206 381 140 l 381 339 l 279 339 q 151 205 151 339 m 117 821 l 117 906 l 438 906 l 438 821 l 117 821 z "},"Ă":{"ha":640,"x_min":12,"x_max":628,"o":"m 12 0 l 274 959 l 366 959 l 628 0 l 521 0 l 460 244 l 179 244 l 118 0 l 12 0 m 201 332 l 438 332 l 320 806 l 201 332 m 320 1031 q 192 1078 236 1031 q 148 1213 148 1126 l 148 1237 l 237 1237 l 237 1213 q 320 1112 237 1112 q 403 1213 403 1112 l 403 1237 l 492 1237 l 492 1213 q 448 1078 492 1126 q 320 1031 404 1031 z "},"ă":{"ha":556,"x_min":56,"x_max":475,"o":"m 239 -11 q 103 45 151 -11 q 56 203 56 100 q 111 355 56 301 q 270 410 167 410 l 381 410 l 381 525 q 270 646 381 646 q 190 617 217 646 q 163 540 163 589 l 163 529 l 73 529 l 73 541 q 126 679 73 628 q 270 730 179 730 q 422 675 370 730 q 475 521 475 621 l 475 0 l 385 0 l 385 66 q 239 -11 336 -11 m 151 205 q 262 71 151 72 q 349 105 316 71 q 381 206 381 140 l 381 339 l 279 339 q 151 205 151 339 m 278 777 q 150 825 194 777 q 106 959 106 872 l 106 983 l 195 983 l 195 959 q 278 859 195 859 q 361 959 361 859 l 361 983 l 450 983 l 450 959 q 406 825 450 872 q 278 777 362 777 z "},"Ą":{"ha":640,"x_min":12,"x_max":628,"o":"m 12 0 l 274 959 l 366 959 l 628 0 l 521 0 l 460 244 l 179 244 l 118 0 l 12 0 m 201 332 l 438 332 l 320 806 l 201 332 m 587 -294 q 469 -199 513 -292 q 450 -144 457 -175 q 435 -76 442 -114 l 547 22 l 587 22 l 587 0 l 500 -109 q 539 -160 515 -144 q 587 -179 563 -176 l 587 -294 z "},"ą":{"ha":556,"x_min":56,"x_max":475,"o":"m 239 -11 q 103 45 151 -11 q 56 203 56 100 q 111 355 56 301 q 270 410 167 410 l 381 410 l 381 525 q 270 646 381 646 q 190 617 217 646 q 163 540 163 589 l 163 529 l 73 529 l 73 541 q 126 679 73 628 q 270 730 179 730 q 422 675 370 730 q 475 521 475 621 l 475 0 l 385 0 l 385 66 q 239 -11 336 -11 m 151 205 q 262 71 151 72 q 349 105 316 71 q 381 206 381 140 l 381 339 l 279 339 q 151 205 151 339 m 475 -294 q 357 -199 400 -292 q 337 -144 345 -175 q 323 -76 330 -114 l 434 22 l 475 22 l 475 0 l 388 -109 q 427 -160 403 -144 q 475 -179 450 -176 l 475 -294 z "},"Ć":{"ha":663,"x_min":72,"x_max":591,"o":"m 335 -11 q 144 62 217 -11 q 72 279 72 136 l 72 680 q 143 898 72 825 q 334 971 214 971 q 520 901 449 971 q 591 692 591 831 l 591 680 l 490 680 l 490 689 q 448 833 490 788 q 335 879 407 879 q 215 829 256 879 q 174 670 174 779 l 174 278 q 335 80 174 83 q 448 125 406 80 q 490 267 490 171 l 490 279 l 589 279 l 589 266 q 518 58 589 127 q 335 -11 448 -11 m 241 1054 l 369 1233 l 471 1233 l 320 1054 l 241 1054 z "},"ć":{"ha":567,"x_min":69,"x_max":499,"o":"m 288 -11 q 127 48 184 -11 q 69 233 69 107 l 69 484 q 126 670 69 610 q 286 730 183 730 q 444 673 388 730 q 499 500 499 617 l 499 480 l 404 480 l 404 500 q 288 644 404 644 q 195 606 227 644 q 164 473 164 567 l 164 244 q 196 112 164 151 q 286 73 228 73 q 404 218 404 73 l 404 237 l 499 237 l 499 220 q 443 46 499 103 q 288 -11 387 -11 m 194 800 l 321 979 l 423 979 l 273 800 l 194 800 z "},"Ĉ":{"ha":663,"x_min":72,"x_max":591,"o":"m 335 -11 q 144 62 217 -11 q 72 279 72 136 l 72 680 q 143 898 72 825 q 334 971 214 971 q 520 901 449 971 q 591 692 591 831 l 591 680 l 490 680 l 490 689 q 448 833 490 788 q 335 879 407 879 q 215 829 256 879 q 174 670 174 779 l 174 278 q 335 80 174 83 q 448 125 406 80 q 490 267 490 171 l 490 279 l 589 279 l 589 266 q 518 58 589 127 q 335 -11 448 -11 m 153 1020 l 288 1218 l 377 1218 l 515 1020 l 423 1020 l 335 1145 l 245 1020 l 153 1020 z "},"ĉ":{"ha":567,"x_min":69,"x_max":499,"o":"m 288 -11 q 127 48 184 -11 q 69 233 69 107 l 69 484 q 126 670 69 610 q 286 730 183 730 q 444 673 388 730 q 499 500 499 617 l 499 480 l 404 480 l 404 500 q 288 644 404 644 q 195 606 227 644 q 164 473 164 567 l 164 244 q 196 112 164 151 q 286 73 228 73 q 404 218 404 73 l 404 237 l 499 237 l 499 220 q 443 46 499 103 q 288 -11 387 -11 m 98 789 l 232 987 l 321 987 l 460 789 l 368 789 l 279 914 l 190 789 l 98 789 z "},"Ċ":{"ha":663,"x_min":72,"x_max":591,"o":"m 335 -11 q 144 62 217 -11 q 72 279 72 136 l 72 680 q 143 898 72 825 q 334 971 214 971 q 520 901 449 971 q 591 692 591 831 l 591 680 l 490 680 l 490 689 q 448 833 490 788 q 335 879 407 879 q 215 829 256 879 q 174 670 174 779 l 174 278 q 335 80 174 83 q 448 125 406 80 q 490 267 490 171 l 490 279 l 589 279 l 589 266 q 518 58 589 127 q 335 -11 448 -11 m 282 1080 l 282 1204 l 380 1204 l 380 1080 l 282 1080 z "},"ċ":{"ha":567,"x_min":69,"x_max":499,"o":"m 288 -11 q 127 48 184 -11 q 69 233 69 107 l 69 484 q 126 670 69 610 q 286 730 183 730 q 444 673 388 730 q 499 500 499 617 l 499 480 l 404 480 l 404 500 q 288 644 404 644 q 195 606 227 644 q 164 473 164 567 l 164 244 q 196 112 164 151 q 286 73 228 73 q 404 218 404 73 l 404 237 l 499 237 l 499 220 q 443 46 499 103 q 288 -11 387 -11 m 235 826 l 235 951 l 332 951 l 332 826 l 235 826 z "},"Č":{"ha":663,"x_min":72,"x_max":591,"o":"m 335 -11 q 144 62 217 -11 q 72 279 72 136 l 72 680 q 143 898 72 825 q 334 971 214 971 q 520 901 449 971 q 591 692 591 831 l 591 680 l 490 680 l 490 689 q 448 833 490 788 q 335 879 407 879 q 215 829 256 879 q 174 670 174 779 l 174 278 q 335 80 174 83 q 448 125 406 80 q 490 267 490 171 l 490 279 l 589 279 l 589 266 q 518 58 589 127 q 335 -11 448 -11 m 285 1054 l 151 1252 l 244 1252 l 332 1127 l 420 1252 l 513 1252 l 374 1054 l 285 1054 z "},"č":{"ha":567,"x_min":69,"x_max":499,"o":"m 288 -11 q 127 48 184 -11 q 69 233 69 107 l 69 484 q 126 670 69 610 q 286 730 183 730 q 444 673 388 730 q 499 500 499 617 l 499 480 l 404 480 l 404 500 q 288 644 404 644 q 195 606 227 644 q 164 473 164 567 l 164 244 q 196 112 164 151 q 286 73 228 73 q 404 218 404 73 l 404 237 l 499 237 l 499 220 q 443 46 499 103 q 288 -11 387 -11 m 236 800 l 102 998 l 195 998 l 283 873 l 372 998 l 464 998 l 326 800 l 236 800 z "},"Ď":{"ha":662,"x_min":83,"x_max":590,"o":"m 83 0 l 83 959 l 332 959 q 519 886 449 959 q 590 669 590 812 l 590 290 q 519 73 590 146 q 332 0 449 0 l 83 0 m 184 91 l 332 91 q 448 140 407 91 q 488 289 488 189 l 488 658 q 448 816 488 764 q 332 868 408 868 l 184 868 l 184 91 m 283 1054 l 149 1252 l 243 1252 l 331 1127 l 419 1252 l 511 1252 l 373 1054 l 283 1054 z "},"ď":{"ha":655,"x_min":69,"x_max":651,"o":"m 258 -11 q 122 50 175 -11 q 69 233 69 110 l 69 484 q 121 669 69 608 q 258 730 174 730 q 396 648 350 730 l 396 959 l 490 959 l 490 0 l 396 0 l 396 65 q 258 -11 349 -11 m 164 244 q 193 113 164 153 q 277 73 222 73 q 396 243 396 73 l 396 472 q 277 644 396 644 q 164 473 164 644 l 164 244 m 570 723 l 570 959 l 651 959 l 651 798 l 570 723 z "},"Đ":{"ha":701,"x_min":42,"x_max":629,"o":"m 122 0 l 122 442 l 42 442 l 42 532 l 122 532 l 122 959 l 370 959 q 558 886 487 959 q 629 669 629 812 l 629 290 q 558 73 629 146 q 370 0 487 0 l 122 0 m 224 91 l 370 91 q 486 139 444 91 q 528 289 528 187 l 528 658 q 370 868 528 868 l 224 868 l 224 532 l 372 532 l 372 442 l 224 442 l 224 91 z "},"đ":{"ha":571,"x_min":69,"x_max":571,"o":"m 250 789 l 250 875 l 396 875 l 396 959 l 490 959 l 490 875 l 571 875 l 571 789 l 490 789 l 490 0 l 396 0 l 396 65 q 258 -11 349 -11 q 122 50 175 -11 q 69 233 69 110 l 69 484 q 121 669 69 608 q 258 730 174 730 q 396 648 350 730 l 396 789 l 250 789 m 164 244 q 193 113 164 153 q 277 73 222 73 q 396 243 396 73 l 396 472 q 277 644 396 644 q 164 473 164 644 l 164 244 z "},"Ē":{"ha":559,"x_min":83,"x_max":510,"o":"m 83 0 l 83 959 l 510 959 l 510 868 l 183 868 l 183 533 l 464 533 l 464 442 l 183 442 l 183 91 l 510 91 l 510 0 l 83 0 m 118 1074 l 118 1160 l 439 1160 l 439 1074 l 118 1074 z "},"ē":{"ha":566,"x_min":69,"x_max":498,"o":"m 286 -11 q 69 244 69 -11 l 69 476 q 125 664 69 598 q 282 730 180 730 q 440 665 382 730 q 498 476 498 601 l 498 331 l 164 331 l 164 245 q 197 110 164 149 q 289 71 231 71 q 403 214 403 71 l 403 220 l 496 220 l 496 216 q 441 47 496 104 q 286 -11 387 -11 m 164 403 l 404 403 l 404 476 q 374 606 404 568 q 283 644 343 644 q 195 605 225 644 q 164 473 164 566 l 164 403 m 121 821 l 121 906 l 442 906 l 442 821 l 121 821 z "},"Ĕ":{"ha":559,"x_min":83,"x_max":510,"o":"m 83 0 l 83 959 l 510 959 l 510 868 l 183 868 l 183 533 l 464 533 l 464 442 l 183 442 l 183 91 l 510 91 l 510 0 l 83 0 m 315 1024 q 186 1072 231 1024 q 142 1206 142 1119 l 142 1230 l 232 1230 l 232 1206 q 315 1105 232 1105 q 397 1206 397 1105 l 397 1230 l 487 1230 l 487 1206 q 443 1072 487 1119 q 315 1024 399 1024 z "},"ĕ":{"ha":566,"x_min":69,"x_max":498,"o":"m 286 -11 q 69 244 69 -11 l 69 476 q 125 664 69 598 q 282 730 180 730 q 440 665 382 730 q 498 476 498 601 l 498 331 l 164 331 l 164 245 q 197 110 164 149 q 289 71 231 71 q 403 214 403 71 l 403 220 l 496 220 l 496 216 q 441 47 496 104 q 286 -11 387 -11 m 164 403 l 404 403 l 404 476 q 374 606 404 568 q 283 644 343 644 q 195 605 225 644 q 164 473 164 566 l 164 403 m 282 793 q 154 841 198 793 q 110 975 110 888 l 110 1000 l 199 1000 l 199 975 q 282 875 199 875 q 365 975 365 875 l 365 1000 l 454 1000 l 454 975 q 410 841 454 888 q 282 793 366 793 z "},"Ė":{"ha":559,"x_min":83,"x_max":510,"o":"m 83 0 l 83 959 l 510 959 l 510 868 l 183 868 l 183 533 l 464 533 l 464 442 l 183 442 l 183 91 l 510 91 l 510 0 l 83 0 m 231 1080 l 231 1204 l 328 1204 l 328 1080 l 231 1080 z "},"ė":{"ha":566,"x_min":69,"x_max":498,"o":"m 286 -11 q 69 244 69 -11 l 69 476 q 125 664 69 598 q 282 730 180 730 q 440 665 382 730 q 498 476 498 601 l 498 331 l 164 331 l 164 245 q 197 110 164 149 q 289 71 231 71 q 403 214 403 71 l 403 220 l 496 220 l 496 216 q 441 47 496 104 q 286 -11 387 -11 m 164 403 l 404 403 l 404 476 q 374 606 404 568 q 283 644 343 644 q 195 605 225 644 q 164 473 164 566 l 164 403 m 233 826 l 233 951 l 331 951 l 331 826 l 233 826 z "},"Ę":{"ha":559,"x_min":83,"x_max":510,"o":"m 83 0 l 83 959 l 510 959 l 510 868 l 183 868 l 183 533 l 464 533 l 464 442 l 183 442 l 183 91 l 510 91 l 510 0 l 83 0 m 509 -294 q 391 -199 434 -292 q 371 -144 378 -175 q 357 -76 363 -114 l 468 22 l 509 22 l 509 0 l 422 -109 q 460 -160 437 -144 q 509 -179 484 -176 l 509 -294 z "},"ę":{"ha":566,"x_min":69,"x_max":498,"o":"m 361 -294 q 243 -199 286 -292 q 223 -144 231 -175 q 209 -76 216 -114 l 285 -11 q 69 244 69 -11 l 69 476 q 125 664 69 598 q 282 730 180 730 q 440 665 382 730 q 498 476 498 601 l 498 331 l 164 331 l 164 245 q 197 110 164 149 q 289 71 231 71 q 403 214 403 71 l 403 220 l 496 220 l 496 216 q 460 71 496 126 q 358 -1 425 16 l 274 -109 q 313 -160 289 -144 q 361 -179 336 -176 l 361 -294 m 164 403 l 404 403 l 404 476 q 374 606 404 568 q 283 644 343 644 q 195 605 225 644 q 164 473 164 566 l 164 403 z "},"Ě":{"ha":559,"x_min":83,"x_max":510,"o":"m 83 0 l 83 959 l 510 959 l 510 868 l 183 868 l 183 533 l 464 533 l 464 442 l 183 442 l 183 91 l 510 91 l 510 0 l 83 0 m 259 1054 l 125 1252 l 218 1252 l 307 1127 l 395 1252 l 487 1252 l 349 1054 l 259 1054 z "},"ě":{"ha":566,"x_min":69,"x_max":498,"o":"m 286 -11 q 69 244 69 -11 l 69 476 q 125 664 69 598 q 282 730 180 730 q 440 665 382 730 q 498 476 498 601 l 498 331 l 164 331 l 164 245 q 197 110 164 149 q 289 71 231 71 q 403 214 403 71 l 403 220 l 496 220 l 496 216 q 441 47 496 104 q 286 -11 387 -11 m 164 403 l 404 403 l 404 476 q 374 606 404 568 q 283 644 343 644 q 195 605 225 644 q 164 473 164 566 l 164 403 m 236 800 l 102 998 l 195 998 l 283 873 l 372 998 l 464 998 l 326 800 l 236 800 z "},"Ĝ":{"ha":663,"x_min":72,"x_max":591,"o":"m 334 -11 q 144 62 217 -11 q 72 279 72 134 l 72 680 q 143 898 72 825 q 334 971 214 971 q 521 903 450 971 q 591 705 591 834 l 591 689 l 490 689 l 490 705 q 448 833 490 788 q 334 879 406 879 q 174 670 174 879 l 174 278 q 334 80 174 81 q 448 127 407 80 q 490 274 490 175 l 490 407 l 332 407 l 332 491 l 591 491 l 591 278 q 520 61 591 133 q 334 -11 449 -11 m 153 1020 l 288 1218 l 377 1218 l 515 1020 l 423 1020 l 335 1145 l 245 1020 l 153 1020 z "},"ĝ":{"ha":571,"x_min":69,"x_max":490,"o":"m 279 -225 q 132 -176 183 -225 q 77 -43 80 -126 l 168 -43 q 199 -116 171 -90 q 279 -142 228 -142 q 368 -104 339 -142 q 396 14 396 -66 l 396 119 q 258 45 350 45 q 122 105 175 45 q 69 288 69 165 l 69 486 q 121 668 69 606 q 258 730 174 730 q 396 648 350 730 l 396 718 l 490 718 l 490 22 q 439 -159 490 -92 q 279 -225 388 -225 m 164 298 q 193 168 164 208 q 277 129 222 129 q 396 298 396 129 l 396 473 q 277 644 396 644 q 194 606 224 644 q 164 475 164 567 l 164 298 m 102 789 l 236 987 l 326 987 l 464 789 l 372 789 l 283 914 l 194 789 l 102 789 z "},"Ğ":{"ha":663,"x_min":72,"x_max":591,"o":"m 334 -11 q 144 62 217 -11 q 72 279 72 134 l 72 680 q 143 898 72 825 q 334 971 214 971 q 521 903 450 971 q 591 705 591 834 l 591 689 l 490 689 l 490 705 q 448 833 490 788 q 334 879 406 879 q 174 670 174 879 l 174 278 q 334 80 174 81 q 448 127 407 80 q 490 274 490 175 l 490 407 l 332 407 l 332 491 l 591 491 l 591 278 q 520 61 591 133 q 334 -11 449 -11 m 338 1023 q 210 1070 254 1023 q 165 1204 165 1118 l 165 1229 l 255 1229 l 255 1204 q 338 1104 255 1104 q 420 1204 420 1104 l 420 1229 l 510 1229 l 510 1204 q 466 1070 510 1118 q 338 1023 422 1023 z "},"ğ":{"ha":571,"x_min":69,"x_max":490,"o":"m 279 -225 q 132 -176 183 -225 q 77 -43 80 -126 l 168 -43 q 199 -116 171 -90 q 279 -142 228 -142 q 368 -104 339 -142 q 396 14 396 -66 l 396 119 q 258 45 350 45 q 122 105 175 45 q 69 288 69 165 l 69 486 q 121 668 69 606 q 258 730 174 730 q 396 648 350 730 l 396 718 l 490 718 l 490 22 q 439 -159 490 -92 q 279 -225 388 -225 m 164 298 q 193 168 164 208 q 277 129 222 129 q 396 298 396 129 l 396 473 q 277 644 396 644 q 194 606 224 644 q 164 475 164 567 l 164 298 m 286 776 q 158 823 202 776 q 114 958 114 871 l 114 982 l 203 982 l 203 958 q 286 857 203 857 q 369 958 369 857 l 369 982 l 458 982 l 458 958 q 414 823 458 871 q 286 776 370 776 z "},"Ġ":{"ha":663,"x_min":72,"x_max":591,"o":"m 334 -11 q 144 62 217 -11 q 72 279 72 134 l 72 680 q 143 898 72 825 q 334 971 214 971 q 521 903 450 971 q 591 705 591 834 l 591 689 l 490 689 l 490 705 q 448 833 490 788 q 334 879 406 879 q 174 670 174 879 l 174 278 q 334 80 174 81 q 448 127 407 80 q 490 274 490 175 l 490 407 l 332 407 l 332 491 l 591 491 l 591 278 q 520 61 591 133 q 334 -11 449 -11 m 282 1080 l 282 1204 l 380 1204 l 380 1080 l 282 1080 z "},"ġ":{"ha":571,"x_min":69,"x_max":490,"o":"m 279 -225 q 132 -176 183 -225 q 77 -43 80 -126 l 168 -43 q 199 -116 171 -90 q 279 -142 228 -142 q 368 -104 339 -142 q 396 14 396 -66 l 396 119 q 258 45 350 45 q 122 105 175 45 q 69 288 69 165 l 69 486 q 121 668 69 606 q 258 730 174 730 q 396 648 350 730 l 396 718 l 490 718 l 490 22 q 439 -159 490 -92 q 279 -225 388 -225 m 164 298 q 193 168 164 208 q 277 129 222 129 q 396 298 396 129 l 396 473 q 277 644 396 644 q 194 606 224 644 q 164 475 164 567 l 164 298 m 236 826 l 236 951 l 334 951 l 334 826 l 236 826 z "},"Ģ":{"ha":663,"x_min":72,"x_max":591,"o":"m 334 -11 q 144 62 217 -11 q 72 279 72 134 l 72 680 q 143 898 72 825 q 334 971 214 971 q 521 903 450 971 q 591 705 591 834 l 591 689 l 490 689 l 490 705 q 448 833 490 788 q 334 879 406 879 q 174 670 174 879 l 174 278 q 334 80 174 81 q 448 127 407 80 q 490 274 490 175 l 490 407 l 332 407 l 332 491 l 591 491 l 591 278 q 520 61 591 133 q 334 -11 449 -11 m 286 -235 l 286 -54 l 376 -54 l 376 -159 l 286 -235 z "},"ģ":{"ha":571,"x_min":69,"x_max":490,"o":"m 279 -225 q 132 -176 183 -225 q 77 -43 80 -126 l 168 -43 q 199 -116 171 -90 q 279 -142 228 -142 q 368 -104 339 -142 q 396 14 396 -66 l 396 119 q 258 45 350 45 q 122 105 175 45 q 69 288 69 165 l 69 486 q 121 668 69 606 q 258 730 174 730 q 396 648 350 730 l 396 718 l 490 718 l 490 22 q 439 -159 490 -92 q 279 -225 388 -225 m 164 298 q 193 168 164 208 q 277 129 222 129 q 396 298 396 129 l 396 473 q 277 644 396 644 q 194 606 224 644 q 164 475 164 567 l 164 298 m 228 779 l 228 883 l 317 959 l 317 779 l 228 779 z "},"Ĥ":{"ha":663,"x_min":83,"x_max":581,"o":"m 83 0 l 83 959 l 184 959 l 184 533 l 479 533 l 479 959 l 581 959 l 581 0 l 479 0 l 479 444 l 184 444 l 184 0 l 83 0 m 152 1020 l 286 1218 l 376 1218 l 514 1020 l 422 1020 l 334 1145 l 244 1020 l 152 1020 z "},"ĥ":{"ha":576,"x_min":81,"x_max":496,"o":"m 81 0 l 81 959 l 176 959 l 176 655 q 235 709 198 689 q 315 730 271 730 q 448 675 399 730 q 496 519 496 620 l 496 0 l 401 0 l 401 515 q 371 611 401 578 q 289 644 340 644 q 207 611 237 644 q 176 515 176 578 l 176 0 l 81 0 m 107 1020 l 241 1218 l 331 1218 l 469 1020 l 377 1020 l 289 1145 l 199 1020 l 107 1020 z "},"Ħ":{"ha":663,"x_min":42,"x_max":628,"o":"m 42 696 l 42 785 l 83 785 l 83 959 l 184 959 l 184 785 l 479 785 l 479 959 l 581 959 l 581 785 l 628 785 l 628 696 l 581 696 l 581 0 l 479 0 l 479 444 l 184 444 l 184 0 l 83 0 l 83 696 l 42 696 m 479 696 l 184 696 l 184 533 l 479 533 l 479 696 z "},"ħ":{"ha":576,"x_min":15,"x_max":496,"o":"m 15 804 l 15 867 l 81 867 l 81 959 l 176 959 l 176 867 l 397 867 l 397 804 l 176 804 l 176 655 q 235 709 198 689 q 315 730 271 730 q 448 675 399 730 q 496 519 496 620 l 496 0 l 401 0 l 401 515 q 371 611 401 578 q 289 644 340 644 q 207 611 237 644 q 176 515 176 578 l 176 0 l 81 0 l 81 804 l 15 804 z "},"Ĩ":{"ha":282,"x_min":-8,"x_max":292,"o":"m 92 0 l 92 959 l 191 959 l 191 0 l 92 0 m -8 1021 l -8 1120 q 35 1158 16 1147 q 79 1168 53 1168 q 115 1162 99 1168 q 148 1143 130 1156 q 182 1124 167 1131 q 214 1118 197 1118 q 250 1128 235 1118 q 292 1169 266 1139 l 292 1073 q 252 1036 270 1047 q 206 1025 233 1025 q 169 1032 184 1025 q 130 1051 153 1039 q 100 1068 111 1062 q 75 1074 88 1074 q 35 1063 52 1074 q -8 1021 18 1051 z "},"ĩ":{"ha":274,"x_min":-14,"x_max":286,"o":"m 91 0 l 91 718 l 184 718 l 184 0 l 91 0 m -14 791 l -14 890 q 29 927 11 917 q 73 937 47 937 q 109 931 94 937 q 142 913 125 925 q 176 894 161 901 q 209 887 191 887 q 245 898 229 887 q 286 939 260 909 l 286 842 q 246 806 264 817 q 201 795 228 795 q 163 802 179 795 q 125 821 148 808 q 94 838 106 831 q 69 844 83 844 q 29 832 46 844 q -14 791 12 821 z "},"Ī":{"ha":282,"x_min":-20,"x_max":301,"o":"m 92 0 l 92 959 l 191 959 l 191 0 l 92 0 m -20 1074 l -20 1160 l 301 1160 l 301 1074 l -20 1074 z "},"ī":{"ha":275,"x_min":-23,"x_max":298,"o":"m 91 0 l 91 718 l 184 718 l 184 0 l 91 0 m -23 821 l -23 906 l 298 906 l 298 821 l -23 821 z "},"Ĭ":{"ha":282,"x_min":-30,"x_max":315,"o":"m 92 0 l 92 959 l 191 959 l 191 0 l 92 0 m 142 1024 q 14 1072 58 1024 q -30 1206 -30 1119 l -30 1230 l 60 1230 l 60 1206 q 142 1105 60 1105 q 225 1206 225 1105 l 225 1230 l 315 1230 l 315 1206 q 271 1072 315 1119 q 142 1024 227 1024 z "},"ĭ":{"ha":274,"x_min":-35,"x_max":309,"o":"m 91 0 l 91 718 l 184 718 l 184 0 l 91 0 m 137 793 q 9 841 53 793 q -35 975 -35 888 l -35 1000 l 54 1000 l 54 975 q 137 875 54 875 q 220 975 220 875 l 220 1000 l 309 1000 l 309 975 q 265 841 309 888 q 137 793 221 793 z "},"Į":{"ha":282,"x_min":39,"x_max":191,"o":"m 92 0 l 92 959 l 191 959 l 191 0 l 92 0 m 191 -294 q 73 -199 117 -292 q 54 -144 61 -175 q 39 -76 46 -114 l 151 22 l 191 22 l 191 0 l 104 -109 q 143 -160 119 -144 q 191 -179 167 -176 l 191 -294 z "},"į":{"ha":275,"x_min":33,"x_max":186,"o":"m 91 0 l 91 718 l 184 718 l 184 0 l 91 0 m 91 831 l 91 958 l 186 958 l 186 831 l 91 831 m 184 -294 q 66 -199 110 -292 q 47 -144 54 -175 q 33 -76 39 -114 l 119 0 l 184 22 l 184 0 l 98 -109 q 136 -160 113 -144 q 184 -179 160 -176 l 184 -294 z "},"İ":{"ha":274,"x_min":92,"x_max":191,"o":"m 92 0 l 92 959 l 191 959 l 191 0 l 92 0 m 95 1097 l 95 1222 l 191 1222 l 191 1097 l 95 1097 z "},"ı":{"ha":274,"x_min":91,"x_max":184,"o":"m 91 0 l 91 718 l 184 718 l 184 0 l 91 0 z "},"Ĳ":{"ha":666,"x_min":83,"x_max":583,"o":"m 334 -11 q 183 37 248 -11 q 94 161 118 85 l 201 161 q 334 80 237 80 q 442 125 403 80 q 481 250 481 171 l 481 959 l 583 959 l 583 244 q 514 58 583 127 q 334 -11 445 -11 m 83 345 l 83 959 l 184 959 l 184 345 l 83 345 z "},"ĳ":{"ha":556,"x_min":81,"x_max":475,"o":"m 278 -225 q 137 -176 182 -225 q 90 -43 92 -126 l 180 -43 q 205 -116 183 -90 q 278 -142 227 -142 q 359 -104 338 -142 q 381 14 381 -66 l 381 119 q 334 66 366 73 q 256 58 302 58 q 127 112 174 58 q 81 288 81 165 l 81 718 l 176 718 l 176 298 q 199 175 176 208 q 275 142 221 142 q 358 179 335 142 q 381 298 381 216 l 381 718 l 475 718 l 475 22 q 431 -159 475 -92 q 278 -225 387 -225 m 81 831 l 81 958 l 176 958 l 176 831 l 81 831 m 381 831 l 381 958 l 475 958 l 475 831 l 381 831 z "},"Ĵ":{"ha":365,"x_min":34,"x_max":406,"o":"m 34 0 l 34 91 l 73 91 q 172 201 172 91 l 172 959 l 274 959 l 274 190 q 224 47 274 95 q 81 0 174 0 l 34 0 m 43 1020 l 178 1218 l 267 1218 l 406 1020 l 313 1020 l 225 1145 l 136 1020 l 43 1020 z "},"ĵ":{"ha":270,"x_min":-47,"x_max":315,"o":"m -35 -212 l -35 -126 l -14 -126 q 84 -16 84 -126 l 84 718 l 180 718 l 180 -20 q 130 -163 180 -115 q -11 -212 80 -212 l -35 -212 m -47 789 l 87 987 l 176 987 l 315 789 l 222 789 l 134 914 l 45 789 l -47 789 z "},"Ķ":{"ha":640,"x_min":83,"x_max":632,"o":"m 83 0 l 83 959 l 184 959 l 184 425 l 491 959 l 598 959 l 368 568 l 632 0 l 521 0 l 307 465 l 184 256 l 184 0 l 83 0 m 275 -235 l 275 -54 l 365 -54 l 365 -159 l 275 -235 z "},"ķ":{"ha":567,"x_min":81,"x_max":547,"o":"m 81 0 l 81 959 l 176 959 l 176 345 l 416 718 l 521 718 l 332 442 l 547 0 l 439 0 l 274 355 l 176 213 l 176 0 l 81 0 m 239 -235 l 239 -54 l 328 -54 l 328 -159 l 239 -235 z "},"Ĺ":{"ha":543,"x_min":81,"x_max":510,"o":"m 83 0 l 83 959 l 184 959 l 184 91 l 510 91 l 510 0 l 83 0 m 81 1054 l 209 1233 l 311 1233 l 160 1054 l 81 1054 z "},"ĺ":{"ha":324,"x_min":73,"x_max":302,"o":"m 274 0 q 130 50 179 0 q 81 190 81 99 l 81 959 l 178 959 l 178 194 q 277 84 178 84 l 297 84 l 297 0 l 274 0 m 73 1054 l 201 1233 l 302 1233 l 152 1054 l 73 1054 z "},"Ļ":{"ha":543,"x_min":83,"x_max":510,"o":"m 83 0 l 83 959 l 184 959 l 184 91 l 510 91 l 510 0 l 83 0 m 227 -235 l 227 -54 l 316 -54 l 316 -159 l 227 -235 z "},"ļ":{"ha":324,"x_min":81,"x_max":297,"o":"m 274 0 q 130 50 179 0 q 81 190 81 99 l 81 959 l 178 959 l 178 194 q 277 84 178 84 l 297 84 l 297 0 l 274 0 m 118 -235 l 118 -54 l 208 -54 l 208 -159 l 118 -235 z "},"Ľ":{"ha":543,"x_min":83,"x_max":510,"o":"m 83 0 l 83 959 l 184 959 l 184 91 l 510 91 l 510 0 l 83 0 m 275 723 l 275 959 l 357 959 l 357 798 l 275 723 z "},"ľ":{"ha":324,"x_min":81,"x_max":355,"o":"m 274 0 q 130 50 179 0 q 81 190 81 99 l 81 959 l 178 959 l 178 194 q 277 84 178 84 l 297 84 l 297 0 l 274 0 m 274 723 l 274 959 l 355 959 l 355 798 l 274 723 z "},"Ł":{"ha":543,"x_min":30,"x_max":510,"o":"m 30 475 l 31 553 l 83 572 l 83 959 l 184 959 l 184 612 l 283 648 l 283 570 l 184 533 l 184 91 l 510 91 l 510 0 l 83 0 l 83 495 l 30 475 z "},"ł":{"ha":324,"x_min":37,"x_max":297,"o":"m 37 477 l 37 556 l 81 572 l 81 959 l 178 959 l 178 609 l 250 636 l 250 557 l 178 530 l 178 194 q 277 84 178 84 l 297 84 l 297 0 l 274 0 q 130 50 179 0 q 81 190 81 99 l 81 494 l 37 477 z "},"Ń":{"ha":697,"x_min":83,"x_max":614,"o":"m 83 0 l 83 959 l 184 959 l 513 221 l 513 959 l 614 959 l 614 0 l 513 0 l 184 736 l 184 0 l 83 0 m 259 1054 l 387 1233 l 488 1233 l 338 1054 l 259 1054 z "},"ń":{"ha":576,"x_min":81,"x_max":496,"o":"m 81 0 l 81 718 l 174 718 l 174 652 q 232 709 194 688 q 315 730 270 730 q 448 675 399 730 q 496 519 496 620 l 496 0 l 401 0 l 401 515 q 371 611 401 578 q 289 644 340 644 q 208 610 239 644 q 176 515 176 576 l 176 0 l 81 0 m 198 800 l 326 979 l 427 979 l 277 800 l 198 800 z "},"Ņ":{"ha":697,"x_min":83,"x_max":614,"o":"m 83 0 l 83 959 l 184 959 l 513 221 l 513 959 l 614 959 l 614 0 l 513 0 l 184 736 l 184 0 l 83 0 m 304 -235 l 304 -54 l 393 -54 l 393 -159 l 304 -235 z "},"ņ":{"ha":576,"x_min":81,"x_max":496,"o":"m 81 0 l 81 718 l 174 718 l 174 652 q 232 709 194 688 q 315 730 270 730 q 448 675 399 730 q 496 519 496 620 l 496 0 l 401 0 l 401 515 q 371 611 401 578 q 289 644 340 644 q 208 610 239 644 q 176 515 176 576 l 176 0 l 81 0 m 243 -235 l 243 -54 l 332 -54 l 332 -159 l 243 -235 z "},"Ň":{"ha":697,"x_min":83,"x_max":614,"o":"m 83 0 l 83 959 l 184 959 l 513 221 l 513 959 l 614 959 l 614 0 l 513 0 l 184 736 l 184 0 l 83 0 m 301 1054 l 167 1252 l 260 1252 l 349 1127 l 437 1252 l 529 1252 l 391 1054 l 301 1054 z "},"ň":{"ha":576,"x_min":81,"x_max":496,"o":"m 81 0 l 81 718 l 174 718 l 174 652 q 232 709 194 688 q 315 730 270 730 q 448 675 399 730 q 496 519 496 620 l 496 0 l 401 0 l 401 515 q 371 611 401 578 q 289 644 340 644 q 208 610 239 644 q 176 515 176 576 l 176 0 l 81 0 m 241 800 l 107 998 l 201 998 l 289 873 l 377 998 l 469 998 l 331 800 l 241 800 z "},"Ŋ":{"ha":697,"x_min":83,"x_max":614,"o":"m 399 -235 l 399 -151 l 419 -151 q 473 -140 453 -151 q 503 -96 494 -129 q 513 -1 513 -64 l 513 0 l 184 736 l 184 0 l 83 0 l 83 959 l 184 959 l 513 221 l 513 959 l 614 959 l 614 -45 q 566 -185 614 -136 q 422 -235 517 -235 l 399 -235 z "},"ŋ":{"ha":576,"x_min":81,"x_max":496,"o":"m 281 -235 l 281 -151 l 301 -151 q 401 -41 404 -151 l 401 515 q 371 611 401 578 q 289 644 340 644 q 208 610 239 644 q 176 515 176 576 l 176 0 l 81 0 l 81 718 l 174 718 l 174 652 q 232 709 194 688 q 315 730 270 730 q 448 675 399 730 q 496 519 496 620 l 496 -45 q 448 -185 496 -136 q 304 -235 399 -235 l 281 -235 z "},"Ō":{"ha":663,"x_min":72,"x_max":591,"o":"m 332 -11 q 144 62 216 -11 q 72 279 72 134 l 72 680 q 143 900 72 829 q 332 971 214 971 q 522 898 452 971 q 591 680 591 825 l 591 279 q 520 62 591 136 q 332 -11 449 -11 m 174 278 q 334 80 174 81 q 449 129 408 80 q 490 278 490 178 l 490 670 q 449 828 490 777 q 334 879 408 879 q 174 670 174 879 l 174 278 m 170 1074 l 170 1160 l 491 1160 l 491 1074 l 170 1074 z "},"ō":{"ha":567,"x_min":69,"x_max":499,"o":"m 286 -11 q 126 48 183 -11 q 69 233 69 107 l 69 484 q 126 670 69 610 q 286 730 183 730 q 442 671 385 730 q 499 484 499 612 l 499 233 q 442 49 499 109 q 286 -11 385 -11 m 164 244 q 195 112 164 151 q 285 73 227 73 q 374 113 343 73 q 404 244 404 152 l 404 473 q 374 605 404 566 q 285 644 345 644 q 195 606 227 644 q 164 473 164 567 l 164 244 m 122 821 l 122 906 l 444 906 l 444 821 l 122 821 z "},"Ŏ":{"ha":663,"x_min":72,"x_max":591,"o":"m 332 -11 q 144 62 216 -11 q 72 279 72 134 l 72 680 q 143 900 72 829 q 332 971 214 971 q 522 898 452 971 q 591 680 591 825 l 591 279 q 520 62 591 136 q 332 -11 449 -11 m 174 278 q 334 80 174 81 q 449 129 408 80 q 490 278 490 178 l 490 670 q 449 828 490 777 q 334 879 408 879 q 174 670 174 879 l 174 278 m 332 1024 q 204 1072 248 1024 q 160 1206 160 1119 l 160 1230 l 250 1230 l 250 1206 q 332 1105 250 1105 q 415 1206 415 1105 l 415 1230 l 505 1230 l 505 1206 q 460 1072 505 1119 q 332 1024 416 1024 z "},"ŏ":{"ha":567,"x_min":69,"x_max":499,"o":"m 286 -11 q 126 48 183 -11 q 69 233 69 107 l 69 484 q 126 670 69 610 q 286 730 183 730 q 442 671 385 730 q 499 484 499 612 l 499 233 q 442 49 499 109 q 286 -11 385 -11 m 164 244 q 195 112 164 151 q 285 73 227 73 q 374 113 343 73 q 404 244 404 152 l 404 473 q 374 605 404 566 q 285 644 345 644 q 195 606 227 644 q 164 473 164 567 l 164 244 m 286 793 q 158 841 202 793 q 114 975 114 888 l 114 1000 l 203 1000 l 203 975 q 286 875 203 875 q 369 975 369 875 l 369 1000 l 458 1000 l 458 975 q 414 841 458 888 q 286 793 370 793 z "},"Ő":{"ha":663,"x_min":72,"x_max":616,"o":"m 332 -11 q 144 62 216 -11 q 72 279 72 134 l 72 680 q 143 900 72 829 q 332 971 214 971 q 522 898 452 971 q 591 680 591 825 l 591 279 q 520 62 591 136 q 332 -11 449 -11 m 174 278 q 334 80 174 81 q 449 129 408 80 q 490 278 490 178 l 490 670 q 449 828 490 777 q 334 879 408 879 q 174 670 174 879 l 174 278 m 197 1054 l 323 1233 l 426 1233 l 275 1054 l 197 1054 m 387 1054 l 513 1233 l 616 1233 l 465 1054 l 387 1054 z "},"ő":{"ha":567,"x_min":69,"x_max":567,"o":"m 286 -11 q 126 48 183 -11 q 69 233 69 107 l 69 484 q 126 670 69 610 q 286 730 183 730 q 442 671 385 730 q 499 484 499 612 l 499 233 q 442 49 499 109 q 286 -11 385 -11 m 164 244 q 195 112 164 151 q 285 73 227 73 q 374 113 343 73 q 404 244 404 152 l 404 473 q 374 605 404 566 q 285 644 345 644 q 195 606 227 644 q 164 473 164 567 l 164 244 m 148 800 l 274 979 l 377 979 l 227 800 l 148 800 m 338 800 l 464 979 l 567 979 l 416 800 l 338 800 z "},"Œ":{"ha":948,"x_min":72,"x_max":899,"o":"m 324 -11 q 140 61 209 -11 q 72 279 72 133 l 72 681 q 140 901 72 830 q 324 972 209 972 q 500 906 435 972 l 500 959 l 899 959 l 899 868 l 590 868 l 590 533 l 853 533 l 853 442 l 590 442 l 590 91 l 899 91 l 899 0 l 500 0 l 500 58 q 324 -11 438 -11 m 174 278 q 334 80 174 81 q 449 129 408 80 q 490 278 490 178 l 490 671 q 449 829 490 779 q 334 880 408 880 q 174 671 174 880 l 174 278 z "},"œ":{"ha":902,"x_min":69,"x_max":833,"o":"m 286 -11 q 126 48 183 -11 q 69 233 69 107 l 69 484 q 126 670 69 610 q 286 730 183 730 q 453 655 403 730 q 618 730 507 727 q 776 665 719 730 q 833 476 833 600 l 833 332 l 499 332 l 499 245 q 532 110 499 149 q 624 71 566 71 q 709 106 680 71 q 739 214 739 141 l 739 220 l 831 220 l 831 216 q 777 47 831 104 q 621 -11 722 -11 q 453 61 509 -11 q 286 -11 397 -11 m 164 244 q 195 112 164 151 q 285 73 227 73 q 374 113 343 73 q 404 244 404 152 l 404 473 q 374 605 404 566 q 285 644 345 644 q 195 606 227 644 q 164 473 164 567 l 164 244 m 499 404 l 739 404 l 739 476 q 709 606 739 568 q 620 644 680 644 q 530 606 562 644 q 499 473 499 567 l 499 404 z "},"Ŕ":{"ha":647,"x_min":83,"x_max":605,"o":"m 83 0 l 83 959 l 336 959 q 519 892 461 959 q 578 688 578 825 q 437 435 578 483 l 605 0 l 498 0 l 339 419 l 184 419 l 184 0 l 83 0 m 184 509 l 335 509 q 442 553 408 509 q 476 688 476 598 q 444 824 476 780 q 335 868 411 868 l 184 868 l 184 509 m 233 1054 l 361 1233 l 463 1233 l 312 1054 l 233 1054 z "},"ŕ":{"ha":401,"x_min":81,"x_max":374,"o":"m 81 0 l 81 718 l 174 718 l 174 647 q 236 710 197 690 q 324 730 275 730 q 374 724 357 730 l 374 632 q 305 644 336 644 q 212 608 247 644 q 176 510 176 571 l 176 0 l 81 0 m 111 800 l 239 979 l 340 979 l 190 800 l 111 800 z "},"Ŗ":{"ha":647,"x_min":83,"x_max":605,"o":"m 83 0 l 83 959 l 336 959 q 519 892 461 959 q 578 688 578 825 q 437 435 578 483 l 605 0 l 498 0 l 339 419 l 184 419 l 184 0 l 83 0 m 184 509 l 335 509 q 442 553 408 509 q 476 688 476 598 q 444 824 476 780 q 335 868 411 868 l 184 868 l 184 509 m 278 -235 l 278 -54 l 368 -54 l 368 -159 l 278 -235 z "},"ŗ":{"ha":401,"x_min":81,"x_max":374,"o":"m 81 0 l 81 718 l 174 718 l 174 647 q 236 710 197 690 q 324 730 275 730 q 374 724 357 730 l 374 632 q 305 644 336 644 q 212 608 247 644 q 176 510 176 571 l 176 0 l 81 0 m 85 -235 l 85 -54 l 175 -54 l 175 -159 l 85 -235 z "},"Ř":{"ha":647,"x_min":83,"x_max":605,"o":"m 83 0 l 83 959 l 336 959 q 519 892 461 959 q 578 688 578 825 q 437 435 578 483 l 605 0 l 498 0 l 339 419 l 184 419 l 184 0 l 83 0 m 184 509 l 335 509 q 442 553 408 509 q 476 688 476 598 q 444 824 476 780 q 335 868 411 868 l 184 868 l 184 509 m 277 1054 l 142 1252 l 236 1252 l 324 1127 l 412 1252 l 505 1252 l 366 1054 l 277 1054 z "},"ř":{"ha":401,"x_min":19,"x_max":381,"o":"m 81 0 l 81 718 l 174 718 l 174 647 q 236 710 197 690 q 324 730 275 730 q 374 724 357 730 l 374 632 q 305 644 336 644 q 212 608 247 644 q 176 510 176 571 l 176 0 l 81 0 m 153 800 l 19 998 l 113 998 l 201 873 l 289 998 l 381 998 l 243 800 l 153 800 z "},"Ś":{"ha":591,"x_min":37,"x_max":541,"o":"m 288 -9 q 102 60 165 -9 q 37 263 39 130 l 37 279 l 134 279 l 134 263 q 178 124 138 168 q 292 80 217 80 q 404 122 366 80 q 441 252 441 164 q 407 368 441 328 q 290 442 373 408 l 235 464 q 93 561 140 503 q 46 716 46 618 q 111 901 46 830 q 293 972 175 972 q 467 907 404 972 q 536 713 530 842 l 536 680 l 441 680 l 441 713 q 292 882 430 882 q 183 840 218 882 q 148 722 148 798 q 180 616 148 655 q 292 545 213 576 l 349 524 q 492 425 444 486 q 541 254 541 365 q 476 58 541 126 q 288 -9 411 -9 m 206 1054 l 334 1233 l 435 1233 l 285 1054 l 206 1054 z "},"ś":{"ha":530,"x_min":56,"x_max":481,"o":"m 266 -11 q 111 45 167 -11 q 56 193 56 100 l 56 201 l 142 201 l 142 193 q 176 103 142 134 q 269 72 210 72 q 356 100 324 72 q 388 187 388 129 q 366 260 388 235 q 290 308 343 286 l 199 346 q 62 533 62 403 q 117 675 62 621 q 270 730 172 730 q 420 675 366 730 q 473 529 473 621 l 473 511 l 387 511 l 387 519 q 357 613 387 579 q 269 647 327 647 q 188 619 218 647 q 157 540 157 591 q 176 475 157 502 q 244 426 195 449 l 335 389 q 445 317 408 359 q 481 194 481 274 q 422 42 481 95 q 266 -11 363 -11 m 176 800 l 304 979 l 406 979 l 255 800 l 176 800 z "},"Ŝ":{"ha":591,"x_min":37,"x_max":541,"o":"m 288 -9 q 102 60 165 -9 q 37 263 39 130 l 37 279 l 134 279 l 134 263 q 178 124 138 168 q 292 80 217 80 q 404 122 366 80 q 441 252 441 164 q 407 368 441 328 q 290 442 373 408 l 235 464 q 93 561 140 503 q 46 716 46 618 q 111 901 46 830 q 293 972 175 972 q 467 907 404 972 q 536 713 530 842 l 536 680 l 441 680 l 441 713 q 292 882 430 882 q 183 840 218 882 q 148 722 148 798 q 180 616 148 655 q 292 545 213 576 l 349 524 q 492 425 444 486 q 541 254 541 365 q 476 58 541 126 q 288 -9 411 -9 m 113 1020 l 247 1218 l 336 1218 l 475 1020 l 382 1020 l 294 1145 l 205 1020 l 113 1020 z "},"ŝ":{"ha":530,"x_min":56,"x_max":481,"o":"m 266 -11 q 111 45 167 -11 q 56 193 56 100 l 56 201 l 142 201 l 142 193 q 176 103 142 134 q 269 72 210 72 q 356 100 324 72 q 388 187 388 129 q 366 260 388 235 q 290 308 343 286 l 199 346 q 62 533 62 403 q 117 675 62 621 q 270 730 172 730 q 420 675 366 730 q 473 529 473 621 l 473 511 l 387 511 l 387 519 q 357 613 387 579 q 269 647 327 647 q 188 619 218 647 q 157 540 157 591 q 176 475 157 502 q 244 426 195 449 l 335 389 q 445 317 408 359 q 481 194 481 274 q 422 42 481 95 q 266 -11 363 -11 m 90 789 l 224 987 l 313 987 l 452 789 l 359 789 l 271 914 l 182 789 l 90 789 z "},"Ş":{"ha":591,"x_min":37,"x_max":541,"o":"m 288 -9 q 102 60 165 -9 q 37 263 39 130 l 37 279 l 134 279 l 134 263 q 178 124 138 168 q 292 80 217 80 q 404 122 366 80 q 441 252 441 164 q 407 368 441 328 q 290 442 373 408 l 235 464 q 93 561 140 503 q 46 716 46 618 q 111 901 46 830 q 293 972 175 972 q 467 907 404 972 q 536 713 530 842 l 536 680 l 441 680 l 441 713 q 292 882 430 882 q 183 840 218 882 q 148 722 148 798 q 180 616 148 655 q 292 545 213 576 l 349 524 q 492 425 444 486 q 541 254 541 365 q 476 58 541 126 q 288 -9 411 -9 m 203 -212 l 300 16 l 391 16 l 309 -212 l 203 -212 z "},"ş":{"ha":530,"x_min":56,"x_max":481,"o":"m 266 -11 q 111 45 167 -11 q 56 193 56 100 l 56 201 l 142 201 l 142 193 q 176 103 142 134 q 269 72 210 72 q 356 100 324 72 q 388 187 388 129 q 366 260 388 235 q 290 308 343 286 l 199 346 q 62 533 62 403 q 117 675 62 621 q 270 730 172 730 q 420 675 366 730 q 473 529 473 621 l 473 511 l 387 511 l 387 519 q 357 613 387 579 q 269 647 327 647 q 188 619 218 647 q 157 540 157 591 q 176 475 157 502 q 244 426 195 449 l 335 389 q 445 317 408 359 q 481 194 481 274 q 422 42 481 95 q 266 -11 363 -11 m 165 -212 l 262 16 l 353 16 l 271 -212 l 165 -212 z "},"Š":{"ha":591,"x_min":37,"x_max":541,"o":"m 288 -9 q 102 60 165 -9 q 37 263 39 130 l 37 279 l 134 279 l 134 263 q 178 124 138 168 q 292 80 217 80 q 404 122 366 80 q 441 252 441 164 q 407 368 441 328 q 290 442 373 408 l 235 464 q 93 561 140 503 q 46 716 46 618 q 111 901 46 830 q 293 972 175 972 q 467 907 404 972 q 536 713 530 842 l 536 680 l 441 680 l 441 713 q 292 882 430 882 q 183 840 218 882 q 148 722 148 798 q 180 616 148 655 q 292 545 213 576 l 349 524 q 492 425 444 486 q 541 254 541 365 q 476 58 541 126 q 288 -9 411 -9 m 243 1040 l 109 1238 l 202 1238 l 290 1114 l 378 1238 l 471 1238 l 332 1040 l 243 1040 z "},"š":{"ha":530,"x_min":56,"x_max":481,"o":"m 266 -11 q 111 45 167 -11 q 56 193 56 100 l 56 201 l 142 201 l 142 193 q 176 103 142 134 q 269 72 210 72 q 356 100 324 72 q 388 187 388 129 q 366 260 388 235 q 290 308 343 286 l 199 346 q 62 533 62 403 q 117 675 62 621 q 270 730 172 730 q 420 675 366 730 q 473 529 473 621 l 473 511 l 387 511 l 387 519 q 357 613 387 579 q 269 647 327 647 q 188 619 218 647 q 157 540 157 591 q 176 475 157 502 q 244 426 195 449 l 335 389 q 445 317 408 359 q 481 194 481 274 q 422 42 481 95 q 266 -11 363 -11 m 218 800 l 84 998 l 178 998 l 266 873 l 354 998 l 446 998 l 308 800 l 218 800 z "},"Ţ":{"ha":510,"x_min":8,"x_max":503,"o":"m 206 0 l 206 868 l 8 868 l 8 959 l 503 959 l 503 868 l 305 868 l 305 0 l 206 0 m 118 -212 l 214 16 l 305 16 l 224 -212 l 118 -212 z "},"ţ":{"ha":410,"x_min":38,"x_max":361,"o":"m 327 0 q 129 189 130 0 l 129 644 l 38 644 l 38 718 l 129 718 l 129 868 l 224 911 l 224 718 l 361 718 l 361 644 l 224 644 l 224 193 q 331 83 224 83 l 350 83 l 350 0 l 327 0 m 149 -212 l 245 16 l 336 16 l 255 -212 l 149 -212 z "},"Ť":{"ha":510,"x_min":8,"x_max":503,"o":"m 206 0 l 206 868 l 8 868 l 8 959 l 503 959 l 503 868 l 305 868 l 305 0 l 206 0 m 208 1054 l 73 1252 l 167 1252 l 255 1127 l 343 1252 l 435 1252 l 297 1054 l 208 1054 z "},"ť":{"ha":410,"x_min":38,"x_max":393,"o":"m 327 0 q 129 189 130 0 l 129 644 l 38 644 l 38 718 l 129 718 l 129 868 l 224 911 l 224 718 l 361 718 l 361 644 l 224 644 l 224 193 q 331 83 224 83 l 350 83 l 350 0 l 327 0 m 312 723 l 312 959 l 393 959 l 393 798 l 312 723 z "},"Ŧ":{"ha":510,"x_min":8,"x_max":503,"o":"m 206 0 l 206 868 l 8 868 l 8 959 l 503 959 l 503 868 l 305 868 l 305 0 l 206 0 m 92 441 l 92 526 l 414 526 l 414 441 l 92 441 z "},"ŧ":{"ha":410,"x_min":38,"x_max":361,"o":"m 38 450 l 38 526 l 129 526 l 129 644 l 38 644 l 38 718 l 129 718 l 129 868 l 224 911 l 224 718 l 361 718 l 361 644 l 224 644 l 224 526 l 361 526 l 361 450 l 224 450 l 224 193 q 331 83 224 83 l 350 83 l 350 0 l 327 0 q 129 189 130 0 l 129 450 l 38 450 z "},"Ũ":{"ha":666,"x_min":83,"x_max":583,"o":"m 334 -11 q 206 21 263 -11 q 116 111 149 53 q 83 244 83 168 l 83 959 l 184 959 l 184 250 q 224 124 184 168 q 334 80 264 80 q 442 125 403 80 q 481 250 481 171 l 481 959 l 583 959 l 583 244 q 514 58 583 127 q 334 -11 445 -11 m 183 1021 l 183 1120 q 226 1158 208 1147 q 270 1168 244 1168 q 306 1162 290 1168 q 339 1143 321 1156 q 373 1124 358 1131 q 406 1118 388 1118 q 441 1128 426 1118 q 483 1169 457 1139 l 483 1073 q 443 1036 461 1047 q 397 1025 425 1025 q 360 1032 376 1025 q 321 1051 345 1039 q 291 1068 302 1062 q 266 1074 279 1074 q 226 1063 243 1074 q 183 1021 209 1051 z "},"ũ":{"ha":576,"x_min":81,"x_max":496,"o":"m 289 -11 q 81 221 81 -11 l 81 718 l 176 718 l 176 285 q 200 122 176 171 q 290 73 224 73 q 359 92 335 73 q 392 157 382 111 q 401 285 401 203 l 401 718 l 496 718 l 496 221 q 289 -11 496 -11 m 137 791 l 137 890 q 180 927 161 917 q 224 937 198 937 q 260 931 244 937 q 293 913 275 925 q 327 894 312 901 q 359 887 342 887 q 395 898 380 887 q 437 939 411 909 l 437 842 q 397 806 415 817 q 351 795 378 795 q 314 802 330 795 q 275 821 298 808 q 245 838 256 831 q 220 844 233 844 q 180 832 197 844 q 137 791 163 821 z "},"Ū":{"ha":666,"x_min":83,"x_max":583,"o":"m 334 -11 q 206 21 263 -11 q 116 111 149 53 q 83 244 83 168 l 83 959 l 184 959 l 184 250 q 224 124 184 168 q 334 80 264 80 q 442 125 403 80 q 481 250 481 171 l 481 959 l 583 959 l 583 244 q 514 58 583 127 q 334 -11 445 -11 m 172 1074 l 172 1160 l 494 1160 l 494 1074 l 172 1074 z "},"ū":{"ha":576,"x_min":81,"x_max":496,"o":"m 289 -11 q 81 221 81 -11 l 81 718 l 176 718 l 176 285 q 200 122 176 171 q 290 73 224 73 q 359 92 335 73 q 392 157 382 111 q 401 285 401 203 l 401 718 l 496 718 l 496 221 q 289 -11 496 -11 m 126 821 l 126 906 l 448 906 l 448 821 l 126 821 z "},"Ŭ":{"ha":666,"x_min":83,"x_max":583,"o":"m 334 -11 q 206 21 263 -11 q 116 111 149 53 q 83 244 83 168 l 83 959 l 184 959 l 184 250 q 224 124 184 168 q 334 80 264 80 q 442 125 403 80 q 481 250 481 171 l 481 959 l 583 959 l 583 244 q 514 58 583 127 q 334 -11 445 -11 m 332 1008 q 204 1055 248 1008 q 160 1190 160 1103 l 160 1214 l 250 1214 l 250 1190 q 332 1089 250 1089 q 415 1190 415 1089 l 415 1214 l 505 1214 l 505 1190 q 460 1055 505 1103 q 332 1008 416 1008 z "},"ŭ":{"ha":576,"x_min":81,"x_max":496,"o":"m 289 -11 q 81 221 81 -11 l 81 718 l 176 718 l 176 285 q 200 122 176 171 q 290 73 224 73 q 359 92 335 73 q 392 157 382 111 q 401 285 401 203 l 401 718 l 496 718 l 496 221 q 289 -11 496 -11 m 292 777 q 163 825 208 777 q 119 959 119 872 l 119 983 l 209 983 l 209 959 q 292 859 209 859 q 374 959 374 859 l 374 983 l 464 983 l 464 959 q 420 825 464 872 q 292 777 376 777 z "},"Ů":{"ha":666,"x_min":83,"x_max":583,"o":"m 334 -11 q 206 21 263 -11 q 116 111 149 53 q 83 244 83 168 l 83 959 l 184 959 l 184 250 q 224 124 184 168 q 334 80 264 80 q 442 125 403 80 q 481 250 481 171 l 481 959 l 583 959 l 583 244 q 514 58 583 127 q 334 -11 445 -11 m 332 1013 q 245 1049 281 1013 q 210 1137 210 1085 q 244 1225 210 1188 q 332 1261 278 1261 q 422 1225 388 1261 q 457 1137 457 1188 q 422 1048 457 1084 q 332 1013 388 1013 m 266 1137 q 284 1087 266 1107 q 332 1067 302 1067 q 381 1086 362 1067 q 400 1137 400 1105 q 382 1188 400 1168 q 332 1208 363 1208 q 284 1188 302 1208 q 266 1137 266 1168 z "},"ů":{"ha":576,"x_min":81,"x_max":496,"o":"m 289 -11 q 81 221 81 -11 l 81 718 l 176 718 l 176 285 q 200 122 176 171 q 290 73 224 73 q 359 92 335 73 q 392 157 382 111 q 401 285 401 203 l 401 718 l 496 718 l 496 221 q 289 -11 496 -11 m 286 772 q 199 808 235 772 q 164 895 164 844 q 198 983 164 947 q 286 1020 232 1020 q 376 983 342 1020 q 411 895 411 947 q 376 807 411 842 q 286 772 342 772 m 220 895 q 238 846 220 865 q 286 826 256 826 q 335 845 316 826 q 354 895 354 864 q 336 947 354 926 q 286 967 317 967 q 238 947 256 967 q 220 895 220 926 z "},"Ű":{"ha":666,"x_min":83,"x_max":617,"o":"m 334 -11 q 206 21 263 -11 q 116 111 149 53 q 83 244 83 168 l 83 959 l 184 959 l 184 250 q 224 124 184 168 q 334 80 264 80 q 442 125 403 80 q 481 250 481 171 l 481 959 l 583 959 l 583 244 q 514 58 583 127 q 334 -11 445 -11 m 198 1054 l 324 1233 l 427 1233 l 277 1054 l 198 1054 m 388 1054 l 514 1233 l 617 1233 l 467 1054 l 388 1054 z "},"ű":{"ha":576,"x_min":81,"x_max":572,"o":"m 289 -11 q 81 221 81 -11 l 81 718 l 176 718 l 176 285 q 200 122 176 171 q 290 73 224 73 q 359 92 335 73 q 392 157 382 111 q 401 285 401 203 l 401 718 l 496 718 l 496 221 q 289 -11 496 -11 m 153 800 l 279 979 l 382 979 l 232 800 l 153 800 m 343 800 l 469 979 l 572 979 l 422 800 l 343 800 z "},"Ų":{"ha":666,"x_min":83,"x_max":583,"o":"m 415 -294 q 297 -199 340 -292 q 277 -144 285 -175 q 263 -76 270 -114 l 338 -11 q 334 -11 335 -11 q 206 21 263 -11 q 116 111 149 53 q 83 244 83 168 l 83 959 l 184 959 l 184 250 q 224 124 184 168 q 334 80 264 80 q 442 125 403 80 q 481 250 481 171 l 481 959 l 583 959 l 583 244 q 536 85 583 149 q 411 -1 490 20 l 328 -109 q 367 -160 343 -144 q 415 -179 391 -176 l 415 -294 z "},"ų":{"ha":576,"x_min":81,"x_max":496,"o":"m 361 -294 q 243 -199 286 -292 q 223 -144 231 -175 q 209 -76 216 -114 l 283 -11 q 81 221 81 -8 l 81 718 l 176 718 l 176 285 q 200 122 176 171 q 290 73 224 73 q 359 92 335 73 q 392 157 382 111 q 401 285 401 203 l 401 718 l 496 718 l 496 221 q 358 -3 496 31 l 274 -109 q 313 -160 289 -144 q 361 -179 336 -176 l 361 -294 z "},"Ŵ":{"ha":909,"x_min":12,"x_max":898,"o":"m 201 0 l 12 959 l 118 959 l 256 153 l 392 959 l 525 959 l 661 153 l 798 959 l 898 959 l 711 0 l 602 0 l 456 808 l 309 0 l 201 0 m 274 1043 l 408 1241 l 498 1241 l 636 1043 l 544 1043 l 456 1168 l 366 1043 l 274 1043 z "},"ŵ":{"ha":800,"x_min":20,"x_max":780,"o":"m 183 0 l 20 718 l 123 718 l 232 153 l 358 718 l 439 718 l 568 153 l 677 718 l 780 718 l 616 0 l 525 0 l 399 543 l 275 0 l 183 0 m 220 789 l 354 987 l 444 987 l 582 789 l 490 789 l 401 914 l 312 789 l 220 789 z "},"Ŷ":{"ha":544,"x_min":12,"x_max":532,"o":"m 222 0 l 222 399 l 12 959 l 123 959 l 273 519 l 420 959 l 532 959 l 323 399 l 323 0 l 222 0 m 91 1043 l 225 1241 l 315 1241 l 453 1043 l 361 1043 l 273 1168 l 183 1043 l 91 1043 z "},"ŷ":{"ha":514,"x_min":20,"x_max":495,"o":"m 62 -214 l 62 -129 l 85 -129 q 169 -109 140 -129 q 210 -39 198 -90 l 216 -16 l 20 718 l 123 718 l 259 170 l 392 718 l 495 718 l 285 -68 q 214 -181 264 -148 q 76 -214 163 -214 l 62 -214 m 77 789 l 212 987 l 301 987 l 439 789 l 347 789 l 259 914 l 170 789 l 77 789 z "},"Ÿ":{"ha":544,"x_min":12,"x_max":532,"o":"m 222 0 l 222 399 l 12 959 l 123 959 l 273 519 l 420 959 l 532 959 l 323 399 l 323 0 l 222 0 m 119 1044 l 119 1164 l 224 1164 l 224 1044 l 119 1044 m 331 1044 l 331 1164 l 435 1164 l 435 1044 l 331 1044 z "},"Ź":{"ha":534,"x_min":42,"x_max":498,"o":"m 42 0 l 42 91 l 388 868 l 57 868 l 57 959 l 487 959 l 487 868 l 140 91 l 498 91 l 498 0 l 42 0 m 178 1054 l 305 1233 l 407 1233 l 256 1054 l 178 1054 z "},"ź":{"ha":522,"x_min":69,"x_max":453,"o":"m 69 0 l 69 85 l 351 632 l 69 632 l 69 718 l 453 718 l 453 632 l 171 85 l 453 85 l 453 0 l 69 0 m 171 800 l 298 979 l 400 979 l 250 800 l 171 800 z "},"Ż":{"ha":534,"x_min":42,"x_max":498,"o":"m 42 0 l 42 91 l 388 868 l 57 868 l 57 959 l 487 959 l 487 868 l 140 91 l 498 91 l 498 0 l 42 0 m 218 1080 l 218 1204 l 316 1204 l 316 1080 l 218 1080 z "},"ż":{"ha":522,"x_min":69,"x_max":453,"o":"m 69 0 l 69 85 l 351 632 l 69 632 l 69 718 l 453 718 l 453 632 l 171 85 l 453 85 l 453 0 l 69 0 m 213 826 l 213 951 l 311 951 l 311 826 l 213 826 z "},"Ž":{"ha":534,"x_min":42,"x_max":498,"o":"m 42 0 l 42 91 l 388 868 l 57 868 l 57 959 l 487 959 l 487 868 l 140 91 l 498 91 l 498 0 l 42 0 m 224 1040 l 90 1238 l 183 1238 l 271 1114 l 359 1238 l 452 1238 l 313 1040 l 224 1040 z "},"ž":{"ha":522,"x_min":69,"x_max":453,"o":"m 69 0 l 69 85 l 351 632 l 69 632 l 69 718 l 453 718 l 453 632 l 171 85 l 453 85 l 453 0 l 69 0 m 222 800 l 88 998 l 182 998 l 270 873 l 358 998 l 450 998 l 312 800 l 222 800 z "},"ƒ":{"ha":532,"x_min":14,"x_max":518,"o":"m 14 -212 l 14 -121 l 42 -121 q 101 -112 79 -121 q 136 -76 123 -103 q 157 7 149 -49 l 224 483 l 122 483 l 122 572 l 236 572 l 259 745 q 324 907 275 856 q 476 959 373 959 l 518 959 l 518 868 l 476 868 q 413 857 435 868 q 380 819 391 846 q 361 743 369 792 l 338 572 l 457 572 l 457 483 l 326 483 l 256 4 q 192 -161 243 -110 q 41 -212 141 -212 l 14 -212 z "},"ƚ":{"ha":324,"x_min":15,"x_max":297,"o":"m 15 438 l 15 528 l 81 528 l 81 959 l 178 959 l 178 528 l 289 528 l 289 438 l 178 438 l 178 194 q 277 84 178 84 l 297 84 l 297 0 l 274 0 q 130 50 179 0 q 81 190 81 99 l 81 438 l 15 438 z "},"Ɵ":{"ha":663,"x_min":72,"x_max":591,"o":"m 332 -11 q 144 62 216 -11 q 72 279 72 134 l 72 680 q 143 900 72 829 q 332 971 214 971 q 522 898 452 971 q 591 680 591 825 l 591 279 q 520 62 591 136 q 332 -11 449 -11 m 174 278 q 334 80 174 81 q 449 129 408 80 q 490 278 490 178 l 490 670 q 449 828 490 777 q 334 879 408 879 q 174 670 174 879 l 174 278 m 110 438 l 110 528 l 555 528 l 555 438 l 110 438 z "},"Ǎ":{"ha":640,"x_min":12,"x_max":628,"o":"m 12 0 l 274 959 l 366 959 l 628 0 l 521 0 l 460 244 l 179 244 l 118 0 l 12 0 m 201 332 l 438 332 l 320 806 l 201 332 m 273 1054 l 138 1252 l 232 1252 l 320 1127 l 408 1252 l 500 1252 l 362 1054 l 273 1054 z "},"ǎ":{"ha":556,"x_min":56,"x_max":475,"o":"m 239 -11 q 103 45 151 -11 q 56 203 56 100 q 111 355 56 301 q 270 410 167 410 l 381 410 l 381 525 q 270 646 381 646 q 190 617 217 646 q 163 540 163 589 l 163 529 l 73 529 l 73 541 q 126 679 73 628 q 270 730 179 730 q 422 675 370 730 q 475 521 475 621 l 475 0 l 385 0 l 385 66 q 239 -11 336 -11 m 151 205 q 262 71 151 72 q 349 105 316 71 q 381 206 381 140 l 381 339 l 279 339 q 151 205 151 339 m 231 800 l 96 998 l 190 998 l 278 873 l 366 998 l 458 998 l 320 800 l 231 800 z "},"Ǐ":{"ha":282,"x_min":-41,"x_max":321,"o":"m 92 0 l 92 959 l 191 959 l 191 0 l 92 0 m 94 1054 l -41 1252 l 53 1252 l 141 1127 l 229 1252 l 321 1252 l 183 1054 l 94 1054 z "},"ǐ":{"ha":275,"x_min":-43,"x_max":319,"o":"m 91 800 l -43 998 l 50 998 l 138 873 l 227 998 l 319 998 l 180 800 l 91 800 m 91 0 l 91 718 l 184 718 l 184 0 l 91 0 z "},"Ǒ":{"ha":663,"x_min":72,"x_max":591,"o":"m 332 -11 q 144 62 216 -11 q 72 279 72 134 l 72 680 q 143 900 72 829 q 332 971 214 971 q 522 898 452 971 q 591 680 591 825 l 591 279 q 520 62 591 136 q 332 -11 449 -11 m 174 278 q 334 80 174 81 q 449 129 408 80 q 490 278 490 178 l 490 670 q 449 828 490 777 q 334 879 408 879 q 174 670 174 879 l 174 278 m 285 1054 l 151 1252 l 244 1252 l 332 1127 l 420 1252 l 513 1252 l 374 1054 l 285 1054 z "},"ǒ":{"ha":567,"x_min":69,"x_max":499,"o":"m 286 -11 q 126 48 183 -11 q 69 233 69 107 l 69 484 q 126 670 69 610 q 286 730 183 730 q 442 671 385 730 q 499 484 499 612 l 499 233 q 442 49 499 109 q 286 -11 385 -11 m 164 244 q 195 112 164 151 q 285 73 227 73 q 374 113 343 73 q 404 244 404 152 l 404 473 q 374 605 404 566 q 285 644 345 644 q 195 606 227 644 q 164 473 164 567 l 164 244 m 236 800 l 102 998 l 195 998 l 283 873 l 372 998 l 464 998 l 326 800 l 236 800 z "},"Ǔ":{"ha":666,"x_min":83,"x_max":583,"o":"m 334 -11 q 206 21 263 -11 q 116 111 149 53 q 83 244 83 168 l 83 959 l 184 959 l 184 250 q 224 124 184 168 q 334 80 264 80 q 442 125 403 80 q 481 250 481 171 l 481 959 l 583 959 l 583 244 q 514 58 583 127 q 334 -11 445 -11 m 286 1054 l 152 1252 l 245 1252 l 334 1127 l 422 1252 l 514 1252 l 376 1054 l 286 1054 z "},"ǔ":{"ha":576,"x_min":81,"x_max":496,"o":"m 289 -11 q 81 221 81 -11 l 81 718 l 176 718 l 176 285 q 200 122 176 171 q 290 73 224 73 q 359 92 335 73 q 392 157 382 111 q 401 285 401 203 l 401 718 l 496 718 l 496 221 q 289 -11 496 -11 m 241 800 l 107 998 l 201 998 l 289 873 l 377 998 l 469 998 l 331 800 l 241 800 z "},"Ǧ":{"ha":663,"x_min":72,"x_max":591,"o":"m 334 -11 q 144 62 217 -11 q 72 279 72 134 l 72 680 q 143 898 72 825 q 334 971 214 971 q 521 903 450 971 q 591 705 591 834 l 591 689 l 490 689 l 490 705 q 448 833 490 788 q 334 879 406 879 q 174 670 174 879 l 174 278 q 334 80 174 81 q 448 127 407 80 q 490 274 490 175 l 490 407 l 332 407 l 332 491 l 591 491 l 591 278 q 520 61 591 133 q 334 -11 449 -11 m 285 1054 l 151 1252 l 244 1252 l 332 1127 l 420 1252 l 513 1252 l 374 1054 l 285 1054 z "},"ǧ":{"ha":571,"x_min":69,"x_max":490,"o":"m 279 -225 q 132 -176 183 -225 q 77 -43 80 -126 l 168 -43 q 199 -116 171 -90 q 279 -142 228 -142 q 368 -104 339 -142 q 396 14 396 -66 l 396 119 q 258 45 350 45 q 122 105 175 45 q 69 288 69 165 l 69 486 q 121 668 69 606 q 258 730 174 730 q 396 648 350 730 l 396 718 l 490 718 l 490 22 q 439 -159 490 -92 q 279 -225 388 -225 m 164 298 q 193 168 164 208 q 277 129 222 129 q 396 298 396 129 l 396 473 q 277 644 396 644 q 194 606 224 644 q 164 475 164 567 l 164 298 m 239 800 l 104 998 l 198 998 l 286 873 l 374 998 l 467 998 l 328 800 l 239 800 z "},"Ǩ":{"ha":640,"x_min":83,"x_max":632,"o":"m 83 0 l 83 959 l 184 959 l 184 425 l 491 959 l 598 959 l 368 568 l 632 0 l 521 0 l 307 465 l 184 256 l 184 0 l 83 0 m 273 1054 l 138 1252 l 232 1252 l 320 1127 l 408 1252 l 500 1252 l 362 1054 l 273 1054 z "},"ǩ":{"ha":567,"x_min":-49,"x_max":547,"o":"m 81 0 l 81 959 l 176 959 l 176 345 l 416 718 l 521 718 l 332 442 l 547 0 l 439 0 l 274 355 l 176 213 l 176 0 l 81 0 m 85 1054 l -49 1252 l 45 1252 l 133 1127 l 221 1252 l 313 1252 l 175 1054 l 85 1054 z "},"Ǫ":{"ha":663,"x_min":72,"x_max":591,"o":"m 332 -11 q 144 62 216 -11 q 72 279 72 134 l 72 680 q 143 900 72 829 q 332 971 214 971 q 522 898 452 971 q 591 680 591 825 l 591 279 q 520 62 591 136 q 332 -11 449 -11 m 174 278 q 334 80 174 81 q 449 129 408 80 q 490 278 490 178 l 490 670 q 449 828 490 777 q 334 879 408 879 q 174 670 174 879 l 174 278 m 376 -294 q 258 -199 301 -292 q 238 -144 245 -175 q 224 -76 231 -114 l 311 0 l 376 22 l 376 0 l 289 -109 q 328 -160 304 -144 q 376 -179 351 -176 l 376 -294 z "},"ǫ":{"ha":567,"x_min":69,"x_max":499,"o":"m 361 -294 q 243 -199 286 -292 q 223 -144 231 -175 q 209 -76 216 -114 l 283 -11 q 125 48 182 -11 q 69 233 69 107 l 69 484 q 126 670 69 610 q 286 730 183 730 q 442 671 385 730 q 499 484 499 612 l 499 233 q 463 76 499 134 q 359 -1 427 18 l 274 -109 q 313 -160 289 -144 q 361 -179 336 -176 l 361 -294 m 164 244 q 195 112 164 151 q 285 73 227 73 q 374 113 343 73 q 404 244 404 152 l 404 473 q 374 605 404 566 q 285 644 345 644 q 195 606 227 644 q 164 473 164 567 l 164 244 z "},"Ǭ":{"ha":663,"x_min":72,"x_max":591,"o":"m 179 1024 l 179 1109 l 500 1109 l 500 1024 l 179 1024 m 332 -11 q 144 62 216 -11 q 72 279 72 134 l 72 680 q 143 900 72 829 q 332 971 214 971 q 522 898 452 971 q 591 680 591 825 l 591 279 q 520 62 591 136 q 332 -11 449 -11 m 174 278 q 334 80 174 81 q 449 129 408 80 q 490 278 490 178 l 490 670 q 449 828 490 777 q 334 879 408 879 q 174 670 174 879 l 174 278 m 362 -294 q 244 -199 288 -292 q 224 -144 232 -175 q 210 -76 217 -114 l 297 0 l 362 22 l 362 0 l 275 -109 q 314 -160 290 -144 q 362 -179 338 -176 l 362 -294 z "},"ǭ":{"ha":567,"x_min":69,"x_max":499,"o":"m 361 -294 q 243 -199 286 -292 q 223 -144 231 -175 q 209 -76 216 -114 l 283 -11 q 125 48 182 -11 q 69 233 69 107 l 69 484 q 126 670 69 610 q 286 730 183 730 q 442 671 385 730 q 499 484 499 612 l 499 233 q 463 76 499 134 q 359 -1 427 18 l 274 -109 q 313 -160 289 -144 q 361 -179 336 -176 l 361 -294 m 164 244 q 195 112 164 151 q 285 73 227 73 q 374 113 343 73 q 404 244 404 152 l 404 473 q 374 605 404 566 q 285 644 345 644 q 195 606 227 644 q 164 473 164 567 l 164 244 m 110 821 l 110 906 l 431 906 l 431 821 l 110 821 z "},"ǰ":{"ha":270,"x_min":-46,"x_max":316,"o":"m -35 -212 l -35 -126 l -14 -126 q 84 -16 84 -126 l 84 718 l 180 718 l 180 -20 q 130 -163 180 -115 q -11 -212 80 -212 l -35 -212 m 88 800 l -46 998 l 47 998 l 136 873 l 224 998 l 316 998 l 178 800 l 88 800 z "},"Ǵ":{"ha":663,"x_min":72,"x_max":591,"o":"m 334 -11 q 144 62 217 -11 q 72 279 72 134 l 72 680 q 143 898 72 825 q 334 971 214 971 q 521 903 450 971 q 591 705 591 834 l 591 689 l 490 689 l 490 705 q 448 833 490 788 q 334 879 406 879 q 174 670 174 879 l 174 278 q 334 80 174 81 q 448 127 407 80 q 490 274 490 175 l 490 407 l 332 407 l 332 491 l 591 491 l 591 278 q 520 61 591 133 q 334 -11 449 -11 m 241 1054 l 369 1233 l 471 1233 l 320 1054 l 241 1054 z "},"ǵ":{"ha":571,"x_min":69,"x_max":490,"o":"m 279 -225 q 132 -176 183 -225 q 77 -43 80 -126 l 168 -43 q 199 -116 171 -90 q 279 -142 228 -142 q 368 -104 339 -142 q 396 14 396 -66 l 396 119 q 258 45 350 45 q 122 105 175 45 q 69 288 69 165 l 69 486 q 121 668 69 606 q 258 730 174 730 q 396 648 350 730 l 396 718 l 490 718 l 490 22 q 439 -159 490 -92 q 279 -225 388 -225 m 164 298 q 193 168 164 208 q 277 129 222 129 q 396 298 396 129 l 396 473 q 277 644 396 644 q 194 606 224 644 q 164 475 164 567 l 164 298 m 195 800 l 323 979 l 425 979 l 274 800 l 195 800 z "},"Ș":{"ha":591,"x_min":37,"x_max":541,"o":"m 288 -9 q 102 60 165 -9 q 37 263 39 130 l 37 279 l 134 279 l 134 263 q 178 124 138 168 q 292 80 217 80 q 404 122 366 80 q 441 252 441 164 q 407 368 441 328 q 290 442 373 408 l 235 464 q 93 561 140 503 q 46 716 46 618 q 111 901 46 830 q 293 972 175 972 q 467 907 404 972 q 536 713 530 842 l 536 680 l 441 680 l 441 713 q 292 882 430 882 q 183 840 218 882 q 148 722 148 798 q 180 616 148 655 q 292 545 213 576 l 349 524 q 492 425 444 486 q 541 254 541 365 q 476 58 541 126 q 288 -9 411 -9 m 251 -235 l 251 -54 l 340 -54 l 340 -159 l 251 -235 z "},"ș":{"ha":530,"x_min":56,"x_max":481,"o":"m 266 -11 q 111 45 167 -11 q 56 193 56 100 l 56 201 l 142 201 l 142 193 q 176 103 142 134 q 269 72 210 72 q 356 100 324 72 q 388 187 388 129 q 366 260 388 235 q 290 308 343 286 l 199 346 q 62 533 62 403 q 117 675 62 621 q 270 730 172 730 q 420 675 366 730 q 473 529 473 621 l 473 511 l 387 511 l 387 519 q 357 613 387 579 q 269 647 327 647 q 188 619 218 647 q 157 540 157 591 q 176 475 157 502 q 244 426 195 449 l 335 389 q 445 317 408 359 q 481 194 481 274 q 422 42 481 95 q 266 -11 363 -11 m 221 -235 l 221 -54 l 311 -54 l 311 -159 l 221 -235 z "},"Ț":{"ha":510,"x_min":8,"x_max":503,"o":"m 206 0 l 206 868 l 8 868 l 8 959 l 503 959 l 503 868 l 305 868 l 305 0 l 206 0 m 210 -235 l 210 -54 l 300 -54 l 300 -159 l 210 -235 z "},"ț":{"ha":410,"x_min":38,"x_max":361,"o":"m 327 0 q 129 189 130 0 l 129 644 l 38 644 l 38 718 l 129 718 l 129 868 l 224 911 l 224 718 l 361 718 l 361 644 l 224 644 l 224 193 q 331 83 224 83 l 350 83 l 350 0 l 327 0 m 214 -235 l 214 -54 l 304 -54 l 304 -159 l 214 -235 z "},"ȷ":{"ha":270,"x_min":-35,"x_max":180,"o":"m -35 -212 l -35 -126 l -14 -126 q 84 -16 84 -126 l 84 718 l 180 718 l 180 -20 q 130 -163 180 -115 q -11 -212 80 -212 l -35 -212 z "},"Ƚ":{"ha":543,"x_min":15,"x_max":510,"o":"m 83 0 l 83 959 l 184 959 l 184 91 l 510 91 l 510 0 l 83 0 m 15 492 l 15 582 l 397 582 l 397 492 l 15 492 z "},"ɵ":{"ha":567,"x_min":69,"x_max":499,"o":"m 286 -11 q 126 48 183 -11 q 69 233 69 107 l 69 484 q 126 670 69 610 q 286 730 183 730 q 442 671 385 730 q 499 484 499 612 l 499 233 q 442 49 499 109 q 286 -11 385 -11 m 164 244 q 195 112 164 151 q 285 73 227 73 q 374 113 343 73 q 404 244 404 152 l 404 473 q 374 605 404 566 q 285 644 345 644 q 195 606 227 644 q 164 473 164 567 l 164 244 m 91 316 l 91 406 l 473 406 l 473 316 l 91 316 z "},"ʼ":{"ha":0,"x_min":-47,"x_max":47,"o":"m -47 633 l -47 959 l 47 959 l 47 715 l -47 633 z "},"ˆ":{"ha":696,"x_min":167,"x_max":529,"o":"m 167 789 l 301 987 l 391 987 l 529 789 l 437 789 l 349 914 l 259 789 l 167 789 z "},"ˇ":{"ha":722,"x_min":180,"x_max":543,"o":"m 315 800 l 180 998 l 274 998 l 362 873 l 450 998 l 543 998 l 404 800 l 315 800 z "},"˘":{"ha":530,"x_min":92,"x_max":437,"o":"m 264 777 q 136 825 180 777 q 92 959 92 872 l 92 983 l 182 983 l 182 959 q 264 859 182 859 q 347 959 347 859 l 347 983 l 437 983 l 437 959 q 393 825 437 872 q 264 777 349 777 z "},"˙":{"ha":696,"x_min":300,"x_max":396,"o":"m 300 826 l 300 951 l 396 951 l 396 826 l 300 826 z "},"˚":{"ha":711,"x_min":232,"x_max":479,"o":"m 354 772 q 267 808 302 772 q 232 895 232 844 q 266 983 232 947 q 354 1020 300 1020 q 444 983 410 1020 q 479 895 479 947 q 444 807 479 842 q 354 772 410 772 m 288 895 q 307 846 288 865 q 354 826 326 826 q 403 845 384 826 q 422 895 422 864 q 404 947 422 926 q 354 967 385 967 q 306 947 324 967 q 288 895 288 926 z "},"˛":{"ha":530,"x_min":209,"x_max":361,"o":"m 361 -294 q 243 -199 286 -292 q 223 -144 231 -175 q 209 -76 216 -114 l 320 22 l 361 22 l 361 0 l 274 -109 q 313 -160 289 -144 q 361 -179 336 -176 l 361 -294 z "},"˜":{"ha":696,"x_min":198,"x_max":498,"o":"m 198 791 l 198 890 q 241 927 222 917 q 285 937 259 937 q 321 931 305 937 q 354 913 336 925 q 388 894 373 901 q 420 887 403 887 q 456 898 441 887 q 498 939 472 909 l 498 842 q 458 806 476 817 q 412 795 439 795 q 375 802 391 795 q 336 821 359 808 q 306 838 317 831 q 281 844 294 844 q 241 832 258 844 q 198 791 224 821 z "},"˝":{"ha":694,"x_min":212,"x_max":631,"o":"m 212 800 l 338 979 l 441 979 l 290 800 l 212 800 m 401 800 l 528 979 l 631 979 l 480 800 l 401 800 z "},"̀":{"ha":0,"x_min":-155,"x_max":75,"o":"m -3 800 l -155 979 l -52 979 l 75 800 l -3 800 z "},"́":{"ha":0,"x_min":-90,"x_max":140,"o":"m -90 800 l 38 979 l 140 979 l -11 800 l -90 800 z "},"̂":{"ha":0,"x_min":-180,"x_max":182,"o":"m -180 789 l -46 987 l 43 987 l 182 789 l 90 789 l 1 914 l -88 789 l -180 789 z "},"̃":{"ha":0,"x_min":-151,"x_max":149,"o":"m -151 791 l -151 890 q -108 927 -126 917 q -64 937 -90 937 q -28 931 -43 937 q 5 913 -12 925 q 39 894 24 901 q 72 887 54 887 q 108 898 92 887 q 149 939 123 909 l 149 842 q 109 806 127 817 q 64 795 91 795 q 26 802 42 795 q -12 821 11 808 q -43 838 -31 831 q -68 844 -54 844 q -108 832 -91 844 q -151 791 -125 821 z "},"̄":{"ha":0,"x_min":-161,"x_max":160,"o":"m -161 821 l -161 906 l 160 906 l 160 821 l -161 821 z "},"̆":{"ha":0,"x_min":-172,"x_max":172,"o":"m 0 777 q -128 825 -84 777 q -172 959 -172 872 l -172 983 l -83 983 l -83 959 q 0 859 -83 859 q 83 959 83 859 l 83 983 l 172 983 l 172 959 q 128 825 172 872 q 0 777 84 777 z "},"̇":{"ha":0,"x_min":-49,"x_max":49,"o":"m -49 826 l -49 951 l 49 951 l 49 826 l -49 826 z "},"̈":{"ha":0,"x_min":-159,"x_max":157,"o":"m -159 804 l -159 924 l -54 924 l -54 804 l -159 804 m 53 804 l 53 924 l 157 924 l 157 804 l 53 804 z "},"̊":{"ha":0,"x_min":-123,"x_max":123,"o":"m -1 772 q -88 808 -53 772 q -123 895 -123 844 q -90 983 -123 947 q -1 1020 -56 1020 q 89 983 54 1020 q 123 895 123 947 q 89 807 123 842 q -1 772 54 772 m -68 895 q -50 846 -68 865 q -1 826 -31 826 q 47 845 28 826 q 66 895 66 864 q 48 947 66 926 q -1 967 30 967 q -50 947 -31 967 q -68 895 -68 926 z "},"̋":{"ha":0,"x_min":-136,"x_max":283,"o":"m -136 800 l -9 979 l 94 979 l -57 800 l -136 800 m 54 800 l 180 979 l 283 979 l 133 800 l 54 800 z "},"̌":{"ha":0,"x_min":-182,"x_max":180,"o":"m -47 800 l -182 998 l -88 998 l 0 873 l 88 998 l 180 998 l 42 800 l -47 800 z "},"̒":{"ha":0,"x_min":-90,"x_max":140,"o":"m -90 800 l 61 979 l 140 979 l 12 800 l -90 800 z "},"̣":{"ha":0,"x_min":-49,"x_max":49,"o":"m -49 -241 l -49 -117 l 49 -117 l 49 -241 l -49 -241 z "},"̦":{"ha":0,"x_min":-45,"x_max":45,"o":"m -45 -235 l -45 -54 l 45 -54 l 45 -159 l -45 -235 z "},"̧":{"ha":0,"x_min":203,"x_max":391,"o":"m 203 -212 l 300 16 l 391 16 l 309 -212 l 203 -212 z "},"̨":{"ha":0,"x_min":-102,"x_max":50,"o":"m 50 -294 q -68 -199 -24 -292 q -87 -144 -80 -175 q -102 -76 -95 -114 l -15 0 l 50 22 l 50 0 l -37 -109 q 2 -160 -22 -144 q 50 -179 26 -176 l 50 -294 z "},"Α":{"ha":640,"x_min":12,"x_max":628,"o":"m 12 0 l 274 959 l 366 959 l 628 0 l 521 0 l 460 244 l 179 244 l 118 0 l 12 0 m 201 332 l 438 332 l 320 806 l 201 332 z "},"α":{"ha":686,"x_min":69,"x_max":617,"o":"m 286 -11 q 126 48 183 -11 q 69 233 69 107 l 69 484 q 126 670 69 610 q 286 730 183 730 q 395 707 349 730 q 468 636 442 684 q 532 687 496 675 q 617 700 567 699 l 617 616 q 522 575 543 616 q 502 463 502 534 l 502 255 q 524 140 502 176 q 617 102 547 104 l 617 19 q 527 33 571 19 q 468 83 483 46 q 419 41 449 64 q 355 4 389 19 q 286 -11 320 -11 m 164 244 q 195 112 164 151 q 285 73 227 73 q 374 113 343 73 q 404 244 404 152 l 404 473 q 374 605 404 566 q 285 644 345 644 q 195 606 227 644 q 164 473 164 567 l 164 244 z "},"Ѐ":{"ha":559,"x_min":83,"x_max":510,"o":"m 312 1031 l 160 1210 l 263 1210 l 389 1031 l 312 1031 m 83 0 l 83 959 l 510 959 l 510 868 l 183 868 l 183 533 l 464 533 l 464 442 l 183 442 l 183 91 l 510 91 l 510 0 l 83 0 z "},"Ё":{"ha":559,"x_min":83,"x_max":510,"o":"m 156 1035 l 156 1154 l 260 1154 l 260 1035 l 156 1035 m 368 1035 l 368 1154 l 472 1154 l 472 1035 l 368 1035 m 83 0 l 83 959 l 510 959 l 510 868 l 183 868 l 183 533 l 464 533 l 464 442 l 183 442 l 183 91 l 510 91 l 510 0 l 83 0 z "},"Ђ":{"ha":757,"x_min":8,"x_max":685,"o":"m 206 0 l 206 868 l 8 868 l 8 959 l 503 959 l 503 868 l 305 868 l 305 553 l 439 553 q 685 279 685 553 q 439 0 685 0 l 388 0 l 388 91 l 434 91 q 549 136 513 92 q 585 279 585 180 q 548 418 585 374 q 434 463 511 463 l 305 463 l 305 0 l 206 0 z "},"Ѓ":{"ha":551,"x_min":83,"x_max":510,"o":"m 83 0 l 83 959 l 510 959 l 510 868 l 184 868 l 184 0 l 83 0 m 224 1031 l 351 1210 l 453 1210 l 302 1031 l 224 1031 z "},"Є":{"ha":663,"x_min":72,"x_max":591,"o":"m 335 -11 q 142 66 212 -11 q 72 279 72 144 l 72 680 q 140 895 72 819 q 334 971 209 971 q 523 897 454 971 q 591 692 591 823 l 591 680 l 490 680 l 490 689 q 450 830 490 781 q 335 879 411 879 q 174 670 174 879 l 174 533 l 454 533 l 454 444 l 174 444 l 174 278 q 335 80 174 80 q 450 128 411 80 q 490 267 490 176 l 490 279 l 589 279 l 589 266 q 522 62 589 136 q 335 -11 456 -11 z "},"Ѕ":{"ha":591,"x_min":37,"x_max":541,"o":"m 288 -9 q 102 60 165 -9 q 37 263 39 130 l 37 279 l 134 279 l 134 263 q 178 124 138 168 q 292 80 217 80 q 404 122 366 80 q 441 252 441 164 q 407 368 441 328 q 290 442 373 408 l 235 464 q 93 561 140 503 q 46 716 46 618 q 111 901 46 830 q 293 972 175 972 q 467 907 404 972 q 536 713 530 842 l 536 680 l 441 680 l 441 713 q 292 882 430 882 q 183 840 218 882 q 148 722 148 798 q 180 616 148 655 q 292 545 213 576 l 349 524 q 492 425 444 486 q 541 254 541 365 q 476 58 541 126 q 288 -9 411 -9 z "},"І":{"ha":282,"x_min":92,"x_max":191,"o":"m 92 0 l 92 959 l 191 959 l 191 0 l 92 0 z "},"Ї":{"ha":282,"x_min":-16,"x_max":300,"o":"m -16 1035 l -16 1154 l 88 1154 l 88 1035 l -16 1035 m 195 1035 l 195 1154 l 300 1154 l 300 1035 l 195 1035 m 92 0 l 92 959 l 191 959 l 191 0 l 92 0 z "},"Ј":{"ha":365,"x_min":34,"x_max":274,"o":"m 34 0 l 34 91 l 73 91 q 172 201 172 91 l 172 959 l 274 959 l 274 190 q 224 47 274 95 q 81 0 174 0 l 34 0 z "},"Љ":{"ha":1070,"x_min":27,"x_max":998,"o":"m 27 0 l 27 91 q 126 213 118 91 l 186 959 l 621 959 l 621 553 l 753 553 q 998 279 998 553 q 753 0 998 0 l 519 0 l 519 868 l 281 868 l 236 220 q 184 58 229 115 q 27 0 140 0 m 621 91 l 747 91 q 862 136 826 91 q 898 279 898 180 q 861 418 898 374 q 747 463 825 463 l 621 463 l 621 91 z "},"Њ":{"ha":1043,"x_min":83,"x_max":971,"o":"m 83 0 l 83 959 l 184 959 l 184 533 l 479 533 l 479 959 l 581 959 l 581 553 l 726 553 q 971 279 971 553 q 726 0 971 0 l 479 0 l 479 444 l 184 444 l 184 0 l 83 0 m 581 91 l 720 91 q 835 136 799 91 q 871 279 871 180 q 834 418 871 374 q 720 463 798 463 l 581 463 l 581 91 z "},"Ћ":{"ha":772,"x_min":8,"x_max":700,"o":"m 206 0 l 206 868 l 8 868 l 8 959 l 503 959 l 503 868 l 305 868 l 305 553 q 380 574 342 568 q 454 581 418 581 q 639 498 578 581 q 700 279 700 416 l 700 0 l 600 0 l 600 279 q 563 432 600 374 q 449 490 526 490 q 377 484 414 490 q 305 463 340 477 l 305 0 l 206 0 z "},"Ќ":{"ha":640,"x_min":83,"x_max":632,"o":"m 83 0 l 83 959 l 184 959 l 184 533 l 285 533 l 491 959 l 598 959 l 363 492 l 632 0 l 521 0 l 275 444 l 184 444 l 184 0 l 83 0 m 231 1031 l 358 1210 l 460 1210 l 309 1031 l 231 1031 z "},"Ѝ":{"ha":686,"x_min":83,"x_max":604,"o":"m 83 0 l 83 959 l 184 959 l 184 216 l 488 959 l 604 959 l 604 0 l 502 0 l 502 743 l 198 0 l 83 0 m 320 1031 l 168 1210 l 271 1210 l 397 1031 l 320 1031 z "},"Ў":{"ha":544,"x_min":12,"x_max":532,"o":"m 106 0 l 106 98 l 117 98 q 166 118 142 98 q 202 175 190 138 l 217 218 l 12 959 l 123 959 l 269 388 l 420 959 l 532 959 l 298 155 q 227 42 278 84 q 115 0 176 0 l 106 0 m 273 1024 q 144 1072 189 1024 q 100 1206 100 1119 l 100 1230 l 190 1230 l 190 1206 q 273 1105 190 1105 q 355 1206 355 1105 l 355 1230 l 445 1230 l 445 1206 q 401 1072 445 1119 q 273 1024 357 1024 z "},"Џ":{"ha":639,"x_min":83,"x_max":556,"o":"m 269 -231 l 269 0 l 83 0 l 83 959 l 184 959 l 184 91 l 454 91 l 454 959 l 556 959 l 556 0 l 370 0 l 370 -231 l 269 -231 z "},"А":{"ha":640,"x_min":12,"x_max":628,"o":"m 12 0 l 274 959 l 366 959 l 628 0 l 521 0 l 460 244 l 179 244 l 118 0 l 12 0 m 201 332 l 438 332 l 320 806 l 201 332 z "},"Б":{"ha":650,"x_min":83,"x_max":578,"o":"m 83 0 l 83 959 l 510 959 l 510 868 l 184 868 l 184 553 l 332 553 q 578 279 578 553 q 332 0 578 0 l 83 0 m 184 91 l 327 91 q 441 136 406 91 q 477 279 477 180 q 441 418 477 374 q 327 463 404 463 l 184 463 l 184 91 z "},"В":{"ha":652,"x_min":83,"x_max":581,"o":"m 83 0 l 83 959 l 328 959 q 513 897 456 959 q 571 708 571 836 q 445 498 571 545 q 581 264 581 460 q 519 66 581 133 q 330 0 458 0 l 83 0 m 184 91 l 321 91 q 441 134 403 91 q 479 271 479 178 q 321 452 479 452 l 184 452 l 184 91 m 184 541 l 320 541 q 469 703 469 541 q 434 830 469 792 q 321 868 399 868 l 184 868 l 184 541 z "},"Г":{"ha":551,"x_min":83,"x_max":510,"o":"m 83 0 l 83 959 l 510 959 l 510 868 l 184 868 l 184 0 l 83 0 z "},"Д":{"ha":779,"x_min":14,"x_max":764,"o":"m 14 -231 l 14 91 l 90 91 q 184 349 157 214 q 221 617 212 484 l 248 959 l 684 959 l 684 91 l 764 91 l 764 -231 l 662 -231 l 662 0 l 115 0 l 115 -231 l 14 -231 m 198 91 l 582 91 l 582 868 l 343 868 l 323 570 q 286 325 315 450 q 198 91 258 199 z "},"Е":{"ha":559,"x_min":83,"x_max":510,"o":"m 83 0 l 83 959 l 510 959 l 510 868 l 183 868 l 183 533 l 464 533 l 464 442 l 183 442 l 183 91 l 510 91 l 510 0 l 83 0 z "},"Ж":{"ha":1024,"x_min":14,"x_max":1010,"o":"m 14 0 l 282 492 l 47 959 l 155 959 l 361 533 l 461 533 l 461 959 l 563 959 l 563 533 l 663 533 l 869 959 l 977 959 l 742 492 l 1010 0 l 899 0 l 654 444 l 563 444 l 563 0 l 461 0 l 461 444 l 370 444 l 125 0 l 14 0 z "},"З":{"ha":620,"x_min":83,"x_max":548,"o":"m 313 -11 q 198 19 251 -11 q 114 109 145 49 q 83 259 83 168 l 83 271 l 184 271 l 184 259 q 227 120 184 160 q 327 80 270 80 q 417 123 388 80 q 446 245 446 165 l 446 271 q 289 452 446 452 l 239 452 l 239 541 l 288 541 q 437 703 437 541 l 437 732 q 406 840 437 800 q 319 880 374 880 q 220 834 255 880 q 184 704 184 788 l 184 692 l 83 692 l 83 704 q 147 898 83 825 q 317 971 212 971 q 481 909 423 971 q 538 734 538 848 l 538 708 q 412 498 538 545 q 513 426 477 480 q 548 282 548 372 l 548 264 q 494 60 548 132 q 313 -11 441 -11 z "},"И":{"ha":686,"x_min":83,"x_max":604,"o":"m 83 0 l 83 959 l 184 959 l 184 216 l 488 959 l 604 959 l 604 0 l 502 0 l 502 743 l 198 0 l 83 0 z "},"Й":{"ha":686,"x_min":83,"x_max":604,"o":"m 83 0 l 83 959 l 184 959 l 184 216 l 488 959 l 604 959 l 604 0 l 502 0 l 502 743 l 198 0 l 83 0 m 323 1024 q 195 1072 239 1024 q 151 1206 151 1119 l 151 1230 l 240 1230 l 240 1206 q 323 1105 240 1105 q 406 1206 406 1105 l 406 1230 l 495 1230 l 495 1206 q 451 1072 495 1119 q 323 1024 407 1024 z "},"К":{"ha":640,"x_min":83,"x_max":632,"o":"m 83 0 l 83 959 l 184 959 l 184 533 l 285 533 l 491 959 l 598 959 l 363 492 l 632 0 l 521 0 l 275 444 l 184 444 l 184 0 l 83 0 z "},"Л":{"ha":705,"x_min":27,"x_max":621,"o":"m 27 0 l 27 91 q 126 213 118 91 l 186 959 l 621 959 l 621 0 l 519 0 l 519 868 l 281 868 l 236 220 q 184 58 229 115 q 27 0 140 0 z "},"М":{"ha":830,"x_min":83,"x_max":747,"o":"m 83 0 l 83 959 l 184 959 l 416 366 l 646 959 l 747 959 l 747 0 l 646 0 l 646 736 l 449 222 l 382 222 l 184 732 l 184 0 l 83 0 z "},"Н":{"ha":663,"x_min":83,"x_max":581,"o":"m 83 0 l 83 959 l 184 959 l 184 533 l 479 533 l 479 959 l 581 959 l 581 0 l 479 0 l 479 444 l 184 444 l 184 0 l 83 0 z "},"О":{"ha":663,"x_min":72,"x_max":591,"o":"m 332 -11 q 144 62 216 -11 q 72 279 72 134 l 72 680 q 143 900 72 829 q 332 971 214 971 q 522 898 452 971 q 591 680 591 825 l 591 279 q 520 62 591 136 q 332 -11 449 -11 m 174 278 q 334 80 174 81 q 449 129 408 80 q 490 278 490 178 l 490 670 q 449 828 490 777 q 334 879 408 879 q 174 670 174 879 l 174 278 z "},"П":{"ha":669,"x_min":83,"x_max":586,"o":"m 83 0 l 83 959 l 586 959 l 586 0 l 484 0 l 484 868 l 184 868 l 184 0 l 83 0 z "},"Р":{"ha":610,"x_min":83,"x_max":578,"o":"m 83 0 l 83 959 l 332 959 q 519 888 461 959 q 578 680 578 818 q 332 406 578 406 l 184 406 l 184 0 l 83 0 m 184 496 l 327 496 q 441 539 404 496 q 477 680 477 582 q 441 823 477 779 q 327 868 406 868 l 184 868 l 184 496 z "},"С":{"ha":663,"x_min":72,"x_max":591,"o":"m 335 -11 q 144 62 217 -11 q 72 279 72 136 l 72 680 q 143 898 72 825 q 334 971 214 971 q 520 901 449 971 q 591 692 591 831 l 591 680 l 490 680 l 490 689 q 448 833 490 788 q 335 879 407 879 q 215 829 256 879 q 174 670 174 779 l 174 278 q 335 80 174 83 q 448 125 406 80 q 490 267 490 171 l 490 279 l 589 279 l 589 266 q 518 58 589 127 q 335 -11 448 -11 z "},"Т":{"ha":510,"x_min":8,"x_max":503,"o":"m 206 0 l 206 868 l 8 868 l 8 959 l 503 959 l 503 868 l 305 868 l 305 0 l 206 0 z "},"У":{"ha":544,"x_min":12,"x_max":532,"o":"m 106 0 l 106 98 l 117 98 q 166 118 142 98 q 202 175 190 138 l 217 218 l 12 959 l 123 959 l 269 388 l 420 959 l 532 959 l 298 155 q 227 42 278 84 q 115 0 176 0 l 106 0 z "},"Ф":{"ha":745,"x_min":72,"x_max":673,"o":"m 321 0 l 321 71 q 138 151 203 75 q 72 361 72 227 l 72 598 q 137 810 72 735 q 321 890 202 886 l 321 959 l 423 959 l 423 890 q 608 811 544 887 q 673 598 673 735 l 673 361 q 607 149 673 225 q 423 71 541 73 l 423 0 l 321 0 m 321 161 l 321 798 q 174 589 174 789 l 174 359 q 321 161 174 170 m 423 161 q 533 216 495 164 q 571 359 571 267 l 571 589 q 423 798 571 791 l 423 161 z "},"Х":{"ha":576,"x_min":12,"x_max":566,"o":"m 12 0 l 231 498 l 31 959 l 144 959 l 290 598 l 433 959 l 547 959 l 346 499 l 566 0 l 450 0 l 289 397 l 126 0 l 12 0 z "},"Ц":{"ha":651,"x_min":83,"x_max":637,"o":"m 536 -231 l 536 0 l 83 0 l 83 959 l 184 959 l 184 91 l 454 91 l 454 959 l 556 959 l 556 91 l 637 91 l 637 -231 l 536 -231 z "},"Ч":{"ha":667,"x_min":83,"x_max":585,"o":"m 481 0 l 481 326 q 334 301 423 301 q 204 334 260 301 q 115 424 148 366 q 83 556 83 481 l 83 959 l 186 959 l 186 562 q 225 437 186 483 q 334 392 264 392 q 420 396 391 392 q 481 418 449 400 l 481 959 l 585 959 l 585 0 l 481 0 z "},"Ш":{"ha":1107,"x_min":83,"x_max":1023,"o":"m 83 0 l 83 959 l 186 959 l 186 91 l 502 91 l 502 959 l 605 959 l 605 91 l 920 91 l 920 959 l 1023 959 l 1023 0 l 83 0 z "},"Щ":{"ha":1114,"x_min":83,"x_max":1099,"o":"m 997 -231 l 997 0 l 83 0 l 83 959 l 186 959 l 186 91 l 502 91 l 502 959 l 605 959 l 605 91 l 920 91 l 920 959 l 1023 959 l 1023 91 l 1099 91 l 1099 -231 l 997 -231 z "},"Ъ":{"ha":799,"x_min":0,"x_max":727,"o":"m 232 0 l 232 868 l 0 868 l 0 959 l 334 959 l 334 553 l 481 553 q 727 279 727 553 q 481 0 727 0 l 232 0 m 334 91 l 476 91 q 591 136 555 91 q 627 279 627 180 q 590 418 627 374 q 476 463 553 463 l 334 463 l 334 91 z "},"Ы":{"ha":872,"x_min":83,"x_max":787,"o":"m 83 0 l 83 959 l 184 959 l 184 553 l 332 553 q 578 279 578 553 q 332 0 578 0 l 83 0 m 184 91 l 327 91 q 441 136 406 91 q 477 279 477 180 q 441 418 477 374 q 327 463 404 463 l 184 463 l 184 91 m 688 0 l 688 959 l 787 959 l 787 0 l 688 0 z "},"Ь":{"ha":650,"x_min":83,"x_max":578,"o":"m 83 0 l 83 959 l 184 959 l 184 553 l 332 553 q 578 279 578 553 q 332 0 578 0 l 83 0 m 184 91 l 327 91 q 441 136 406 91 q 477 279 477 180 q 441 418 477 374 q 327 463 404 463 l 184 463 l 184 91 z "},"Э":{"ha":663,"x_min":72,"x_max":591,"o":"m 328 -11 q 146 58 217 -11 q 75 266 75 127 l 75 279 l 174 279 l 174 267 q 216 125 174 171 q 328 80 258 80 q 490 278 490 83 l 490 444 l 209 444 l 209 533 l 490 533 l 490 670 q 449 829 490 779 q 328 879 408 879 q 215 833 256 879 q 174 689 174 788 l 174 680 l 72 680 l 72 692 q 143 901 72 831 q 330 971 214 971 q 520 898 449 971 q 591 680 591 825 l 591 279 q 519 62 591 136 q 328 -11 446 -11 z "},"Ю":{"ha":935,"x_min":83,"x_max":863,"o":"m 83 0 l 83 959 l 184 959 l 184 533 l 343 533 l 343 680 q 414 900 343 829 q 604 971 486 971 q 793 898 723 971 q 863 680 863 825 l 863 279 q 791 62 863 136 q 604 -11 720 -11 q 415 62 487 -11 q 343 279 343 134 l 343 444 l 184 444 l 184 0 l 83 0 m 445 278 q 605 80 445 81 q 720 129 680 80 q 761 278 761 178 l 761 670 q 720 828 761 777 q 605 879 680 879 q 445 670 445 879 l 445 278 z "},"Я":{"ha":647,"x_min":42,"x_max":564,"o":"m 42 0 l 210 435 q 69 688 69 483 q 127 892 69 825 q 311 959 186 959 l 564 959 l 564 0 l 463 0 l 463 419 l 308 419 l 149 0 l 42 0 m 171 688 q 205 553 171 598 q 312 509 239 509 l 463 509 l 463 868 l 312 868 q 204 824 237 868 q 171 688 171 780 z "},"а":{"ha":556,"x_min":56,"x_max":475,"o":"m 239 -11 q 103 45 151 -11 q 56 203 56 100 q 111 355 56 301 q 270 410 167 410 l 381 410 l 381 525 q 270 646 381 646 q 190 617 217 646 q 163 540 163 589 l 163 529 l 73 529 l 73 541 q 126 679 73 628 q 270 730 179 730 q 422 675 370 730 q 475 521 475 621 l 475 0 l 385 0 l 385 66 q 239 -11 336 -11 m 151 205 q 262 71 151 72 q 349 105 316 71 q 381 206 381 140 l 381 339 l 279 339 q 151 205 151 339 z "},"б":{"ha":567,"x_min":69,"x_max":499,"o":"m 286 -11 q 69 233 69 -11 l 69 583 q 87 742 69 684 q 138 830 106 800 q 215 877 171 860 q 311 910 259 894 q 422 959 363 926 l 422 859 q 338 819 378 831 q 266 794 298 806 q 210 762 233 783 q 173 699 186 741 q 160 581 160 656 q 216 636 182 613 q 302 659 251 659 q 447 597 395 659 q 499 414 499 534 l 499 233 q 286 -11 499 -11 m 164 244 q 193 115 164 156 q 285 73 222 73 q 404 244 404 73 l 404 403 q 285 574 404 574 q 193 532 222 574 q 164 403 164 491 l 164 244 z "},"в":{"ha":574,"x_min":81,"x_max":494,"o":"m 81 0 l 81 718 l 297 718 q 420 670 373 718 q 467 543 467 623 q 450 453 467 488 q 399 395 434 418 q 494 202 494 351 q 437 54 494 107 q 275 0 380 0 l 81 0 m 175 85 l 296 85 q 372 123 343 85 q 400 221 400 161 q 372 311 400 277 q 296 346 343 346 l 175 346 l 175 85 m 175 418 l 269 418 q 342 450 312 418 q 373 528 373 483 q 346 605 373 578 q 269 632 319 632 l 175 632 l 175 418 z "},"г":{"ha":475,"x_min":81,"x_max":448,"o":"m 81 0 l 81 718 l 448 718 l 448 632 l 176 632 l 176 0 l 81 0 z "},"д":{"ha":642,"x_min":27,"x_max":614,"o":"m 27 -231 l 27 85 l 81 85 q 134 170 117 85 q 163 393 151 254 l 190 718 l 534 718 l 534 85 l 614 85 l 614 -231 l 521 -231 l 521 0 l 121 0 l 121 -231 l 27 -231 m 208 85 l 441 85 l 441 632 l 277 632 l 256 350 q 241 219 252 294 q 208 85 231 144 z "},"е":{"ha":566,"x_min":69,"x_max":498,"o":"m 286 -11 q 69 244 69 -11 l 69 476 q 125 664 69 598 q 282 730 180 730 q 440 665 382 730 q 498 476 498 601 l 498 331 l 164 331 l 164 245 q 197 110 164 149 q 289 71 231 71 q 403 214 403 71 l 403 220 l 496 220 l 496 216 q 441 47 496 104 q 286 -11 387 -11 m 164 403 l 404 403 l 404 476 q 374 606 404 568 q 283 644 343 644 q 195 605 225 644 q 164 473 164 566 l 164 403 z "},"ж":{"ha":873,"x_min":19,"x_max":854,"o":"m 19 0 l 254 391 l 50 718 l 155 718 l 343 425 l 389 425 l 389 718 l 484 718 l 484 425 l 530 425 l 719 718 l 823 718 l 620 391 l 854 0 l 747 0 l 543 339 l 484 339 l 484 0 l 389 0 l 389 339 l 331 339 l 126 0 l 19 0 z "},"з":{"ha":594,"x_min":69,"x_max":522,"o":"m 290 -11 q 130 37 191 -11 q 69 160 69 84 l 69 180 l 163 180 l 163 161 q 199 98 163 123 q 289 73 235 73 q 392 111 355 73 q 429 206 429 148 l 429 221 q 398 310 429 274 q 317 346 368 346 l 224 346 l 224 418 l 323 418 q 391 452 368 418 q 415 528 415 486 l 415 547 q 382 618 415 591 q 293 644 349 644 q 200 618 237 644 q 163 553 163 593 l 163 538 l 69 538 l 69 552 q 131 681 69 632 q 292 730 193 730 q 448 680 388 730 q 509 552 509 631 l 509 532 q 490 450 509 488 q 438 391 471 411 q 500 330 479 369 q 522 221 522 290 l 522 202 q 458 48 522 107 q 290 -11 395 -11 z "},"и":{"ha":594,"x_min":81,"x_max":513,"o":"m 81 0 l 81 718 l 175 718 l 175 176 l 406 718 l 513 718 l 513 0 l 419 0 l 419 541 l 189 0 l 81 0 z "},"й":{"ha":594,"x_min":81,"x_max":513,"o":"m 81 0 l 81 718 l 175 718 l 175 176 l 406 718 l 513 718 l 513 0 l 419 0 l 419 541 l 189 0 l 81 0 m 290 793 q 162 841 206 793 q 118 975 118 888 l 118 1000 l 208 1000 l 208 975 q 290 875 208 875 q 373 975 373 875 l 373 1000 l 463 1000 l 463 975 q 418 841 463 888 q 290 793 374 793 z "},"к":{"ha":566,"x_min":81,"x_max":547,"o":"m 81 0 l 81 718 l 176 718 l 176 425 l 222 425 l 411 718 l 515 718 l 312 391 l 547 0 l 439 0 l 235 339 l 176 339 l 176 0 l 81 0 z "},"л":{"ha":549,"x_min":15,"x_max":468,"o":"m 15 0 l 15 85 q 62 108 50 85 q 77 167 75 130 l 123 718 l 468 718 l 468 0 l 374 0 l 374 632 l 210 632 l 174 134 q 15 0 164 0 z "},"м":{"ha":789,"x_min":81,"x_max":708,"o":"m 81 0 l 81 718 l 189 718 l 393 244 l 601 718 l 708 718 l 708 0 l 614 0 l 614 541 l 411 81 l 378 81 l 175 541 l 175 0 l 81 0 z "},"н":{"ha":575,"x_min":81,"x_max":494,"o":"m 81 0 l 81 718 l 175 718 l 175 425 l 400 425 l 400 718 l 494 718 l 494 0 l 400 0 l 400 339 l 175 339 l 175 0 l 81 0 z "},"о":{"ha":567,"x_min":69,"x_max":499,"o":"m 286 -11 q 126 48 183 -11 q 69 233 69 107 l 69 484 q 126 670 69 610 q 286 730 183 730 q 442 671 385 730 q 499 484 499 612 l 499 233 q 442 49 499 109 q 286 -11 385 -11 m 164 244 q 195 112 164 151 q 285 73 227 73 q 374 113 343 73 q 404 244 404 152 l 404 473 q 374 605 404 566 q 285 644 345 644 q 195 606 227 644 q 164 473 164 567 l 164 244 z "},"п":{"ha":567,"x_min":81,"x_max":486,"o":"m 81 0 l 81 718 l 486 718 l 486 0 l 392 0 l 392 632 l 175 632 l 175 0 l 81 0 z "},"р":{"ha":571,"x_min":81,"x_max":503,"o":"m 81 -212 l 81 718 l 176 718 l 176 648 q 312 730 222 727 q 451 669 399 730 q 503 484 503 608 l 503 233 q 450 48 503 107 q 313 -11 397 -11 q 176 64 222 -11 l 176 -212 l 81 -212 m 176 243 q 296 73 176 73 q 379 112 350 73 q 408 244 408 151 l 408 473 q 296 644 408 644 q 176 472 176 644 l 176 243 z "},"с":{"ha":567,"x_min":69,"x_max":499,"o":"m 288 -11 q 127 48 184 -11 q 69 233 69 107 l 69 484 q 126 670 69 610 q 286 730 183 730 q 444 673 388 730 q 499 500 499 617 l 499 480 l 404 480 l 404 500 q 288 644 404 644 q 195 606 227 644 q 164 473 164 567 l 164 244 q 196 112 164 151 q 286 73 228 73 q 404 218 404 73 l 404 237 l 499 237 l 499 220 q 443 46 499 103 q 288 -11 387 -11 z "},"т":{"ha":491,"x_min":8,"x_max":483,"o":"m 198 0 l 198 632 l 8 632 l 8 718 l 483 718 l 483 632 l 293 632 l 293 0 l 198 0 z "},"у":{"ha":514,"x_min":20,"x_max":495,"o":"m 62 -214 l 62 -129 l 85 -129 q 169 -109 140 -129 q 210 -39 198 -90 l 216 -16 l 20 718 l 123 718 l 259 170 l 392 718 l 495 718 l 285 -68 q 214 -181 264 -148 q 76 -214 163 -214 l 62 -214 z "},"ф":{"ha":886,"x_min":69,"x_max":818,"o":"m 396 -212 l 396 64 q 259 -11 350 -11 q 119 53 168 -11 q 69 233 69 117 l 69 484 q 119 665 69 601 q 260 730 170 730 q 396 648 349 730 l 396 959 l 491 959 l 491 648 q 627 730 538 730 q 768 665 719 730 q 818 484 818 601 l 818 233 q 768 53 818 117 q 628 -11 719 -11 q 491 64 537 -11 l 491 -212 l 396 -212 m 491 243 q 522 117 491 160 q 610 73 552 73 q 723 244 723 73 l 723 473 q 610 644 723 644 q 491 472 491 644 l 491 243 m 164 244 q 277 73 164 73 q 366 117 335 73 q 396 243 396 160 l 396 472 q 277 644 396 644 q 164 473 164 644 l 164 244 z "},"х":{"ha":484,"x_min":20,"x_max":464,"o":"m 20 0 l 191 373 l 34 718 l 134 718 l 244 480 l 349 718 l 450 718 l 290 380 l 464 0 l 362 0 l 240 267 l 121 0 l 20 0 z "},"ц":{"ha":587,"x_min":81,"x_max":574,"o":"m 480 -231 l 480 0 l 81 0 l 81 718 l 175 718 l 175 85 l 400 85 l 400 718 l 494 718 l 494 85 l 574 85 l 574 -231 l 480 -231 z "},"ч":{"ha":578,"x_min":81,"x_max":496,"o":"m 401 0 l 401 283 q 273 264 349 264 q 128 328 175 264 q 81 496 81 391 l 81 718 l 176 718 l 176 529 q 198 397 176 445 q 290 349 220 349 q 356 355 326 349 q 401 374 387 362 l 401 718 l 496 718 l 496 0 l 401 0 z "},"ш":{"ha":788,"x_min":81,"x_max":707,"o":"m 81 0 l 81 718 l 175 718 l 175 85 l 347 85 l 347 718 l 441 718 l 441 85 l 613 85 l 613 718 l 707 718 l 707 0 l 81 0 z "},"щ":{"ha":800,"x_min":81,"x_max":787,"o":"m 693 -231 l 693 0 l 81 0 l 81 718 l 175 718 l 175 85 l 347 85 l 347 718 l 441 718 l 441 85 l 613 85 l 613 718 l 707 718 l 707 85 l 787 85 l 787 -231 l 693 -231 z "},"ъ":{"ha":670,"x_min":0,"x_max":602,"o":"m 190 0 l 190 632 l 0 632 l 0 718 l 283 718 l 283 425 l 404 425 q 555 376 507 425 q 602 221 602 327 q 545 56 602 113 q 384 0 488 0 l 190 0 m 283 85 l 404 85 q 480 122 452 85 q 509 217 509 159 q 480 306 509 273 q 404 339 452 339 l 283 339 l 283 85 z "},"ы":{"ha":760,"x_min":81,"x_max":678,"o":"m 81 0 l 81 718 l 175 718 l 175 425 l 296 425 q 446 376 399 425 q 494 221 494 327 q 437 56 494 113 q 275 0 380 0 l 81 0 m 175 85 l 296 85 q 372 122 343 85 q 400 217 400 159 q 372 306 400 273 q 296 339 343 339 l 175 339 l 175 85 m 585 0 l 585 718 l 678 718 l 678 0 l 585 0 z "},"ь":{"ha":562,"x_min":81,"x_max":494,"o":"m 81 0 l 81 718 l 175 718 l 175 425 l 296 425 q 446 376 399 425 q 494 221 494 327 q 437 56 494 113 q 275 0 380 0 l 81 0 m 175 85 l 296 85 q 372 122 343 85 q 400 217 400 159 q 372 306 400 273 q 296 339 343 339 l 175 339 l 175 85 z "},"э":{"ha":566,"x_min":68,"x_max":498,"o":"m 279 -11 q 124 46 180 -11 q 68 220 68 103 l 68 237 l 163 237 l 163 218 q 281 73 163 73 q 372 112 340 73 q 403 244 403 151 l 403 339 l 256 339 l 256 425 l 403 425 l 403 473 q 372 606 403 567 q 279 644 340 644 q 163 500 163 644 l 163 480 l 68 480 l 68 500 q 123 673 68 617 q 281 730 179 730 q 441 670 385 730 q 498 484 498 610 l 498 233 q 441 48 498 107 q 279 -11 384 -11 z "},"ю":{"ha":757,"x_min":81,"x_max":689,"o":"m 81 0 l 81 718 l 175 718 l 175 425 l 259 425 l 259 484 q 316 670 259 610 q 476 730 373 730 q 632 671 575 730 q 689 484 689 612 l 689 233 q 632 49 689 109 q 476 -11 575 -11 q 316 48 373 -11 q 259 233 259 107 l 259 339 l 175 339 l 175 0 l 81 0 m 354 244 q 385 112 354 151 q 475 73 416 73 q 564 113 533 73 q 594 244 594 152 l 594 473 q 564 605 594 566 q 475 644 534 644 q 385 606 416 644 q 354 473 354 567 l 354 244 z "},"я":{"ha":595,"x_min":81,"x_max":514,"o":"m 81 0 l 202 290 q 118 371 149 317 q 87 502 87 425 q 116 616 87 568 q 192 691 145 665 q 292 718 239 718 l 514 718 l 514 0 l 420 0 l 420 278 l 286 278 l 172 0 l 81 0 m 180 499 q 215 398 180 433 q 292 363 250 363 l 420 363 l 420 632 l 320 632 q 222 600 264 632 q 180 499 180 567 z "},"ѐ":{"ha":566,"x_min":69,"x_max":498,"o":"m 279 800 l 127 979 l 231 979 l 357 800 l 279 800 m 286 -11 q 69 244 69 -11 l 69 476 q 125 664 69 598 q 282 730 180 730 q 440 665 382 730 q 498 476 498 601 l 498 331 l 164 331 l 164 245 q 197 110 164 149 q 289 71 231 71 q 403 214 403 71 l 403 220 l 496 220 l 496 216 q 441 47 496 104 q 286 -11 387 -11 m 164 403 l 404 403 l 404 476 q 374 606 404 568 q 283 644 343 644 q 195 605 225 644 q 164 473 164 566 l 164 403 z "},"ё":{"ha":566,"x_min":69,"x_max":498,"o":"m 123 804 l 123 924 l 228 924 l 228 804 l 123 804 m 335 804 l 335 924 l 439 924 l 439 804 l 335 804 m 286 -11 q 69 244 69 -11 l 69 476 q 125 664 69 598 q 282 730 180 730 q 440 665 382 730 q 498 476 498 601 l 498 331 l 164 331 l 164 245 q 197 110 164 149 q 289 71 231 71 q 403 214 403 71 l 403 220 l 496 220 l 496 216 q 441 47 496 104 q 286 -11 387 -11 m 164 403 l 404 403 l 404 476 q 374 606 404 568 q 283 644 343 644 q 195 605 225 644 q 164 473 164 566 l 164 403 z "},"ђ":{"ha":576,"x_min":15,"x_max":496,"o":"m 281 -212 l 281 -126 l 302 -126 q 401 -16 401 -126 l 401 515 q 372 610 401 576 q 289 644 342 644 q 207 610 237 644 q 176 515 176 575 l 176 0 l 81 0 l 81 804 l 15 804 l 15 867 l 81 867 l 81 959 l 176 959 l 176 867 l 397 867 l 397 804 l 176 804 l 176 655 q 235 710 198 690 q 315 730 273 730 q 449 675 401 730 q 496 519 496 620 l 496 -20 q 448 -162 496 -113 q 305 -212 399 -212 l 281 -212 z "},"ѓ":{"ha":475,"x_min":81,"x_max":457,"o":"m 81 0 l 81 718 l 448 718 l 448 632 l 176 632 l 176 0 l 81 0 m 228 800 l 355 979 l 457 979 l 307 800 l 228 800 z "},"є":{"ha":567,"x_min":69,"x_max":499,"o":"m 288 -11 q 69 233 69 -11 l 69 484 q 286 730 69 730 q 445 671 391 730 q 499 500 499 613 l 499 480 l 404 480 l 404 500 q 288 644 404 644 q 194 604 224 644 q 164 473 164 563 l 164 425 l 311 425 l 311 339 l 164 339 l 164 244 q 194 115 164 156 q 286 73 224 73 q 404 218 404 73 l 404 237 l 499 237 l 499 220 q 445 49 499 109 q 288 -11 391 -11 z "},"ѕ":{"ha":530,"x_min":56,"x_max":481,"o":"m 266 -11 q 111 45 167 -11 q 56 193 56 100 l 56 201 l 142 201 l 142 193 q 176 103 142 134 q 269 72 210 72 q 356 100 324 72 q 388 187 388 129 q 366 260 388 235 q 290 308 343 286 l 199 346 q 62 533 62 403 q 117 675 62 621 q 270 730 172 730 q 420 675 366 730 q 473 529 473 621 l 473 511 l 387 511 l 387 519 q 357 613 387 579 q 269 647 327 647 q 188 619 218 647 q 157 540 157 591 q 176 475 157 502 q 244 426 195 449 l 335 389 q 445 317 408 359 q 481 194 481 274 q 422 42 481 95 q 266 -11 363 -11 z "},"і":{"ha":275,"x_min":91,"x_max":186,"o":"m 91 0 l 91 718 l 184 718 l 184 0 l 91 0 m 91 831 l 91 958 l 186 958 l 186 831 l 91 831 z "},"ї":{"ha":274,"x_min":-22,"x_max":294,"o":"m 91 0 l 91 718 l 184 718 l 184 0 l 91 0 m -22 804 l -22 924 l 83 924 l 83 804 l -22 804 m 190 804 l 190 924 l 294 924 l 294 804 l 190 804 z "},"ј":{"ha":270,"x_min":-35,"x_max":180,"o":"m -35 -212 l -35 -126 l -14 -126 q 84 -16 84 -126 l 84 718 l 180 718 l 180 -20 q 130 -163 180 -115 q -11 -212 80 -212 l -35 -212 m 84 831 l 84 958 l 180 958 l 180 831 l 84 831 z "},"љ":{"ha":833,"x_min":15,"x_max":765,"o":"m 15 0 l 15 85 q 62 108 50 85 q 77 167 75 130 l 123 718 l 468 718 l 468 425 l 567 425 q 718 376 670 425 q 765 221 765 327 q 708 56 765 113 q 547 0 651 0 l 374 0 l 374 632 l 210 632 l 174 134 q 15 0 164 0 m 468 85 l 567 85 q 643 122 614 85 q 671 217 671 159 q 643 306 671 273 q 567 339 614 339 l 468 339 l 468 85 z "},"њ":{"ha":873,"x_min":81,"x_max":806,"o":"m 81 0 l 81 718 l 175 718 l 175 425 l 400 425 l 400 718 l 494 718 l 494 425 l 608 425 q 758 376 711 425 q 806 221 806 327 q 749 56 806 113 q 587 0 692 0 l 400 0 l 400 339 l 175 339 l 175 0 l 81 0 m 494 85 l 608 85 q 684 122 655 85 q 712 217 712 159 q 684 306 712 273 q 608 339 655 339 l 494 339 l 494 85 z "},"ћ":{"ha":576,"x_min":15,"x_max":496,"o":"m 15 804 l 15 867 l 81 867 l 81 959 l 176 959 l 176 867 l 397 867 l 397 804 l 176 804 l 176 655 q 235 709 198 689 q 315 730 271 730 q 448 675 399 730 q 496 519 496 620 l 496 0 l 401 0 l 401 515 q 371 611 401 578 q 289 644 340 644 q 207 611 237 644 q 176 515 176 578 l 176 0 l 81 0 l 81 804 l 15 804 z "},"ќ":{"ha":566,"x_min":81,"x_max":547,"o":"m 81 0 l 81 718 l 176 718 l 176 425 l 222 425 l 411 718 l 515 718 l 312 391 l 547 0 l 439 0 l 235 339 l 176 339 l 176 0 l 81 0 m 201 800 l 328 979 l 430 979 l 279 800 l 201 800 z "},"ѝ":{"ha":594,"x_min":81,"x_max":513,"o":"m 81 0 l 81 718 l 175 718 l 175 176 l 406 718 l 513 718 l 513 0 l 419 0 l 419 541 l 189 0 l 81 0 m 288 800 l 136 979 l 239 979 l 365 800 l 288 800 z "},"ў":{"ha":514,"x_min":20,"x_max":495,"o":"m 62 -214 l 62 -129 l 85 -129 q 169 -109 140 -129 q 210 -39 198 -90 l 216 -16 l 20 718 l 123 718 l 259 170 l 392 718 l 495 718 l 285 -68 q 214 -181 264 -148 q 76 -214 163 -214 l 62 -214 m 252 793 q 124 841 168 793 q 80 975 80 888 l 80 1000 l 170 1000 l 170 975 q 252 875 170 875 q 335 975 335 875 l 335 1000 l 425 1000 l 425 975 q 380 841 425 888 q 252 793 336 793 z "},"џ":{"ha":575,"x_min":81,"x_max":494,"o":"m 240 -231 l 240 0 l 81 0 l 81 718 l 175 718 l 175 85 l 400 85 l 400 718 l 494 718 l 494 0 l 334 0 l 334 -231 l 240 -231 z "},"Ґ":{"ha":551,"x_min":83,"x_max":510,"o":"m 415 959 l 415 1176 l 510 1176 l 510 868 l 184 868 l 184 0 l 83 0 l 83 959 l 415 959 z "},"ґ":{"ha":475,"x_min":81,"x_max":448,"o":"m 366 718 l 366 894 l 448 894 l 448 632 l 176 632 l 176 0 l 81 0 l 81 718 l 366 718 z "},"Ү":{"ha":544,"x_min":12,"x_max":532,"o":"m 222 0 l 222 399 l 12 959 l 123 959 l 273 519 l 420 959 l 532 959 l 323 399 l 323 0 l 222 0 z "},"ү":{"ha":449,"x_min":5,"x_max":444,"o":"m 175 -216 l 175 156 l 5 716 l 117 716 l 225 317 l 332 716 l 444 716 l 275 156 l 275 -216 l 175 -216 z "},"Ө":{"ha":663,"x_min":72,"x_max":591,"o":"m 332 -11 q 144 62 216 -11 q 72 279 72 134 l 72 680 q 143 900 72 829 q 332 971 214 971 q 522 898 452 971 q 591 680 591 825 l 591 279 q 520 62 591 136 q 332 -11 449 -11 m 174 278 q 334 80 174 81 q 449 129 408 80 q 490 278 490 178 l 490 670 q 449 828 490 777 q 334 879 408 879 q 174 670 174 879 l 174 278 m 110 438 l 110 528 l 555 528 l 555 438 l 110 438 z "},"ө":{"ha":567,"x_min":69,"x_max":499,"o":"m 286 -11 q 126 48 183 -11 q 69 233 69 107 l 69 484 q 126 670 69 610 q 286 730 183 730 q 442 671 385 730 q 499 484 499 612 l 499 233 q 442 49 499 109 q 286 -11 385 -11 m 164 244 q 195 112 164 151 q 285 73 227 73 q 374 113 343 73 q 404 244 404 152 l 404 473 q 374 605 404 566 q 285 644 345 644 q 195 606 227 644 q 164 473 164 567 l 164 244 m 91 316 l 91 406 l 473 406 l 473 316 l 91 316 z "},"Ḍ":{"ha":662,"x_min":83,"x_max":590,"o":"m 83 0 l 83 959 l 332 959 q 519 886 449 959 q 590 669 590 812 l 590 290 q 519 73 590 146 q 332 0 449 0 l 83 0 m 184 91 l 332 91 q 448 140 407 91 q 488 289 488 189 l 488 658 q 448 816 488 764 q 332 868 408 868 l 184 868 l 184 91 m 282 -241 l 282 -117 l 380 -117 l 380 -241 l 282 -241 z "},"ḍ":{"ha":571,"x_min":69,"x_max":490,"o":"m 258 -11 q 122 50 175 -11 q 69 233 69 110 l 69 484 q 121 669 69 608 q 258 730 174 730 q 396 648 350 730 l 396 959 l 490 959 l 490 0 l 396 0 l 396 65 q 258 -11 349 -11 m 164 244 q 193 113 164 153 q 277 73 222 73 q 396 243 396 73 l 396 472 q 277 644 396 644 q 164 473 164 644 l 164 244 m 236 -241 l 236 -117 l 334 -117 l 334 -241 l 236 -241 z "},"Ḥ":{"ha":663,"x_min":83,"x_max":581,"o":"m 83 0 l 83 959 l 184 959 l 184 533 l 479 533 l 479 959 l 581 959 l 581 0 l 479 0 l 479 444 l 184 444 l 184 0 l 83 0 m 282 -241 l 282 -117 l 380 -117 l 380 -241 l 282 -241 z "},"ḥ":{"ha":576,"x_min":81,"x_max":496,"o":"m 81 0 l 81 959 l 176 959 l 176 655 q 235 709 198 689 q 315 730 271 730 q 448 675 399 730 q 496 519 496 620 l 496 0 l 401 0 l 401 515 q 371 611 401 578 q 289 644 340 644 q 207 611 237 644 q 176 515 176 578 l 176 0 l 81 0 m 239 -241 l 239 -117 l 336 -117 l 336 -241 l 239 -241 z "},"Ḱ":{"ha":640,"x_min":83,"x_max":632,"o":"m 83 0 l 83 959 l 184 959 l 184 425 l 491 959 l 598 959 l 368 568 l 632 0 l 521 0 l 307 465 l 184 256 l 184 0 l 83 0 m 231 1054 l 358 1233 l 460 1233 l 309 1054 l 231 1054 z "},"ḱ":{"ha":567,"x_min":65,"x_max":547,"o":"m 81 0 l 81 959 l 176 959 l 176 345 l 416 718 l 521 718 l 332 442 l 547 0 l 439 0 l 274 355 l 176 213 l 176 0 l 81 0 m 65 1054 l 193 1233 l 294 1233 l 144 1054 l 65 1054 z "},"Ḷ":{"ha":543,"x_min":83,"x_max":510,"o":"m 83 0 l 83 959 l 184 959 l 184 91 l 510 91 l 510 0 l 83 0 m 250 -241 l 250 -117 l 347 -117 l 347 -241 l 250 -241 z "},"ḷ":{"ha":324,"x_min":81,"x_max":297,"o":"m 274 0 q 130 50 179 0 q 81 190 81 99 l 81 959 l 178 959 l 178 194 q 277 84 178 84 l 297 84 l 297 0 l 274 0 m 114 -241 l 114 -117 l 212 -117 l 212 -241 l 114 -241 z "},"Ḿ":{"ha":830,"x_min":83,"x_max":747,"o":"m 83 0 l 83 959 l 184 959 l 416 366 l 646 959 l 747 959 l 747 0 l 646 0 l 646 736 l 449 222 l 382 222 l 184 732 l 184 0 l 83 0 m 326 1054 l 453 1233 l 555 1233 l 404 1054 l 326 1054 z "},"ḿ":{"ha":897,"x_min":81,"x_max":815,"o":"m 81 0 l 81 718 l 175 718 l 175 652 q 231 708 194 686 q 315 730 269 730 q 408 706 366 730 q 471 639 449 682 q 537 705 496 681 q 629 730 578 730 q 768 675 722 730 q 815 519 815 620 l 815 0 l 719 0 l 719 515 q 690 611 719 578 q 610 644 661 644 q 528 610 560 644 q 496 517 496 576 l 496 0 l 401 0 l 401 515 q 371 610 401 576 q 289 644 340 644 q 208 610 239 644 q 178 515 178 576 l 178 0 l 81 0 m 358 800 l 486 979 l 587 979 l 437 800 l 358 800 z "},"Ṕ":{"ha":610,"x_min":83,"x_max":578,"o":"m 83 0 l 83 959 l 332 959 q 519 888 461 959 q 578 680 578 818 q 332 406 578 406 l 184 406 l 184 0 l 83 0 m 184 496 l 327 496 q 441 539 404 496 q 477 680 477 582 q 441 823 477 779 q 327 868 406 868 l 184 868 l 184 496 m 216 1054 l 343 1233 l 445 1233 l 294 1054 l 216 1054 z "},"ṕ":{"ha":571,"x_min":81,"x_max":503,"o":"m 81 -212 l 81 718 l 176 718 l 176 648 q 312 730 222 727 q 451 669 399 730 q 503 484 503 608 l 503 233 q 450 48 503 107 q 313 -11 397 -11 q 176 64 222 -11 l 176 -212 l 81 -212 m 176 243 q 296 73 176 73 q 379 112 350 73 q 408 244 408 151 l 408 473 q 296 644 408 644 q 176 472 176 644 l 176 243 m 195 800 l 323 979 l 425 979 l 274 800 l 195 800 z "},"Ṛ":{"ha":647,"x_min":83,"x_max":605,"o":"m 83 0 l 83 959 l 336 959 q 519 892 461 959 q 578 688 578 825 q 437 435 578 483 l 605 0 l 498 0 l 339 419 l 184 419 l 184 0 l 83 0 m 184 509 l 335 509 q 442 553 408 509 q 476 688 476 598 q 444 824 476 780 q 335 868 411 868 l 184 868 l 184 509 m 274 -241 l 274 -117 l 372 -117 l 372 -241 l 274 -241 z "},"ṛ":{"ha":401,"x_min":81,"x_max":374,"o":"m 81 0 l 81 718 l 174 718 l 174 647 q 236 710 197 690 q 324 730 275 730 q 374 724 357 730 l 374 632 q 305 644 336 644 q 212 608 247 644 q 176 510 176 571 l 176 0 l 81 0 m 152 -241 l 152 -117 l 250 -117 l 250 -241 l 152 -241 z "},"Ṣ":{"ha":591,"x_min":37,"x_max":541,"o":"m 288 -9 q 102 60 165 -9 q 37 263 39 130 l 37 279 l 134 279 l 134 263 q 178 124 138 168 q 292 80 217 80 q 404 122 366 80 q 441 252 441 164 q 407 368 441 328 q 290 442 373 408 l 235 464 q 93 561 140 503 q 46 716 46 618 q 111 901 46 830 q 293 972 175 972 q 467 907 404 972 q 536 713 530 842 l 536 680 l 441 680 l 441 713 q 292 882 430 882 q 183 840 218 882 q 148 722 148 798 q 180 616 148 655 q 292 545 213 576 l 349 524 q 492 425 444 486 q 541 254 541 365 q 476 58 541 126 q 288 -9 411 -9 m 247 -241 l 247 -117 l 345 -117 l 345 -241 l 247 -241 z "},"ṣ":{"ha":530,"x_min":56,"x_max":481,"o":"m 266 -11 q 111 45 167 -11 q 56 193 56 100 l 56 201 l 142 201 l 142 193 q 176 103 142 134 q 269 72 210 72 q 356 100 324 72 q 388 187 388 129 q 366 260 388 235 q 290 308 343 286 l 199 346 q 62 533 62 403 q 117 675 62 621 q 270 730 172 730 q 420 675 366 730 q 473 529 473 621 l 473 511 l 387 511 l 387 519 q 357 613 387 579 q 269 647 327 647 q 188 619 218 647 q 157 540 157 591 q 176 475 157 502 q 244 426 195 449 l 335 389 q 445 317 408 359 q 481 194 481 274 q 422 42 481 95 q 266 -11 363 -11 m 217 -241 l 217 -117 l 315 -117 l 315 -241 l 217 -241 z "},"Ṭ":{"ha":510,"x_min":8,"x_max":503,"o":"m 206 0 l 206 868 l 8 868 l 8 959 l 503 959 l 503 868 l 305 868 l 305 0 l 206 0 m 206 -241 l 206 -117 l 304 -117 l 304 -241 l 206 -241 z "},"ṭ":{"ha":410,"x_min":38,"x_max":361,"o":"m 327 0 q 129 189 130 0 l 129 644 l 38 644 l 38 718 l 129 718 l 129 868 l 224 911 l 224 718 l 361 718 l 361 644 l 224 644 l 224 193 q 331 83 224 83 l 350 83 l 350 0 l 327 0 m 156 -241 l 156 -117 l 254 -117 l 254 -241 l 156 -241 z "},"Ẁ":{"ha":909,"x_min":12,"x_max":898,"o":"m 201 0 l 12 959 l 118 959 l 256 153 l 392 959 l 525 959 l 661 153 l 798 959 l 898 959 l 711 0 l 602 0 l 456 808 l 309 0 l 201 0 m 452 1054 l 300 1233 l 403 1233 l 529 1054 l 452 1054 z "},"ẁ":{"ha":800,"x_min":20,"x_max":780,"o":"m 183 0 l 20 718 l 123 718 l 232 153 l 358 718 l 439 718 l 568 153 l 677 718 l 780 718 l 616 0 l 525 0 l 399 543 l 275 0 l 183 0 m 397 800 l 245 979 l 349 979 l 475 800 l 397 800 z "},"Ẃ":{"ha":909,"x_min":12,"x_max":898,"o":"m 201 0 l 12 959 l 118 959 l 256 153 l 392 959 l 525 959 l 661 153 l 798 959 l 898 959 l 711 0 l 602 0 l 456 808 l 309 0 l 201 0 m 406 1054 l 533 1233 l 635 1233 l 484 1054 l 406 1054 z "},"ẃ":{"ha":800,"x_min":20,"x_max":780,"o":"m 183 0 l 20 718 l 123 718 l 232 153 l 358 718 l 439 718 l 568 153 l 677 718 l 780 718 l 616 0 l 525 0 l 399 543 l 275 0 l 183 0 m 351 800 l 479 979 l 581 979 l 430 800 l 351 800 z "},"Ẅ":{"ha":909,"x_min":12,"x_max":898,"o":"m 201 0 l 12 959 l 118 959 l 256 153 l 392 959 l 525 959 l 661 153 l 798 959 l 898 959 l 711 0 l 602 0 l 456 808 l 309 0 l 201 0 m 296 1058 l 296 1177 l 400 1177 l 400 1058 l 296 1058 m 507 1058 l 507 1177 l 612 1177 l 612 1058 l 507 1058 z "},"ẅ":{"ha":800,"x_min":20,"x_max":780,"o":"m 183 0 l 20 718 l 123 718 l 232 153 l 358 718 l 439 718 l 568 153 l 677 718 l 780 718 l 616 0 l 525 0 l 399 543 l 275 0 l 183 0 m 241 804 l 241 924 l 346 924 l 346 804 l 241 804 m 453 804 l 453 924 l 557 924 l 557 804 l 453 804 z "},"Ẓ":{"ha":534,"x_min":42,"x_max":498,"o":"m 42 0 l 42 91 l 388 868 l 57 868 l 57 959 l 487 959 l 487 868 l 140 91 l 498 91 l 498 0 l 42 0 m 218 -241 l 218 -117 l 316 -117 l 316 -241 l 218 -241 z "},"ẓ":{"ha":522,"x_min":69,"x_max":453,"o":"m 69 0 l 69 85 l 351 632 l 69 632 l 69 718 l 453 718 l 453 632 l 171 85 l 453 85 l 453 0 l 69 0 m 212 -241 l 212 -117 l 309 -117 l 309 -241 l 212 -241 z "},"ẞ":{"ha":696,"x_min":81,"x_max":628,"o":"m 269 -4 l 269 87 l 389 87 q 460 101 427 87 q 514 154 494 115 q 534 267 534 193 q 490 405 534 362 q 387 448 446 448 l 286 448 l 286 547 l 442 806 q 372 867 401 850 q 320 884 342 884 q 241 855 274 884 q 192 778 209 826 q 175 673 175 730 l 175 1 l 81 1 l 81 661 q 103 839 81 770 q 177 939 125 907 q 320 968 229 970 q 388 953 349 968 q 467 903 427 937 q 538 810 507 868 l 382 544 q 500 511 444 544 q 592 418 556 479 q 628 270 628 357 q 373 -4 628 -4 l 269 -4 z "},"Ạ":{"ha":640,"x_min":12,"x_max":628,"o":"m 12 0 l 274 959 l 366 959 l 628 0 l 521 0 l 460 244 l 179 244 l 118 0 l 12 0 m 201 332 l 438 332 l 320 806 l 201 332 m 271 -241 l 271 -117 l 369 -117 l 369 -241 l 271 -241 z "},"ạ":{"ha":556,"x_min":56,"x_max":475,"o":"m 239 -11 q 103 45 151 -11 q 56 203 56 100 q 111 355 56 301 q 270 410 167 410 l 381 410 l 381 525 q 270 646 381 646 q 190 617 217 646 q 163 540 163 589 l 163 529 l 73 529 l 73 541 q 126 679 73 628 q 270 730 179 730 q 422 675 370 730 q 475 521 475 621 l 475 0 l 385 0 l 385 66 q 239 -11 336 -11 m 151 205 q 262 71 151 72 q 349 105 316 71 q 381 206 381 140 l 381 339 l 279 339 q 151 205 151 339 m 229 -241 l 229 -117 l 327 -117 l 327 -241 l 229 -241 z "},"Ẹ":{"ha":559,"x_min":83,"x_max":510,"o":"m 83 0 l 83 959 l 510 959 l 510 868 l 183 868 l 183 533 l 464 533 l 464 442 l 183 442 l 183 91 l 510 91 l 510 0 l 83 0 m 231 -241 l 231 -117 l 328 -117 l 328 -241 l 231 -241 z "},"ẹ":{"ha":566,"x_min":69,"x_max":498,"o":"m 286 -11 q 69 244 69 -11 l 69 476 q 125 664 69 598 q 282 730 180 730 q 440 665 382 730 q 498 476 498 601 l 498 331 l 164 331 l 164 245 q 197 110 164 149 q 289 71 231 71 q 403 214 403 71 l 403 220 l 496 220 l 496 216 q 441 47 496 104 q 286 -11 387 -11 m 164 403 l 404 403 l 404 476 q 374 606 404 568 q 283 644 343 644 q 195 605 225 644 q 164 473 164 566 l 164 403 m 233 -241 l 233 -117 l 331 -117 l 331 -241 l 233 -241 z "},"Ị":{"ha":282,"x_min":92,"x_max":191,"o":"m 92 0 l 92 959 l 191 959 l 191 0 l 92 0 m 92 -241 l 92 -117 l 190 -117 l 190 -241 l 92 -241 z "},"ị":{"ha":275,"x_min":90,"x_max":187,"o":"m 91 0 l 91 718 l 184 718 l 184 0 l 91 0 m 91 831 l 91 958 l 186 958 l 186 831 l 91 831 m 90 -241 l 90 -117 l 187 -117 l 187 -241 l 90 -241 z "},"Ọ":{"ha":663,"x_min":72,"x_max":591,"o":"m 332 -11 q 144 62 216 -11 q 72 279 72 134 l 72 680 q 143 900 72 829 q 332 971 214 971 q 522 898 452 971 q 591 680 591 825 l 591 279 q 520 62 591 136 q 332 -11 449 -11 m 174 278 q 334 80 174 81 q 449 129 408 80 q 490 278 490 178 l 490 670 q 449 828 490 777 q 334 879 408 879 q 174 670 174 879 l 174 278 m 282 -241 l 282 -117 l 380 -117 l 380 -241 l 282 -241 z "},"ọ":{"ha":567,"x_min":69,"x_max":499,"o":"m 286 -11 q 126 48 183 -11 q 69 233 69 107 l 69 484 q 126 670 69 610 q 286 730 183 730 q 442 671 385 730 q 499 484 499 612 l 499 233 q 442 49 499 109 q 286 -11 385 -11 m 164 244 q 195 112 164 151 q 285 73 227 73 q 374 113 343 73 q 404 244 404 152 l 404 473 q 374 605 404 566 q 285 644 345 644 q 195 606 227 644 q 164 473 164 567 l 164 244 m 235 -241 l 235 -117 l 332 -117 l 332 -241 l 235 -241 z "},"Ụ":{"ha":666,"x_min":83,"x_max":583,"o":"m 334 -11 q 206 21 263 -11 q 116 111 149 53 q 83 244 83 168 l 83 959 l 184 959 l 184 250 q 224 124 184 168 q 334 80 264 80 q 442 125 403 80 q 481 250 481 171 l 481 959 l 583 959 l 583 244 q 514 58 583 127 q 334 -11 445 -11 m 285 -241 l 285 -117 l 382 -117 l 382 -241 l 285 -241 z "},"ụ":{"ha":576,"x_min":81,"x_max":496,"o":"m 289 -11 q 81 221 81 -11 l 81 718 l 176 718 l 176 285 q 200 122 176 171 q 290 73 224 73 q 359 92 335 73 q 392 157 382 111 q 401 285 401 203 l 401 718 l 496 718 l 496 221 q 289 -11 496 -11 m 239 -241 l 239 -117 l 336 -117 l 336 -241 l 239 -241 z "},"Ỳ":{"ha":544,"x_min":12,"x_max":532,"o":"m 222 0 l 222 399 l 12 959 l 123 959 l 273 519 l 420 959 l 532 959 l 323 399 l 323 0 l 222 0 m 269 1054 l 117 1233 l 220 1233 l 346 1054 l 269 1054 z "},"ỳ":{"ha":514,"x_min":20,"x_max":495,"o":"m 62 -214 l 62 -129 l 85 -129 q 169 -109 140 -129 q 210 -39 198 -90 l 216 -16 l 20 718 l 123 718 l 259 170 l 392 718 l 495 718 l 285 -68 q 214 -181 264 -148 q 76 -214 163 -214 l 62 -214 m 255 800 l 103 979 l 206 979 l 332 800 l 255 800 z "},"Ỵ":{"ha":544,"x_min":12,"x_max":532,"o":"m 222 0 l 222 399 l 12 959 l 123 959 l 273 519 l 420 959 l 532 959 l 323 399 l 323 0 l 222 0 m 222 -241 l 222 -117 l 320 -117 l 320 -241 l 222 -241 z "},"ỵ":{"ha":514,"x_min":20,"x_max":495,"o":"m 62 -214 l 62 -129 l 85 -129 q 169 -109 140 -129 q 210 -39 198 -90 l 216 -16 l 20 718 l 123 718 l 259 170 l 392 718 l 495 718 l 285 -68 q 214 -181 264 -148 q 76 -214 163 -214 l 62 -214 m 317 -241 l 317 -117 l 415 -117 l 415 -241 l 317 -241 z "},"‐":{"ha":521,"x_min":69,"x_max":452,"o":"m 69 438 l 69 528 l 452 528 l 452 438 l 69 438 z "},"–":{"ha":579,"x_min":0,"x_max":579,"o":"m 0 438 l 0 528 l 579 528 l 579 438 l 0 438 z "},"—":{"ha":1156,"x_min":0,"x_max":1157,"o":"m 0 438 l 0 528 l 1157 528 l 1157 438 l 0 438 z "},"‘":{"ha":208,"x_min":57,"x_max":152,"o":"m 57 680 l 57 922 l 152 1004 l 152 680 l 57 680 z "},"’":{"ha":208,"x_min":57,"x_max":152,"o":"m 57 633 l 57 959 l 152 959 l 152 715 l 57 633 z "},"‚":{"ha":208,"x_min":57,"x_max":152,"o":"m 57 -195 l 57 129 l 152 129 l 152 -114 l 57 -195 z "},"“":{"ha":388,"x_min":57,"x_max":332,"o":"m 57 680 l 57 922 l 152 1004 l 152 680 l 57 680 m 237 680 l 237 922 l 332 1004 l 332 680 l 237 680 z "},"”":{"ha":388,"x_min":57,"x_max":332,"o":"m 57 633 l 57 959 l 152 959 l 152 715 l 57 633 m 237 633 l 237 959 l 332 959 l 332 715 l 237 633 z "},"„":{"ha":388,"x_min":57,"x_max":332,"o":"m 57 -195 l 57 129 l 152 129 l 152 -114 l 57 -195 m 237 -195 l 237 129 l 332 129 l 332 -114 l 237 -195 z "},"†":{"ha":655,"x_min":81,"x_max":574,"o":"m 278 -212 l 278 526 l 81 526 l 81 618 l 278 618 l 278 959 l 380 959 l 380 618 l 574 618 l 574 526 l 380 526 l 380 -212 l 278 -212 z "},"‡":{"ha":655,"x_min":81,"x_max":574,"o":"m 278 -212 l 278 123 l 81 123 l 81 216 l 278 216 l 278 533 l 81 533 l 81 625 l 278 625 l 278 959 l 380 959 l 380 625 l 574 625 l 574 533 l 380 533 l 380 216 l 574 216 l 574 123 l 380 123 l 380 -212 l 278 -212 z "},"•":{"ha":586,"x_min":123,"x_max":463,"o":"m 293 258 q 172 307 221 258 q 123 427 123 355 q 172 549 123 500 q 293 597 222 597 q 415 549 365 597 q 463 427 463 502 q 415 307 463 357 q 293 258 366 258 z "},"…":{"ha":796,"x_min":57,"x_max":741,"o":"m 57 0 l 57 123 l 165 123 l 165 0 l 57 0 m 345 0 l 345 123 l 453 123 l 453 0 l 345 0 m 632 0 l 632 123 l 741 123 l 741 0 l 632 0 z "},"‰":{"ha":1345,"x_min":43,"x_max":1305,"o":"m 68 0 l 434 959 l 517 959 l 152 0 l 68 0 m 770 -23 q 660 19 699 -23 q 621 144 621 61 l 621 426 q 770 593 621 590 q 920 429 918 593 l 920 144 q 770 -23 920 -20 m 719 152 q 732 79 719 98 q 770 61 745 61 q 810 79 798 61 q 822 152 822 96 l 822 416 q 812 490 822 472 q 770 507 802 507 q 730 489 741 507 q 719 416 719 471 l 719 152 m 1156 -23 q 1045 19 1084 -23 q 1006 144 1006 61 l 1006 426 q 1156 593 1006 590 q 1305 429 1303 593 l 1305 144 q 1156 -23 1305 -20 m 1104 152 q 1117 79 1104 98 q 1156 61 1130 61 q 1195 79 1183 61 q 1207 152 1207 96 l 1207 416 q 1197 490 1207 472 q 1156 507 1187 507 q 1115 489 1126 507 q 1104 416 1104 471 l 1104 152 m 193 366 q 82 408 121 366 q 43 533 43 450 l 43 815 q 193 982 43 979 q 342 818 340 982 l 342 533 q 193 366 342 369 m 141 541 q 154 469 141 487 q 193 450 167 450 q 232 468 220 450 q 244 541 244 486 l 244 806 q 234 879 244 861 q 193 897 224 897 q 152 878 163 897 q 141 806 141 860 l 141 541 z "},"′":{"ha":228,"x_min":54,"x_max":180,"o":"m 54 800 l 79 979 l 180 979 l 133 800 l 54 800 z "},"″":{"ha":404,"x_min":54,"x_max":357,"o":"m 231 800 l 255 979 l 357 979 l 309 800 l 231 800 m 54 800 l 79 979 l 180 979 l 133 800 l 54 800 z "},"‹":{"ha":358,"x_min":27,"x_max":277,"o":"m 277 113 l 27 366 l 277 621 l 277 515 l 132 366 l 277 218 l 277 113 z "},"›":{"ha":372,"x_min":81,"x_max":331,"o":"m 81 113 l 81 218 l 227 366 l 81 515 l 81 621 l 331 366 l 81 113 z "},"⁄":{"ha":233,"x_min":-109,"x_max":340,"o":"m -109 0 l 258 959 l 340 959 l -24 0 l -109 0 z "},"⁰":{"ha":357,"x_min":30,"x_max":328,"o":"m 179 570 q 68 612 107 570 q 30 736 30 654 l 30 1019 q 179 1185 30 1183 q 328 1021 327 1185 l 328 736 q 179 570 328 572 m 127 745 q 140 672 127 690 q 179 654 153 654 q 218 671 206 654 q 231 745 231 689 l 231 1009 q 220 1082 231 1065 q 179 1100 210 1100 q 138 1082 149 1100 q 127 1009 127 1063 l 127 745 z "},"⁴":{"ha":369,"x_min":16,"x_max":354,"o":"m 202 578 l 202 692 l 16 692 l 16 764 l 148 1177 l 248 1177 l 118 776 l 202 776 l 202 925 l 300 925 l 300 776 l 354 776 l 354 692 l 300 692 l 300 578 l 202 578 z "},"⁵":{"ha":353,"x_min":30,"x_max":324,"o":"m 182 570 q 30 713 30 570 l 30 743 l 125 743 l 125 715 q 175 654 125 655 q 214 669 202 654 q 227 720 227 684 l 227 823 q 215 875 227 860 q 172 890 203 890 q 118 849 142 890 l 37 849 l 37 1177 l 319 1177 l 319 1090 l 130 1090 l 130 962 q 189 974 157 974 q 324 823 324 974 l 324 723 q 291 613 324 656 q 182 570 258 570 z "},"⁶":{"ha":350,"x_min":26,"x_max":326,"o":"m 175 570 q 67 610 109 570 q 26 718 26 650 l 26 800 q 56 924 26 863 l 170 1177 l 270 1177 l 167 947 l 171 947 q 267 933 233 951 q 313 883 300 916 q 326 808 326 850 l 326 716 q 285 611 326 650 q 175 570 244 572 m 123 716 q 176 654 123 654 q 228 715 228 654 l 228 804 q 176 864 228 864 q 123 807 123 864 l 123 716 z "},"⁷":{"ha":320,"x_min":11,"x_max":309,"o":"m 41 578 l 208 1093 l 11 1093 l 11 1177 l 309 1177 l 309 1107 l 140 578 l 41 578 z "},"⁸":{"ha":357,"x_min":30,"x_max":328,"o":"m 179 570 q 69 611 109 570 q 30 719 30 652 l 30 781 q 79 891 30 854 q 33 993 33 928 l 33 1046 q 72 1146 33 1108 q 179 1185 111 1184 q 286 1147 247 1185 q 324 1046 324 1109 l 324 993 q 281 891 324 926 q 328 784 328 854 l 328 719 q 289 609 328 648 q 179 570 250 570 m 179 651 q 236 720 236 651 l 236 783 q 180 850 236 850 q 122 783 122 850 l 122 720 q 179 651 122 651 m 179 930 q 233 993 232 930 l 233 1046 q 179 1103 233 1103 q 126 1046 126 1103 l 126 993 q 179 930 126 930 z "},"⁹":{"ha":350,"x_min":26,"x_max":326,"o":"m 81 578 l 186 808 q 175 807 180 807 q 164 807 170 807 q 62 845 99 807 q 26 945 26 883 l 26 1039 q 66 1146 26 1107 q 176 1185 107 1185 q 285 1145 244 1185 q 326 1038 326 1105 l 326 955 q 297 830 326 895 l 182 578 l 81 578 m 123 951 q 176 890 123 890 q 228 947 228 890 l 228 1039 q 176 1100 228 1100 q 123 1040 123 1100 l 123 951 z "},"€":{"ha":631,"x_min":42,"x_max":560,"o":"m 347 -11 q 179 57 229 -11 q 129 248 129 125 l 129 351 l 42 351 l 42 438 l 129 438 l 129 529 l 42 529 l 42 617 l 129 617 l 129 724 q 182 905 129 837 q 347 972 235 972 q 503 913 448 972 q 559 746 557 854 l 464 746 q 434 848 460 814 q 349 882 408 882 q 231 731 231 882 l 231 617 l 472 617 l 456 529 l 231 529 l 231 438 l 438 438 l 420 351 l 231 351 l 231 244 q 256 122 231 165 q 349 79 282 79 q 432 113 406 79 q 464 217 458 148 l 560 217 q 503 47 559 104 q 347 -11 446 -11 z "},"™":{"ha":929,"x_min":42,"x_max":846,"o":"m 442 411 l 442 959 l 532 959 l 644 620 l 647 620 l 757 959 l 846 959 l 846 411 l 761 411 l 761 745 l 758 745 l 674 496 l 616 496 l 530 745 l 528 745 l 528 411 l 442 411 m 160 411 l 160 875 l 42 875 l 42 959 l 368 959 l 368 875 l 250 875 l 250 411 l 160 411 z "},"−":{"ha":583,"x_min":69,"x_max":514,"o":"m 69 438 l 69 528 l 514 528 l 514 438 l 69 438 z "},"∕":{"ha":233,"x_min":-109,"x_max":340,"o":"m -109 0 l 258 959 l 340 959 l -24 0 l -109 0 z "},"◌":{"ha":754,"x_min":69,"x_max":685,"o":"m 648 315 q 623 326 633 315 q 612 351 612 336 q 623 377 612 366 q 648 388 633 388 q 674 377 663 388 q 685 351 685 366 q 674 326 685 336 q 648 315 663 315 m 377 586 q 351 597 362 586 q 340 623 340 608 q 351 648 340 637 q 377 659 362 659 q 403 648 392 659 q 414 623 414 637 q 403 597 414 608 q 377 586 392 586 m 377 43 q 351 54 362 43 q 340 80 340 65 q 351 106 340 95 q 377 117 362 117 q 403 106 392 117 q 414 80 414 95 q 403 54 414 65 q 377 43 392 43 m 106 315 q 80 326 91 315 q 69 351 69 336 q 80 377 69 366 q 106 388 91 388 q 132 377 121 388 q 142 351 142 366 q 132 326 142 336 q 106 315 121 315 m 140 445 q 114 456 125 445 q 103 481 103 467 q 114 507 103 496 q 140 517 125 517 q 165 507 155 517 q 176 481 176 496 q 165 456 176 467 q 140 445 155 445 m 140 186 q 114 197 125 186 q 103 221 103 208 q 114 247 103 236 q 140 258 125 258 q 165 247 155 258 q 176 221 176 236 q 165 197 176 208 q 140 186 155 186 m 614 445 q 589 456 600 445 q 578 481 578 467 q 589 507 578 496 q 614 517 600 517 q 640 507 629 517 q 651 481 651 496 q 640 456 651 467 q 614 445 629 445 m 614 186 q 589 197 600 186 q 578 221 578 208 q 589 247 578 236 q 614 258 600 258 q 640 247 629 258 q 651 221 651 236 q 640 197 651 208 q 614 186 629 186 m 235 548 q 210 559 221 548 q 199 585 199 570 q 210 610 199 600 q 235 620 221 620 q 260 610 250 620 q 271 585 271 600 q 260 559 271 570 q 235 548 250 548 m 518 548 q 494 559 505 548 q 483 585 483 570 q 494 610 483 600 q 518 620 505 620 q 544 610 533 620 q 555 585 555 600 q 544 559 555 570 q 518 548 533 548 m 235 83 q 210 94 221 83 q 199 118 199 104 q 210 144 199 133 q 235 155 221 155 q 260 144 250 155 q 271 118 271 133 q 260 94 271 104 q 235 83 250 83 m 518 83 q 494 94 505 83 q 483 118 483 104 q 494 144 483 133 q 518 155 505 155 q 544 144 533 155 q 555 118 555 133 q 544 94 555 104 q 518 83 533 83 z "},"⸗":{"ha":583,"x_min":54,"x_max":530,"o":"m 85 129 l 54 214 l 499 377 l 530 292 l 85 129 m 85 388 l 54 473 l 499 636 l 530 551 l 85 388 z "},"ﬁ":{"ha":675,"x_min":54,"x_max":586,"o":"m 140 0 l 140 644 l 54 644 l 54 718 l 140 718 l 140 770 q 186 910 140 861 q 323 959 232 959 l 358 959 l 358 883 l 331 883 q 257 859 279 883 q 235 784 235 834 l 235 718 l 358 718 l 358 644 l 235 644 l 235 0 l 140 0 m 491 0 l 491 718 l 585 718 l 585 0 l 491 0 m 490 831 l 490 943 l 586 943 l 586 831 l 490 831 z "},"ﬂ":{"ha":724,"x_min":54,"x_max":697,"o":"m 140 0 l 140 644 l 54 644 l 54 718 l 140 718 l 140 770 q 186 910 140 861 q 323 959 232 959 l 358 959 l 358 883 l 331 883 q 257 859 279 883 q 235 784 235 834 l 235 718 l 358 718 l 358 644 l 235 644 l 235 0 l 140 0 m 674 0 q 530 50 579 0 q 481 190 481 99 l 481 959 l 578 959 l 578 194 q 677 84 578 84 l 697 84 l 697 0 l 674 0 z "}}}
